<svg xmlns="http://www.w3.org/2000/svg" viewBox="0 0 503.67 418.95"><g id="Layer_2" data-name="Layer 2"><g id="Layer_1-2" data-name="Layer 1"><path d="M391.11,351.53c-.28-11.16.8-22.66.91-33.57.16-16.37-1.19-32.94-1.44-49.43A2.81,2.81,0,0,1,390,266c.11-1.07-.09-2.17,0-3.23,1-8.73-1.46-17.26-1.47-25.92,0-4.22,2.75-8.19,1-12.76-3.17,2.34-6.93,1.65-10.56,1.59-3.31-.05-4.89-1.88-4.94-5.22,0-2.28-.07-4.56,0-6.83s-.92-2.88-3-3c-7-.27-7-.34-7,6.52,0,2.76-.05,5.51,0,8.27.08,3.78,1.72,5.57,5.52,6.09,3.18.44,5,2.21,5.17,5.42.12,1.91.06,3.84,0,5.75a3.68,3.68,0,0,1-3.16,3.83c-7.72.9-15.66-.25-20.31-8.05a18.87,18.87,0,0,1-2.41-9.62c-.08-4.79-.14-9.59,0-14.38.09-2.72-.72-4.16-3.63-3.83l-3.4,0c-1.2,2.47-3.45,1.06-5.22,1.39-1.22,1.16-1.9.81-2.13-.76-1.56-1.2-3.38-.46-5.07-.68h-4.31l-.7.05,0,2.11c4.21,1.25,8.71,1.46,12.77,3.23,11.07,4.82,12.25,20,2.18,27.44a20.22,20.22,0,0,1-11.71,3.91c-6.46.18-12.95.38-19-2.5-3.83-1.82-4.27-2.88-2.91-6.72C308.6,230,308.6,230,317,231.55c2.46.44,4.93.81,7.39,1.27a7.63,7.63,0,0,0,3.87-.5c1-.32,1.86-.74,1.83-1.89s-.95-1.45-1.94-1.75c-3.31-1-6.76-1.1-10.13-2-5-1.3-11-7.42-10.82-12.71.15-4.22-3.2-3.72-5.47-3.88-2.54-.18-4.65,1.1-4.65,4.24q0,12.77,0,25.53c0,5.87-1,6.8-6.92,6.81-9,0-9.05,0-8.9-8.76.06-3.61-.51-7.14-.71-10.72l-.72,0-2.15.82c-.59,2.54-3.42.37-4.4,2.08a26.36,26.36,0,0,0,2.59,1.89c3.58,2,4.18,5,1.54,8.06-7.25,8.38-20.36,10.08-30,4.32-3.79-2.27-5.95-5.46-8-9.71v6.52c0,4.7-.73,5.85-5.48,6a22.39,22.39,0,0,1-10.82-1.92c-6.27-3.15-9.18-8.56-9.54-15.31-.29-5.5-.13-11-.05-16.55,0-2-.55-2.72-2.63-2.81-8.14-.38-8.14-.45-8.14,7.7,0,2.52-.14,5.05,0,7.55.23,3.17,1.58,5.38,5.2,5.69,3.79.33,4.85,1.69,4.85,5.62,0,10.19,1.14,10.14-10.21,9.29-8.51-.64-14.42-5.77-15-15.67-.33-5.5-.23-11,0-16.55.11-2.85-.77-4-3.62-3.59,0,9,0,18,0,27,0,1.2.6,2.77-1.3,3.27-.18,1.12.14,2.32-1.44,2.93-9.73,3.7-19.52,5.34-29.7,1.76-4.2-1.48-6.85-4.58-9.16-8.46-1.39,1.73-.75,3.34-.89,4.8-.38,4-1.68,5.35-5.66,5.36-12.19,0-10,.86-10.16-9.7-.08-6.47,0-13,0-19.43a14.92,14.92,0,0,0-1.16-5.57c-1-2.71-3.21-3.12-5.59-2.63a4.06,4.06,0,0,0-3.41,4.4q0,12.77,0,25.54c0,6.24-1.14,7.48-7.27,7.35-2.74-.06-5.66,1.48-8.5-1.37,0,7.24-.12,13.81,0,20.37.08,3.09-.92,4.34-4.12,4.2-4.55-.21-9.11-.05-13.67-.06-2.3,0-4.07-.56-3.86-3.43.09-1.29,0-1.87-1.9-2-7.9-.73-15.8-.05-23.69-.36-3.23-.13-2.57,2.11-2.57,3.91q0,41.91,0,83.82c0,5.24,0,5.24,5.38,5.24,6.48,0,13,0,19.43,0,2,0,3.41-.08,3.51-2.73.11-3,1.89-4.22,5.06-4,4.3.28,8.63.12,13,.05,2.13,0,3.51.63,3.55,3,2.67-.32,2.79,1.32,2.79,3.35,0,14.15.07,28.3-.1,42.44,0,3.18.84,4,4,4,24.94-.13,49.88,0,74.82-.12,2.67,0,3.52.49,1.89,2.93,1.75.8,2.2,2.2,2.26,4.06.08,2.43-.71,4.95.56,7.3v-8.19c1.85.34,2.19,1.4,2.12,2.23-.31,3.6,1.66,4.05,4.64,4,8.85-.14,17.74.39,26.56-.14,22-1.31,44-.23,66-.58,2.91-.05,5.83.43,8.75.66.17-8.69.17-8.68,8.86-8.68l86.9-.1q0-25.67.07-51.32C389.94,354.19,389.7,352.48,391.11,351.53ZM81,349.46v-.36H97.34l.06.36Zm-.25-77.2c5.63-1.49,11.34-1,17-1.13,0,.37,0,.75,0,1.13Z" style="fill:#010101"/><path d="M499.31,394.19q.06-63.84,0-127.67V184.16c0-5.62-.07-5.69-5.62-4.74-.64.11-1.15.22-1.58-.35-.91,3.22-2.23,6.09-5.66,7.48-.84.34-1.42,1.19-2.53.7-.9-.39-1.83-.15-1.84.94,0,2.64-2.11,3.57-3.74,4.83L466,202.58c-3,2.34-6.34,5.1-10.67,5.22.06.51.12,1,.17,1.52.34,2.21-1.51,2.78-2.75,3.94-3.19,3-8.22,4.74-7.71,10.51,0,.2-.72.46-1.11.7a27.74,27.74,0,0,1-8.71,1.52c-.06.9-.38,1.84-1.37,1.72s-.71-1.29-.86-2.05l-2.1.93c0,.25,0,.49,0,.74,1.42,2-.05,3.12-1.34,4.09-2.46,1.83-4.71,4.55-7.32,5.39-3,1-3.26,4.81-6.47,4.87,0,1.08,0,2.28-1.2,2.68-3.54,1.16-5.91,4.42-9.6,5.29-.26,1.76-1.63,1.42-2.77,1.43-2.26,0-4.53.07-6.79,0-1.71-.07-3.28,0-3.94,2-1.59-1.18-.3-3.17-1.63-4.12-.23,24-.72,48-1.26,72a2.73,2.73,0,0,1,.56,2.05c1.13,1,.59,2.39.83,3.6,1.15.13,2.12,1,3.46.47s2.54.1,2.9,1.7l1.13.88,2.27,0c.83-.59-2.06-2.48.69-2.25,1.88.16,5.24-2.78,5.24,2.13,2.13,1.25,5.05,1.73,5,5.11l.61.35c.14-2.88.8-3.24,3.11-1.12,3.05,2.8,6.68,5,8.43,9,.12.28.58.69.75.63,4.24-1.37,5.85,2.7,8.41,4.38,5.32,3.5,10.17,7.73,15.11,11.8,7.64,6.31,15.75,12,23.36,18.37,6.35,5.31,13.28,9.94,19.41,15.55,1.31.59,2.85,1.08,3.36,2.52.79,2.22,2.06,2.37,4.17,1.93C500.14,397.55,499.31,395.66,499.31,394.19Z" style="fill:#010101"/><path d="M19.44,100.73a.23.23,0,0,1,.24-.28c2.55.47,4.35-.71,5.87-2.61a10.48,10.48,0,0,1,2.25-2.26c3.44-2.27,5.05-6.39,9.12-8.3,1.37-.65,2.49-2.83,4.74-3a1.49,1.49,0,0,0,1.09-.85C44.61,76.51,53.32,81.64,55.9,76h.34c3.38,1.49,5.87-2.44,9.35-.71-.51-2-2.11-.88-2.48-1.76,2.4-1.75,5,1.37,7.45-.3-.6-1.32-2-.31-2.48-1.21,3.38-1.41,6.39.81,9.6,1,4.9.22,9.82-.07,14.73.11,2.48.09,3.19-1,3-3.15l1.32.1A15.49,15.49,0,0,0,108,75.18c2.54,0,2.31.4,4,1.09s2.91,2.25,4.63,2.45c2.51.3,4.58,3,7.6,1.13,1-.6,2.55.86,3.06,2.13.63,1.56.73,3.56,2.87,1.15.4-.45,1.14.16,1.12.38-.3,3.84,3.16,4.28,5.3,5.82,3.7,2.66,6.81,1.23,7.35-3.33.36.65.56,1.6,1,1.73.87.25,1-.77,1.32-1.36,1.11-2.07.28-4.67,1.37-6.56,1.69-2.93-.1-3-2.06-3.16a1.32,1.32,0,0,1,.87-1.65.9.9,0,0,0,0-1.24c.09-.68.19-1.36.28-2,.61.19,1.54-.29,1.74.77.13.66-.93,1.81.64,1.84.91,0,.89-1,1.11-1.63a8.24,8.24,0,0,1,.54-1.7c2.11-3.21-.13-8.15,4.22-10.51a2.15,2.15,0,0,0,.57-2c-.52-1.45.24-1.71,1.28-2.34a8.35,8.35,0,0,0,2.94-3c4.11-7.73,10.26-13.82,16-20.2a19.52,19.52,0,0,1,7.34-5.25c-.12,2.15-3.24,2.61-2.86,5-3.17,2.47-7.56,4.13-6.4,9.52l-.7.65c-4.2.28-7.68,5.19-6.84,9.64l-.12.17c-.91-.73-1.87-1.72-2.66.06s.65,1.55,1.6,1.77A1.68,1.68,0,0,1,164.06,56c-1.52-.11-3.05-.5-3.84,1.54a34.2,34.2,0,0,1-3.52,7.63c-1,1.43.83,2.95-.16,3.26-4.47,1.39,0,2.68-.09,4a3,3,0,0,1-.49,2.25c-2.83-1.28-4-.59-3.65,2.46a8.87,8.87,0,0,0,1.29,4.65c-.08.7-.15,1.41-.23,2.12-2.22-.06-1.78,1.62-1.91,2.92-2.72.2-3.74,3-3.68,4.38a136.31,136.31,0,0,1,0,15c-.71,10.13,1.92,19.74,3.81,29.48.46,2.36,1.1,4.86,4.56,3.75.12.23.23.47.35.7-1.2.67-2.2,1.77-1.65,3,.49,1.12,1.83.43,2.81.16l.13.06-.57,1.77c-1.06.08-1.75.86-1.32,1.66,1.19,2.22,1.59,5,4.22,6.26-.12,2.76,1.62,3,3.75,2.83a.23.23,0,0,1,.18.33c-2.24,2.29-.66,4.16.68,6a44.36,44.36,0,0,1,3.16,4.27c1,1.83,2.25,2.24,4.06,1.5a1.77,1.77,0,0,1,1.23,1.58c-1.74,1.37-1.54,2.64,0,4.09,2.8,2.6,5.33,5.5,8.25,7.95,3.4,2.86,6.53,5.59,6.07,10.68-.24,2.7-1.16,3.23-3.32,1.79a32,32,0,0,1-5.73-4.25c-2.63-2.75-5.37-5.4-8.06-8.1-.79-.8-1.59-1.55-2.77-.69-.75.54-2.34.72-1,2.23a3.79,3.79,0,0,1-1.34,2.19,5.88,5.88,0,0,0-5.26,4.07c-1.6,4.09-3.81,6.42-9.39,5.58-8-1.2-8.57,0-10.07,7.73-.06.31-.38.58-.84,1.23-3.09-4.71-7.54-7.21-12.68-8.65-.31-1.44-1-1.72-2.17-.76l-1.37.07c-.07-1.17-.15-2.34-.22-3.52,3.58-1.31,3.59-1.33.89-3.7-.57-.5-.74-1-.24-1.48,1.13-1.14.12-1.79-.39-2.71-3.52-6.28-9.42-9.6-15.75-12a11,11,0,0,0-7.65.26l0,.94h6.51c-5.13,1.8-10.83-1.71-15.61,3.08-3.84,3.84-7,7.64-6.72,13.39-.76-.32-.34-2-1.38-1.61s-.62,1.48,0,2.3a13,13,0,0,1,.8,1.47c-1.24.89,0,2.7-1.34,3.56-.27-.78.43-2.24-.77-2.24s-.51,1.46-.78,2.24l-4.24.06c.94-3.95.69-8,.69-12,0-2.74-2.69-4-3.48-6.34,0,0-1.25.33-1.92.51-.38-.5-.75-1-1.13-1.49.06-1.1,1-2.12,0-3.32-2.07-2.43-4.27-4.85-7.14-6.15-1.78-.8-3.77,1-5.75,1.23H52.82c-1.68-.9-3.19-.94-4.31.89-.61.29-.83-.31-1.22-.53-3.27-.58-5,2.14-7.41,3.43-2.22,1.19-2.26,2.8-.93,4.69l-.14.24c-1.88-.89-3.31-.38-4,1.53-1,2.69-2.54,5.41-2.64,8.16-.19,5.34,2,10.06,5.56,14.11,1,1.17,1.89.54,2.85.12l.79.63c-.07,1.13.44,1.6,1.56,1.38l-.16.12.14-.13c-.11.28-.22.55-.34.83-.8.2-1.5.68-.77,1.45,1.36,1.44,2.55,2.95,4.64,3.74,4.67,1.77,9.44,1.16,14.19,1.39A54.33,54.33,0,0,0,61,216c1.27,7.36,8.36,10.81,16.73,11.86,1.89.24,3.8.18,5.32,1.57,0,.69,0,1.38,0,2.07h0c-4.08,1.71-8.15-.15-12.22,0-2.4-.46-4.67-1.57-7.19-1.4a2,2,0,0,0-2.19,2.14h0a14.5,14.5,0,0,1-6.15-1.36c-2.24-.83-4.29-2.41-6.87-2.21a3.89,3.89,0,0,0-2.27-2.19C36.86,223.16,30.7,215.81,24,209.2,17,202.3,12.49,193.81,9,184.74c-.74-1.89-1.34-3.64-3.31-4.84C4.12,179,3.71,177.07,4,175.08c.37-2.76,2.13-5.79-1.14-8.1-.16-.12.09-.83.16-1.27,1.1-7.51,1.7-15-.31-22.49-.16-.58-.4-1.2.36-1.51,4.34-1.78-.06-6.39,2.8-8.64-2.81-1.71,0-3.45-.26-5.16.44.53.55,1.25,1,1.52s.76-.26.82-.77c.28-2.53,2.09-4.51,2.69-6.8.91-3.49,4.11-6,3.87-9.89h0a36.13,36.13,0,0,0,4.69-6.14A5.07,5.07,0,0,0,19.44,100.73Zm20.5,14.14-1.44,0c-1.85.37-3.71.7-4.32,2.91-1.73,1-1.73,2.78-2.11,4.41l-1.3,1.42c-4.11.22-6.36,3.82-5.32,8.5-2.41-.82-2.55,1.15-2.68,2.49-.2,2-.63,4.51,2.62,4.79a12.1,12.1,0,0,0,1.49,8,21.1,21.1,0,0,0,14,10.38c8.76,2.06,16.41-1.11,22.24-8.24,3.94-4.82,6.43-13.61,3.63-19.26-1.45-2.93-1.77-.15-2.59-.06l.23-.08-.24.05c1-3,1.1-6-1.86-7.8a14.53,14.53,0,0,1-2.93-2.87c-2.26-2.43-5.19-5.44-8.25-4.76s-6.08.36-9.07.87c1.39-1.77,3.89.17,5.67-1.74C44.76,113.13,42.25,113,39.94,114.87Zm38.4-17.76-.24-.21.23.22c-4.27-.37-7,2.2-7.45,7h0c-1.42.18-1.47,1.19-1.36,2.27.16,1.56,1.37,1.17,2.34,1.23l-.06.78c-2.34,2.28-2.34,4.89,0,6.61.08.72.16,1.43.23,2.15-1.83,2.58-1,5,.77,7a48.4,48.4,0,0,0,5.53,5.56c1.88,1.58,4.59,2.13,6.69,2.76,2.28.68,5.53-.17,8.35-.37.87-.06,1.17-.69,1.25-1.47a1.81,1.81,0,0,1,1.77-.18c2.89.91,5.53.7,8-1.39a26.49,26.49,0,0,0,5-5.59c2.28-3.55,5.5-6.94,2.66-11.72a1.89,1.89,0,0,1,.25-1.69c1.69-2,.67-3.89.12-6s-2.5-2.77-3.34-4.48c-2.32-4.7-9.72-8.2-15-7.26l-5.89,0c-2.48-1.91-4.29,1.1-6.6.89C78.2,92.87,77.48,93.9,78.34,97.11Zm-3.13,62.41a10.66,10.66,0,0,0,.09,2.12c.63,2.74,3.18,3.35,5.25,4.13a2.48,2.48,0,0,0,3.4-2.14,9.74,9.74,0,0,0,4.59-1.52c1.59,1.19,2.95,1.08,4.33-.49,2.22-2.52,3.43-5.08,2.71-8.68-.42-2.08-1.19-2.32-2.82-2.13a2.83,2.83,0,0,1-1-1.94c1.94-.13,2.46-1.17,1.12-2.48-2.1-2.07-3.88-5-7.79-3.5-1.21.47-2.75.07-4.49.07,1.41-1.43,3.19,0,4.21-1.42-4.73-1.58-10.53,1.61-13.07,7.3-.86,1.93-2.12,3.93-1.48,6.16.59,2,1,4.53,4.24,3.77Zm54.48,5.12c-.25.9-.8,2,.38,2.52a1.81,1.81,0,0,0,2.55-.47c.32-.51.49-1.1,1.28-.9,3.27.82,4.95-1.69,7.1-3.31a22.36,22.36,0,0,0,6.34-8.27,21.78,21.78,0,0,0,2-10.54c-.06-.87-.66-.76-1.23-.9a1.11,1.11,0,0,1-.7-1.7c2-2.16.17-3.45-.72-5.23-1.25-2.5-3.53-4-5-6.11s-2.65-1.86-4.31-.7a.29.29,0,0,1-.34-.16c-.18-1.3.87-3.47-1.06-3.63-2.58-.21-4.83-4.09-7.78-.75a2.25,2.25,0,0,1-3,.06c-2.76-2-5.21-.82-7.61.65a30.39,30.39,0,0,0-8.85,8.68c-2.25,3.24-4.44,6.65-4.22,11.29.12,2.64,2.49,4.28,1.88,6.76a4.23,4.23,0,0,0,.82,3.71c3.71,5,8,9.37,14.11,11.43,2.48.84,3.15-.09,2.39-2.43l1.13.12c1.22,1.74,2.45,1.82,3.68,0C128.93,164.71,129.31,164.68,129.69,164.64Zm-43.9-74.2a19.19,19.19,0,0,0,9.81-.09A19.52,19.52,0,0,0,85.79,90.44Zm-35.28,74.9a13.24,13.24,0,0,0,8.37-.06A12.52,12.52,0,0,0,50.51,165.34Z" style="fill:#010101"/><path d="M127.1,195.44c5.13,1.44,9.58,3.94,12.68,8.65.46-.66.78-.92.84-1.23,1.5-7.77,2.09-8.92,10.07-7.73,5.58.84,7.78-1.49,9.39-5.58a5.87,5.87,0,0,1,5.26-4.07c-.44,2.89-2.37,5.09-3.75,7.49-2.15,3.74-3.33,8.08-6.61,11.15a3.16,3.16,0,0,1-1.93-2.81c0-4.91-3.68-2.42-5.77-2.79-2.79-.5-2.93,1.6-2.92,3.7,0,8.88,0,17.75,0,26.63,0,8.38,5.79,14.85,14.1,15.62a49.09,49.09,0,0,0,17.36-1.93c2.82-.76,3.88-2.34,3.84-5.16-.09-6.84,0-13.67,0-20.51,0-7.81,0-7.72,7.8-7.69,2.38,0,3.11.75,3.06,3.1-.14,5.87-.2,11.76,0,17.63A14.91,14.91,0,0,0,196.05,241c2.79,2.38,6.5,2.19,9.88,2.7,1.46.22,3.72,1.09,4-2,.51-5.38,0-6.8-3.12-7.22-3.6-.48-5.85-2.27-6.5-6-1.1-6.32-.26-12.66-.46-19-.05-1.49,1.07-1.66,2.23-1.66,4.08,0,8.16,0,12.23,0,2.28,0,3.14,1.25,2.68,3.21-1.1,4.64-.6,9.32-.49,14,.1,4.13.27,8.41,2.38,12.16,2.7,4.79,7.47,5.93,12.41,6.47,1.71.18,4.17,1.38,4.89-1.29.93-3.42-.71-7-3-7.66-5.39-1.58-7.32-4-7.39-9.46-.06-4.68,0-9.36,0-14,0-2.17.66-3.11,3-3.46,3.35-.49,6.88-.39,10-2.11l1.48-.1-.06.94c-.13,2.67,2,.78,2.87,1.42.2,2.2-1.66,3.79-1.48,6.15a112.33,112.33,0,0,1,.19,12.45,21.44,21.44,0,0,0,2.41,10.3c4.59,9.19,21.5,10.86,28.77,3,1.2-1.3,3.41-2.34,1.9-4.68-1.28-2-6-3.12-7.63-2-3.95,2.74-8.05,4.35-12.65,1.46-2.9-1.82-3.25-4.72-2.69-7.6s3.09-1.66,4.82-1.69c5.64-.11,11.28-.19,16.91,0,3.25.13,4.14-1.13,4.07-4.2-.11-4.78-.15-9.55-1.29-14.23-.22-.92-.57-2,.73-2.4s1.93.55,2.18,1.69.37,2.11.56,3.16c.08.45.06,1,.68,1.12a.89.89,0,0,0,1.1-.67c.17-3.28,2.89-5.72,3-9A9.21,9.21,0,0,1,289,199c1.31,1.49,2,1,2.2-.73,0-.51.28-.67.75-.57.9,1.44.91,2.49-.86,3.44-4.79,2.57-6.87,6.94-7,12.14-.17,9,0,18-.09,27-.06,4.06,2.69,3.42,5.16,3.58s4.36-.2,4.28-3.57c-.18-7.67.23-15.37-.14-23-.34-7,2.3-10.92,11.08-10.78l-.18,1.36a1.56,1.56,0,0,0,2,1.45c3.48-.63,3.89,1.22,3.8,4.11-.14,4.65,3.62,8.6,8.33,10.37,3.55,1.33,7.39.75,10.78,2.18,2,.83,4.51,1.63,4.53,4.48,0,2.68-2.08,3.89-4.07,5a8.07,8.07,0,0,1-2.77.52c-4.5.59-8.83-.5-13-1.77-4-1.21-4.12,2.22-5,4.06-1.11,2.24.1,3.86,2.76,4.68a41.2,41.2,0,0,0,16.66,1.59c4.91-.52,9.67-2.13,12.47-6.67,5.54-9,1.09-19.14-10.86-20.61-3.25-.4-6.85-.42-9.1-3.39-.85-1.12-2.2-3.1-.73-4.05s3.85-1.57,5.12,1l-.7,0c-.74.08-1.87-.32-1.86.88,0,.91,1,1.18,1.83,1.23,4.21,1.25,8.71,1.46,12.77,3.23,11.07,4.82,12.25,20,2.18,27.44a20.22,20.22,0,0,1-11.71,3.91c-6.46.18-12.95.38-19-2.5-3.83-1.82-4.27-2.88-2.91-6.72,2.88-8.15,2.88-8.15,11.24-6.64,2.46.44,4.93.81,7.39,1.27a7.63,7.63,0,0,0,3.87-.5c1-.32,1.86-.74,1.83-1.89s-.95-1.45-1.94-1.75c-3.31-1-6.76-1.1-10.13-2-4.95-1.3-11-7.42-10.82-12.71.15-4.22-3.2-3.72-5.47-3.88-2.54-.18-4.65,1.1-4.65,4.24q0,12.77,0,25.53c0,5.87-1,6.8-6.92,6.81-9,0-9,0-8.9-8.76.06-3.61-.51-7.14-.71-10.72a1.12,1.12,0,0,0,.46-1.51.63.63,0,0,0-.55-.27c-.89.34-.54,1.15-.63,1.8l-2.15.81h-7.49c1,1.17,1.84,2,3.09,2.09a26.36,26.36,0,0,0,2.59,1.89c3.58,2,4.18,5,1.54,8.06-7.25,8.38-20.36,10.08-30,4.32-3.79-2.27-5.95-5.46-8-9.71v6.52c0,4.7-.73,5.85-5.48,6a22.39,22.39,0,0,1-10.82-1.92c-6.27-3.15-9.18-8.56-9.54-15.31-.29-5.5-.13-11-.05-16.55,0-1.95-.55-2.72-2.63-2.81-8.14-.38-8.14-.45-8.14,7.7,0,2.52-.14,5,0,7.55.23,3.17,1.58,5.38,5.2,5.69,3.79.33,4.85,1.69,4.85,5.62,0,10.19,1.14,10.14-10.21,9.29-8.51-.64-14.42-5.77-15-15.67-.33-5.5-.23-11,0-16.55.11-2.85-.77-4-3.62-3.59-1.8.24-1.4,1.65-1.4,2.76,0,9.17,0,18.34.07,27.5-.18,1.12.14,2.32-1.44,2.93-9.73,3.7-19.52,5.34-29.7,1.76-4.2-1.48-6.85-4.58-9.16-8.46-1.39,1.73-.75,3.34-.89,4.8-.38,4-1.68,5.35-5.66,5.36-12.19,0-10,.86-10.16-9.7-.08-6.47,0-13,0-19.43a14.92,14.92,0,0,0-1.16-5.57c-1-2.71-3.21-3.12-5.59-2.63a4.06,4.06,0,0,0-3.41,4.4q0,12.77,0,25.54c0,6.24-1.14,7.48-7.27,7.35-2.74-.06-5.66,1.48-8.5-1.37,0,7.24-.12,13.81,0,20.37.08,3.09-.92,4.34-4.12,4.2-4.55-.21-9.11-.05-13.67-.06-2.3,0-4.07-.56-3.86-3.43.09-1.29,0-1.87-1.9-2-7.9-.73-15.8-.05-23.69-.36-3.23-.13-2.57,2.11-2.57,3.91q0,41.91,0,83.82c0,5.24,0,5.24,5.38,5.24,6.48,0,12.95,0,19.43,0,2,0,3.41-.08,3.51-2.73.11-3,1.89-4.22,5.06-4,4.3.28,8.63.12,12.95.05,2.13,0,3.51.63,3.55,3l-.09,53.72c-2-.07-1.37-1.68-1.35-2.68.27-15-.67-30,.56-45,.17-2.11-.41-4.28-.65-6.41-.21-1.88-1.61-1.77-3-1.76-4,0-7.93.19-11.88-.07-3-.2-3.92,1.09-3.68,3.73.26,2.92-.84,3.89-3.9,3.82-9-.21-18-.15-27,0-2.41.05-2.78-.87-2.78-2.92q.06-45.9,0-91.79c0-2.41.81-3.08,3.13-3.05,9.24.1,18.48.12,27.72,0,2.38,0,3.38.63,3,3-.6,3.48.85,4.63,4.32,4.36,3.82-.3,7.68-.12,11.51,0,1.83,0,2.57-.64,2.56-2.52q-.09-12.24,0-24.48c0-2.12-.76-2.92-2.84-2.17l-.83-.43c.38-1.13.76-2.26,1.15-3.38,2.62-7.42.65-13.08-4.59-16.3-3.64-2.24-7.68-2.31-11.59-3.19-2-.45-4-.92-5-3-.68-1.4-1.28-3.06,0-4.37a7.83,7.83,0,0,1,6.73-2.52c2.66.35,5.35,1.43,7.82-.59,2,.75,2.73,3.21,4.86,3.85a.56.56,0,0,1,0,.61c-.61,1.52-1.65,2-3.13,1.23-3-1.62-6.47-1.59-9.72-2.32-1.71-.39-3.74-.17-4.19,1.79-.55,2.4,1.91,2,3.17,2.32,7.19,1.61,14.68,2.53,19.11,10a43.35,43.35,0,0,0,.43-6.94c0-.93-.14-2.11,1.31-2,1.2,0,1.54,1,1.57,2,0,.84,0,1.68,0,2.52,0,7.2,0,14.4,0,21.59,0,1-.44,2.65.79,2.85a17.89,17.89,0,0,0,6.76.06c2-.46,1-2.65,1.06-4.07.39-9.2-.67-18.44.66-27.62a34.78,34.78,0,0,0,8-6.76c.14.81.65,1.06,1.44,1.3,6.09,1.91,7.18,3.44,7.19,9.72,0,8,.12,16.06-.06,24.08-.08,3.32,1.59,3.83,4.23,3.6,2.33-.2,5.27.94,5.2-3.34-.15-9.1-.08-18.21,0-27.32,0-6.15-5.12-13.78-11.07-14.44-1.4-.16-2.31-1.18-3.48-1.75a2.15,2.15,0,0,1,.26-2.17l1.37-.07C125.41,195.63,126.28,195.45,127.1,195.44Zm111.6,26.23c0-1.55,0-3.1,0-4.65-.18-7.24,1.57-6.22-6.85-6.36-1.83,0-2.57.61-2.54,2.49.08,4.41-.05,8.83,0,13.25.09,3.95,2.75,6.1,7.82,5.58,3-.31,1.18-3.23,1.46-4.94A31,31,0,0,0,238.7,221.67ZM267,228c-3.14-.19-6.06.49-9,0-1-.16-2.69-.69-3.13.8s.95,2.48,2.12,3.35c1.4,1.05,2.89.79,4.44.58C264.05,232.39,265.24,230.25,267,228Z" style="fill:#282828"/><path d="M325.12,210.66c-1.26-2.55-3.73-1.89-5.12-1s-.12,2.93.73,4c2.25,3,5.85,3,9.1,3.39,11.95,1.46,16.4,11.62,10.86,20.61-2.79,4.54-7.56,6.15-12.47,6.67a41.37,41.37,0,0,1-16.66-1.59c-2.65-.82-3.86-2.44-2.76-4.68.91-1.84,1-5.27,5-4.06,4.2,1.27,8.53,2.36,13,1.77a8,8,0,0,0,2.77-.52c2-1.09,4.1-2.3,4.07-5,0-2.85-2.57-3.65-4.53-4.48-3.39-1.44-7.23-.85-10.78-2.18-4.71-1.77-8.47-5.72-8.33-10.37.09-2.89-.32-4.73-3.8-4.11a1.56,1.56,0,0,1-2-1.45c4.06-.09,8.12-.25,12.18-.26,11.12,0,22.24.06,33.35.05,7.87,0,15.75-.1,23.62-.15a6.73,6.73,0,0,0,3.56-.11l10.06.34c1,1.22,2,1.23,3,0,1.27,0,3-.89,2.87,1.59l-28.44,0c-1.72,0-3.4-.25-3.32,2.43.14,4.8-.29,9.63.13,14.39.48,5.42,2,8.37,7.59,8.45,1.63,0,2.58.9,2.35,2.47-.32,2.23,1.43,5.19-1.33,6.57-5.8,2.89-16.48-3.78-17.39-10.39-.94-6.81-.45-13.63-.7-20.44,0-1.1,1.6-3-.47-3.24s-4.55-1.66-6,1.23l-3.41,0a1.67,1.67,0,0,0-1.73-1.49c-3.11,0-6.23,0-9.34.06-.87,0-1.24.59-1.35,1.38Z" style="fill:#0f0f0f"/><path d="M180.33,32.75c-.38-2.43,2.74-2.89,2.86-5v0c1.15-.07,2.89.14,2.48-1.56-.29-1.2-1.6-.1-2.44.15-.15-2.25,1.4-3.22,3-4.31,2.52-1.7,5.71-2.62,7.06-5.76l.13-.21.24,0c1.13.39,2-.09,3-.64a117,117,0,0,1,22.47-9.64c2.1-.63,5.22.15,6.6-2.62a2.5,2.5,0,0,1,2.2-.34c1.92.71,3.76,1.08,5-1.16l1.65-.09a30,30,0,0,0,9.6.11c3.56-.44,7.08-1,10.62-.32a35.79,35.79,0,0,0,11,.2l1.64.13a2.74,2.74,0,0,0,2.34,1.46c4,.11,7.45,1.9,11.16,2.79a87.8,87.8,0,0,1,22.5,9.29c1.08.6,2,1.25,3.31.8H307l.1.21c.3,1.93,1.94,2.58,3.37,3.28,3.44,1.67,5.65,5.32,9.7,6l0,0c-.07,1.09.41,1.59,1.52,1.42l0,0a40.51,40.51,0,0,0,11.55,11.56l0,0c-.14,1.11.35,1.6,1.46,1.48l0,0c1.8,5.18,5.85,8.81,9,13.06h.35l.16.27c-.43,1,.1,1.82.47,2.68-3,.78-3.11,2.09-1.31,4.56a7.86,7.86,0,0,1,.93,8.25c-3.86-7.24-7.48-14.6-12-21.46.37-.23.79-.49.48-1s-.92-.4-1.44-.31a7.29,7.29,0,0,1-2.65-3.42c.25-1.18-.2-1.78-1.43-1.73a4.84,4.84,0,0,1-2-2.25c.2-1.53-.42-2.31-2-2.2A17,17,0,0,1,318.62,32c.13-1.7-.69-2.33-2.31-2.05a28.16,28.16,0,0,1-6.41-5c-.07-1.37-.78-1.65-1.95-1.15l-8.15-5.29c-.1-1.4-.78-1.72-2-1.06l-.86-.4c-.11-1.42-.81-1.7-2-1.05l-14.53-5.53c-.17-1-.35-2-1.48-.6-1.46-.21-3-.18-4.23-1.16-.26-1.12-.7-1.47-1.5-.37-1.73,0-3.49.2-5-1-.21-1.11-.6-1.62-1.49-.45a13.36,13.36,0,0,1-5.69-.44c-.8-1.66-1.82-1.45-2.94-.34l-14.36,0c-1.13-1.14-2.14-1.32-2.94.34a12.88,12.88,0,0,1-5.69.42c-.92-1.18-1.3-.64-1.5.47-1.5,1.13-3.27.91-5,1-.87-1.17-1.27-.69-1.5.42-3.88,1.16-7.59,2.9-11.65,3.43-1.11-.5-1.83-.26-2,1l-13.87,6.82c-1.15-.43-1.84-.1-2,1.18a2.94,2.94,0,0,1-2.16,1.41c-1.53-1.22-1.32,0-1.33,1L182.3,33.05C181.64,33,181,32.86,180.33,32.75ZM341.18,56.34c-.09-3.67-4.42-10-7.3-11.05ZM238.76,3.6c-1.35-.06-2.79-1-4.66,1.05C236.18,4.52,237.6,5.25,238.76,3.6Zm27.16-.19c-.71-.06-1.17.28-1.16,1s.56,1,1.21,1,1.27-.14,1.19-.89A1.27,1.27,0,0,0,265.92,3.41Zm-41.4,3.82a1,1,0,0,0-1-1c-.28,0-.83.22-.82.34,0,.56.48.8,1,.85A2.47,2.47,0,0,0,224.52,7.23Zm54.36-.31c-.36-.28-.58-.59-.81-.61s-.77.14-.83.34c-.17.54.24.82.73.79C278.22,7.44,278.47,7.17,278.88,6.92ZM259.27,3.64c1.1.42,1.84.51,2.59,0A2.5,2.5,0,0,0,259.27,3.64Z" style="fill:#0f0f0f"/><path d="M344.18,68.7a7.85,7.85,0,0,0-.93-8.25c-1.8-2.47-1.73-3.78,1.31-4.56.83.51.63,1.34.65,2.11-.61.08-1.33.24-1.08,1,.47,1.47,1.63.3,2.45.49C346.41,61,348,61.67,348.09,63c-.78.13-1.54.46-1.19,1.36,1.82,4.64,4.22,9.06,5.12,14,.17.92,1.13,1.14,2,1.17a1.3,1.3,0,0,0,.6,1.44q0,.36,0,.72a1.46,1.46,0,0,0-.74,1.45c-1.3,2.67,1.08,4.61,1.47,6.94.06.38,1,0,1.42-.47l1.11.08.75.7c.07.47.15.94.22,1.41-.16.46-.32.91-.47,1.37-3-.28-2.56,2.36-2.85,3.9-.33,1.72,1.3,1.92,2.68,1.9h0c-.65,6.12-2.37,12.18-.78,18.41a4.51,4.51,0,0,1-.72,3.37,6.58,6.58,0,0,0,1.44,8.22c.08.59.15,1.18.23,1.77a.51.51,0,0,1-.4-.19c-1,.18-1.51.57-.59,1.51a5.91,5.91,0,0,1-.63,3.62c-2.45,1.49-1.37,4.06-1.89,6.14-.13.82-.26,1.65-.38,2.47-1.12.22-1.47.84-1,1.9l.18,1.9h-.18l-.18,0c-4.69.51-5,1.14-2.43,4.91,0,.7,0,1.41,0,2.11a.3.3,0,0,0-.17.4c-1.3.38-1.32,1.41-1.25,2.48a.8.8,0,0,1-.52.11c-3,.57-3.57,2.37-2.55,5-1.08,1.21-1,3.34-3,3.81l-.69.14.33.4-.73,2.13c-.2,0-.4-.07-.61-.09-.28-1.16-.83-1.4-1.62-.41-1.16,1.46-2.17,3.07-3.46,4.41-2,2.09-1.05,2.66,1.21,2.78.09.8-.65.93-1.06,1.34-1.14.26-2.25-.78-3.51.65-4.34,4.93-8.4,10.18-13.84,14a3.73,3.73,0,0,0-1.4,4.15.47.47,0,0,1-.32.46,11.51,11.51,0,0,0-5.14,1c-1.06.39-1.87.68-2.76-.46-1.76-2.27-4.38-3.78-5.69-6.46l1-.41c3.89,2.06,7.72-.76,7.54-5.54a1.54,1.54,0,0,1,1.48-1c.76,1.68,2.05,1.7,3.16.63,4.12-3.95,8.19-8,12.14-12.08a2.47,2.47,0,0,0-.13-3.79c.23-1.27,1.27-1.94,2.08-2.78.47,1.32,1.4,1.66,2.36.7s.81-2.32-.33-3.33l.66-1.27c.55,1.34,1.42,2.25,2.53.7,2.8-3.9,5.47-7.9,6.5-12.71l.27-.2a5,5,0,0,0-.27-.51c0-1.93,3.66-3.21,1-5.6.09-.33.19-.66.28-1,.89,0,1,2.24,2.35.83,1.73-1.14.88-3.4,1.93-4.7,2-2.43.43-3.24-1.53-4a2.35,2.35,0,0,1,.88-2.08c1.67.13,2.47-.18,3.25-2.18,1.18-3,1.17-6.23,2.4-9.23,1.46-3.58.23-5.53-2.74-5.84,0-.48.07-1,.11-1.46a1.47,1.47,0,0,0,1.46-1.67,153.72,153.72,0,0,1,1.17-18c.59-4.75-1-9.87-3.2-14.83-1.12,1-.69,2.67-2,3.06a3,3,0,0,1-.33-2.34c3.33-3.61-.2-7-.48-10.41-.22-2.66-1.62-2.74-3.38-1Zm10.4,69.58-.32-.53c-.1.18-.27.37-.26.55s.18.36.29.53Z" style="fill:#010101"/><path d="M489.92,393.66c1.31.59,2.85,1.08,3.36,2.52.79,2.22,2.06,2.37,4.17,1.93,2.68-.56,1.85-2.45,1.85-3.92q.06-63.84,0-127.67V184.16c0-5.62-.07-5.69-5.62-4.74-.64.11-1.15.22-1.58-.35,0-1.17.1-2.32,1.41-2.86l8.66-.08q0,112.88,0,225.76a31.82,31.82,0,0,1-10,.08,6.89,6.89,0,0,0-2.53-6.59C488.53,394.42,489.09,394.11,489.92,393.66Z" style="fill:#0f0f0f"/><path d="M19.44,100.73a5.22,5.22,0,0,1-.75,5.12A35.74,35.74,0,0,1,14,112l-.24-1.59-.27.19A1,1,0,0,0,14,112c.24,3.87-3,6.4-3.87,9.89-.6,2.29-2.41,4.27-2.69,6.8-.06.51-.33,1.08-.82.77s-.51-1-1-1.52c.28,1.72-2.55,3.46.26,5.16-2.86,2.25,1.54,6.86-2.8,8.64-.76.31-.52.93-.36,1.51,2,7.47,1.41,15,.31,22.49-.06.44-.32,1.16-.16,1.27,3.27,2.31,1.51,5.34,1.14,8.1-.27,2,.14,3.88,1.67,4.82,2,1.2,2.57,3,3.31,4.84,3.53,9.06,8.09,17.56,15.06,24.46,6.68,6.61,12.84,14,22.14,17.25a3.91,3.91,0,0,1,2.27,2.19,2.49,2.49,0,0,0,2,2.87c1.39.46,3,.73,3.83,2.3-7.17-1.92-13.34-5.9-19.12-10.22C19.33,211.73,8.07,196.41,3,177q-9.37-36.11,10.2-68C15,106.08,16.81,103.08,19.44,100.73Z" style="fill:#282828"/><path d="M183.23,406.52c1.75.8,2.2,2.2,2.26,4.06.08,2.43-.71,4.95.56,7.3H293.52c.32-.11,1.23.45.68-.61l-.09-1.41c.17-8.69.17-8.68,8.86-8.68l86.9-.09,2.67-.1.33.31c-1.49,1.44-3.35.73-5,.73-29.28,0-58.56.09-87.83-.05-3.43,0-4.6.83-4.46,4.37.27,6.51.07,6.52-6.58,6.52-33.48,0-67-.05-100.43.07-3.41,0-4.56-.83-4.45-4.38.23-7.8.72-6.6-6.7-6.62-24-.05-48,0-72,0-1.43,0-2.86-.16-4.29-.25.65-1.83,2.22-1.12,3.38-1.08,6.42.23,12.81-.4,19.25-.13,14.11.6,28.2-.9,42.33-.69C171.81,405.85,177.5,406.66,183.23,406.52Z" style="fill:#282828"/><path d="M183.23,406.52c-5.74.14-11.43-.67-17.17-.76-14.13-.22-28.22,1.28-42.33.69-6.44-.27-12.83.36-19.25.13-1.16,0-2.74-.74-3.38,1.08a1.22,1.22,0,0,1-1.38,0l.09-53.72c2.67-.32,2.79,1.32,2.79,3.35,0,14.15.07,28.3-.1,42.44,0,3.18.84,4,4,4,24.94-.13,49.88,0,74.82-.12C184,403.58,184.87,404.07,183.23,406.52Z" style="fill:#0f0f0f"/><path d="M489.92,393.66c-.84.45-1.39.77-.27,1.71a6.84,6.84,0,0,1,2.53,6.59,6.57,6.57,0,0,1-.95-.22c.35-4.35-3-6.21-5.74-8.37q-36.48-28.51-73-57a9.42,9.42,0,0,1-1.18-1.33c.14-2.88.8-3.24,3.11-1.12,3.05,2.8,6.68,5,8.43,9,.12.28.58.69.75.63,4.24-1.37,5.85,2.7,8.41,4.38,5.32,3.5,10.17,7.73,15.11,11.8,7.64,6.31,15.75,12,23.36,18.37C476.87,383.42,483.8,388,489.92,393.66Z" style="fill:#282828"/><path d="M502.17,401.88q0-112.87,0-225.76c2.19-.06,1.18,1.61,1.19,2.47.07,7.43,0,14.87,0,22.3q0,98.55-.05,197.11C503.37,399.28,504.58,401.24,502.17,401.88Z" style="fill:#282828"/><path d="M95.46,70c.14,2.17-.57,3.24-3,3.15-4.9-.18-9.83.11-14.73-.11-3.21-.15-6.22-2.36-9.6-1,.48.9,1.88-.11,2.48,1.21-2.48,1.66-5-1.46-7.45.3.37.88,2-.26,2.48,1.76-3.48-1.72-6,2.21-9.35.71h-.34c-2.58,5.63-11.29.51-13.15,7.46a1.49,1.49,0,0,1-1.09.85c-2.25.13-3.37,2.32-4.74,3-4.07,1.91-5.69,6-9.12,8.3a10.26,10.26,0,0,0-2.25,2.26c-1.52,1.89-3.32,3.08-5.87,2.61C27.78,89.93,38.14,82.21,50.06,76.6c14.11-6.63,29.1-8.22,44.49-7.07C94.85,69.54,95.15,69.81,95.46,70Zm-16.63.54v.32H92.49V70.5Z" style="fill:#282828"/><path d="M193.32,16.25c-1.36,3.13-4.55,4.06-7.06,5.76-1.61,1.09-3.16,2.06-3,4.31,0,.47,0,.94-.05,1.41v0A19.52,19.52,0,0,0,175.85,33c-5.78,6.38-11.93,12.47-16,20.2a8.35,8.35,0,0,1-2.94,3.05c-1,.63-1.8.89-1.28,2.34a2.16,2.16,0,0,1-.57,2c-4.35,2.36-2.11,7.3-4.22,10.51a8.24,8.24,0,0,0-.54,1.7c-.23.64-.21,1.64-1.11,1.63-1.58,0-.52-1.18-.64-1.84-.2-1.06-1.13-.58-1.74-.77a111.72,111.72,0,0,1,18.39-31.39A107.54,107.54,0,0,1,193.32,16.25Z" style="fill:#282828"/><path d="M145.56,76.66c2,.21,3.75.22,2.06,3.16-1.09,1.9-.26,4.49-1.37,6.56-.32.59-.46,1.62-1.32,1.36-.45-.13-.65-1.08-1-1.73-.54,4.56-3.66,6-7.35,3.33-2.14-1.54-5.6-2-5.3-5.82,0-.22-.72-.83-1.12-.38-2.14,2.41-2.24.41-2.87-1.15-.51-1.27-2.07-2.73-3.06-2.13-3,1.83-5.09-.82-7.6-1.13-1.72-.21-3-1.76-4.63-2.45s-1.43-1.07-4-1.09a15.51,15.51,0,0,1-11.23-5.14c9.95.47,19,3.87,27.79,8.31A80.45,80.45,0,0,1,139,87.59c2.26,1.83,3.18,1.12,3.71-1.48C143.34,82.88,143.73,79.54,145.56,76.66Z" style="fill:#282828"/><path d="M393.41,367.64a13.18,13.18,0,0,1-.74-1.83q-.07,20.58-.13,41.16l.33.31c1.12-1.11.54-2.51.54-3.75Q393.44,385.59,393.41,367.64Z" style="fill:#282828"/><path d="M390,326.64c-.23-1.21.31-2.6-.82-3.6h-.61c0,.78,0,1.56-.05,2.34a3.06,3.06,0,0,1,.14,1.41c-.41,4,1.78,4,4.64,3C391.93,329,389.48,329.39,390,326.64Z" style="fill:#282828"/><path d="M493.55,176.21c-1.31.54-1.39,1.69-1.41,2.86-.91,3.22-2.23,6.09-5.66,7.48-.84.34-1.42,1.19-2.53.7-.9-.39-1.83-.15-1.84.94,0,2.64-2.11,3.57-3.74,4.83L466,202.58c-3,2.34-6.35,5.11-10.7,5.23,2.24-2.68,5.18-4.49,8-6.47.64.61.59-.05.7-.39,7.3-6.65,15.3-12.43,23-18.55,1.88-1.49,3.78-2.83,4.22-5.45C491.49,175.49,492.45,175.4,493.55,176.21Z" style="fill:#282828"/><path d="M358.18,129a6.58,6.58,0,0,1-1.44-8.22,4.48,4.48,0,0,0,.72-3.37c-1.59-6.23.14-12.3.78-18.41l1.58.8c.82,2.09.07,4.31.51,6.44a43.37,43.37,0,0,0,0,10.74c-.38,1.19.17,2.53-.62,3.65-1.52.22-1.93.88-.83,2.12,0,1.69.07,3.39.1,5.08l-.18,1.39A.92.92,0,0,0,358.18,129Z" style="fill:#0f0f0f"/><path d="M322.06,193.94l-4,2.52a3.75,3.75,0,0,1,1.4-4.15c5.44-3.87,9.5-9.11,13.84-14,1.26-1.43,2.37-.39,3.51-.65.3.94-.62,1.37-.87,2.08a5.93,5.93,0,0,0-3,3.55l-3,3.41a5.49,5.49,0,0,0-2.86,2.94l.15.16-.17-.14a1.66,1.66,0,0,0-1.55,1.38l-1.92,1.6a1.55,1.55,0,0,0-1.55,1.35Z" style="fill:#282828"/><path d="M430.93,227.33c1.42,2-.05,3.12-1.34,4.09-2.46,1.83-4.71,4.55-7.32,5.39-3,1-3.26,4.81-6.47,4.87-1.21-1.58-2.37.29-3.56.06,4.05-4.14,9-7.19,13.39-10.93.81-.69,1.6-1.39,2.39-2.09C429.31,228.93,429.75,227.36,430.93,227.33Z" style="fill:#282828"/><path d="M306.77,16c-1.28.45-2.23-.2-3.31-.8A87.8,87.8,0,0,0,281,6c-3.72-.88-7.21-2.68-11.16-2.79a2.74,2.74,0,0,1-2.34-1.46c10,1,19.26,4.34,28.33,8.38C299.59,11.79,303.49,13.36,306.77,16Z" style="fill:#282828"/><path d="M225.78,3.17c-1.38,2.77-4.5,2-6.6,2.62a117,117,0,0,0-22.47,9.64c-1,.54-1.88,1-3,.64A94.39,94.39,0,0,1,225.78,3.17Z" style="fill:#282828"/><path d="M265.81,1.57a35.18,35.18,0,0,1-11-.2c-3.54-.64-7.06-.12-10.62.32a29.75,29.75,0,0,1-9.6-.11A78.23,78.23,0,0,1,265.81,1.57Z" style="fill:#282828"/><path d="M435.11,224.58c1-3.43,4.77-4.07,6.72-6.56.79-.27,1.05-1.41,2.09-1.27-1.52,2.57.7,5.14,0,7.71a27.74,27.74,0,0,1-8.71,1.52C435.2,225.51,435.16,225.05,435.11,224.58Z" style="fill:#282828"/><path d="M354,79.6c-.89,0-1.86-.25-2-1.17-.9-5-3.3-9.41-5.12-14.05-.35-.9.41-1.23,1.19-1.36,2.11,1.39,1.32,4.66,3.78,5.83l.6.67c-.22.71-.12,1.27.73,1.43.18.52.36,1,.55,1.55-.34,2.14,1.56,3.84,1.16,6C354.61,78.87,354.32,79.23,354,79.6Z" style="fill:#0f0f0f"/><path d="M444,224.46c.68-2.57-1.55-5.13,0-7.71l1.29-1a1.85,1.85,0,0,0,2.33-1.71l1.33-1.14a1.19,1.19,0,0,0,1.52-1.29l1.24-.93c1.61.46,2.37-1.54,3.89-1.35.34,2.21-1.51,2.78-2.75,3.94-3.19,3-8.22,4.74-7.71,10.51C445.08,224,444.34,224.23,444,224.46Z" style="fill:#0f0f0f"/><path d="M61.5,235.58l-2.16.39-2.82-1c-.29-.76-.86-.73-1.49-.52l-.66-.61c-.78-1.57-2.44-1.85-3.83-2.3a2.49,2.49,0,0,1-2-2.87c2.58-.21,4.63,1.37,6.87,2.21a14.5,14.5,0,0,0,6.15,1.36C61.52,233.37,61.51,234.48,61.5,235.58Z" style="fill:#0f0f0f"/><path d="M412.24,241.73c1.19.23,2.35-1.64,3.56-.06,0,1.08,0,2.28-1.2,2.68-3.54,1.16-5.91,4.42-9.6,5.29h0l-1.49-1.47,1-1.23a.41.41,0,0,0,.5-.15c.94.39,1.25-.72,2-.83,1.26.14,2.37.09,2.19-1.66A8.42,8.42,0,0,1,412.24,241.73Z" style="fill:#0f0f0f"/><path d="M333.18,38.43a40.38,40.38,0,0,1-11.55-11.56A47.85,47.85,0,0,1,333.18,38.43Z" style="fill:#282828"/><path d="M351.86,68.85c-2.45-1.17-1.67-4.44-3.78-5.83-.09-1.36-1.68-2.06-1.51-3.53A1.94,1.94,0,0,0,345.2,58c0-.76.18-1.6-.65-2.11-.37-.85-.9-1.68-.47-2.68A53.92,53.92,0,0,1,351.86,68.85Z" style="fill:#282828"/><path d="M337.84,176.26c-2.25-.12-3.22-.68-1.21-2.78,1.29-1.34,2.29-2.95,3.46-4.41.79-1,1.34-.75,1.62.41-.59.49-1,1-.07,1.55A11.76,11.76,0,0,1,337.84,176.26Z" style="fill:#0f0f0f"/><path d="M320.18,25.51c-4.05-.66-6.25-4.32-9.7-6-1.44-.7-3.07-1.35-3.37-3.28A57.31,57.31,0,0,1,320.18,25.51Z" style="fill:#282828"/><path d="M343.92,52.94h-.35c-3.15-4.25-7.2-7.88-9-13.06A51.92,51.92,0,0,1,343.92,52.94Z" style="fill:#282828"/><path d="M405.7,329.6c2.13,1.25,5.05,1.73,5,5.11-3.31-2.46-6.71-4.71-11-4.91C401.69,329.19,403.7,329.57,405.7,329.6Z" style="fill:#282828"/><path d="M393.31,329.82c-1.37-.78-3.82-.44-3.3-3.18,1.15.13,2.13,1,3.46.47s2.54.1,2.9,1.71l-.79.9A2.69,2.69,0,0,1,393.31,329.82Z" style="fill:#0f0f0f"/><path d="M405.7,329.6c-2,0-4-.41-6,.2l.06-.08c.83-.59-2.06-2.48.69-2.25C402.34,327.62,405.71,324.69,405.7,329.6Z" style="fill:#0f0f0f"/><path d="M350.91,153c-2.57-3.77-2.26-4.4,2.43-4.91l-.06,1.34c-1,.39-1,1.2-.9,2.09l-.38,1Z" style="fill:#282828"/><path d="M347.4,162.37l-1,.74c-1-2.62-.44-4.42,2.55-5-.22.8-.43,1.61-.65,2.41-.62.45-1.16,1-.9,1.83Z" style="fill:#282828"/><path d="M233,1.68c-1.23,2.24-3.07,1.87-5,1.16C229.59,2.22,231.13,1.3,233,1.68Z" style="fill:#282828"/><path d="M455.51,209.32c-1.52-.19-2.28,1.81-3.89,1.35a9.14,9.14,0,0,1,3.71-2.89C455.4,208.29,455.46,208.8,455.51,209.32Z" style="fill:#282828"/><path d="M435.11,224.58c0,.46.09.93.13,1.4-.06.9-.38,1.84-1.37,1.72s-.71-1.29-.86-2a.8.8,0,0,1,.73-.86C434.21,224.73,434.66,224.66,435.11,224.58Z" style="fill:#0f0f0f"/><path d="M358.8,96.22l.83,0,.33,2a1.5,1.5,0,0,0,.3,1.68l-.25.15-.19-.21-1.58-.8h0C358.36,98.08,357.83,97,358.8,96.22Z" style="fill:#282828"/><path d="M447.54,214a1.85,1.85,0,0,1-2.33,1.71A2.83,2.83,0,0,1,447.54,214Z" style="fill:#282828"/><path d="M359.73,122.81l-.85,0c-1.11-1.25-.7-1.9.83-2.12C359.71,121.37,359.72,122.09,359.73,122.81Z" style="fill:#282828"/><path d="M407,246a1.71,1.71,0,0,0,.1-.67l2.09-1C409.36,246,408.25,246.09,407,246Z" style="fill:#282828"/><path d="M395.58,329.72l.79-.9,1.13.88A1.69,1.69,0,0,1,395.58,329.72Z" style="fill:#282828"/><path d="M334.61,39.89c-1.11.11-1.6-.38-1.46-1.48A1.74,1.74,0,0,1,334.61,39.89Z" style="fill:#282828"/><path d="M358.2,132.16l-.79,0c-.92-.94-.44-1.34.59-1.51C358.07,131.13,358.14,131.65,358.2,132.16Z" style="fill:#282828"/><path d="M342.32,169.58l.31.81-1,.65c-.9-.55-.52-1,.07-1.55Z" style="fill:#282828"/><path d="M146.47,73.77a.9.9,0,0,1,0,1.24C145.31,74.56,146.62,74.18,146.47,73.77Z" style="fill:#282828"/><path d="M450.39,211.6c0,1-.56,1.39-1.52,1.29C449.17,212.21,449.55,211.64,450.39,211.6Z" style="fill:#282828"/><path d="M321.66,26.91c-1.1.16-1.58-.34-1.52-1.42A2,2,0,0,1,321.66,26.91Z" style="fill:#282828"/><path d="M464,200.94c-.12.34-.06,1-.7.39Z" style="fill:#010101"/><path d="M393,231.51q-.08-11.14-.13-22.29l-28.44,0c-1.72,0-3.4-.25-3.32,2.43.14,4.8-.29,9.63.13,14.39.48,5.42,2,8.37,7.59,8.45,1.63,0,2.58.9,2.35,2.47-.32,2.23,1.43,5.19-1.33,6.57-5.8,2.89-16.48-3.78-17.39-10.39-.94-6.81-.45-13.63-.7-20.44,0-1.1,1.6-3-.47-3.24s-4.55-1.66-6,1.23c2.91-.33,3.72,1.11,3.63,3.83-.16,4.79-.09,9.59,0,14.38a18.9,18.9,0,0,0,2.41,9.62c4.65,7.8,12.6,8.95,20.31,8.05a3.67,3.67,0,0,0,3.16-3.83c.06-1.92.11-3.84,0-5.75-.19-3.21-2-5-5.17-5.42-3.8-.52-5.43-2.31-5.52-6.09-.06-2.76,0-5.51,0-8.27,0-6.86,0-6.79,7-6.52,2.11.08,3.1.79,3,3s0,4.55,0,6.83c.05,3.34,1.63,5.17,4.94,5.22,3.63.06,7.39.75,10.56-1.59,1.7,4.57-1.05,8.53-1,12.76,0,8.67,2.47,17.19,1.47,25.92-.12,1.06.09,2.17,0,3.23a2.81,2.81,0,0,0,.6,2.52C390.37,256.11,390.82,243.73,393,231.51Zm-8-9.4c-.24,0-.48,0-.71,0-6.26.76-6.58.47-6.59-5.92v-.72c0-4.41,3.56-6.61,7.63-4.76a1.43,1.43,0,0,1,1,1.33c0,2.87,0,5.73,0,8.6A1.34,1.34,0,0,1,385,222.11Z" style="fill:#282828"/><path d="M294.11,415.85l.09,1.41-.68.61H286.8c-.89-.9-2-.55-3.06-.55q-28.85,0-57.7,0c-1,0-2.17-.35-3.06.55h-4.59c-1-1-2.26-.54-3.4-.55-7.13,0-14.26-.06-21.39,0-1.49,0-3.09-.55-4.47.53h-3.08v-8.19c1.85.34,2.19,1.4,2.12,2.23-.31,3.6,1.66,4.05,4.64,4,8.85-.14,17.74.39,26.56-.14,22-1.31,44-.23,66-.58C288.27,415.15,291.19,415.62,294.11,415.85Z" style="fill:#0f0f0f"/><path d="M391.92,362.55a102.58,102.58,0,0,1-.82-11c-1.41,1-1.17,2.66-1.17,4.22q-.06,25.67-.07,51.32l2.67-.1q.06-20.58.13-41.16A18.2,18.2,0,0,1,391.92,362.55Z" style="fill:#0f0f0f"/><path d="M182.63,240.93q0-13.76-.07-27.5c0-1.11-.4-2.52,1.4-2.76,0,9,0,18,0,27C183.93,238.86,184.53,240.44,182.63,240.93Z" style="fill:#0f0f0f"/><path d="M405,249.63c-3.34,0-6.68,0-10,0-1.1,0-2.5.49-2.92-1.23-.78-.25-1.61-.73-2.18.14v.42c1.33,1,0,2.94,1.63,4.12.66-2,2.23-2.08,3.94-2,2.26.09,4.53,0,6.79,0,1.14,0,2.51.33,2.77-1.43Z" style="fill:#0f0f0f"/><path d="M329.43,210.66c.11-.79.48-1.37,1.35-1.38,3.11,0,6.23-.05,9.34-.06a1.67,1.67,0,0,1,1.73,1.49c-1.2,2.47-3.45,1.06-5.22,1.39-.51-.83-1.35-.72-2.13-.76C332.94,210.13,331.12,210.88,329.43,210.66Z" style="fill:#282828"/><path d="M97.8,272.26h-17c5.63-1.49,11.34-1,17-1.13C97.78,271.51,97.79,271.88,97.8,272.26Z" style="fill:#0f0f0f"/><path d="M97.39,349.46H81v-.36H97.33Z" style="fill:#282828"/><path d="M273.22,230.13c-1.25-.13-2.06-.92-3.09-2.09h7.49C277,230.58,274.2,228.41,273.22,230.13Z" style="fill:#0f0f0f"/><path d="M324.39,212.82c-.86,0-1.82-.32-1.83-1.23,0-1.2,1.12-.8,1.86-.88Z" style="fill:#0f0f0f"/><path d="M279.76,227.23c.1-.64-.25-1.46.63-1.8a.63.63,0,0,1,.55.27,1.13,1.13,0,0,1-.46,1.51Z" style="fill:#0f0f0f"/><path d="M334.5,211.34c.79,0,1.63-.07,2.13.76C335.41,213.26,334.74,212.91,334.5,211.34Z" style="fill:#0f0f0f"/><path d="M107.47,146.61c1.55,6.64,4.18,12.57,10.75,15.76,1.78.86,3.66,1.5,5.5,2.24.75,2.34.09,3.26-2.39,2.43-6.12-2.06-10.41-6.41-14.11-11.43a4.23,4.23,0,0,1-.82-3.71c.61-2.48-1.76-4.12-1.88-6.76-.22-4.64,2-8.06,4.22-11.29a30.64,30.64,0,0,1,8.85-8.68c2.4-1.48,4.85-2.65,7.61-.65a2.25,2.25,0,0,0,3-.06c3-3.34,5.2.55,7.78.75,1.93.15.88,2.33,1.06,3.63-10.83-4.17-18.69-2.6-25,4.8-2.51,2.93-3.13,6.62-4.54,10l-1.33-1.74a24.12,24.12,0,0,0,.07,4.87C106.54,148.23,107,146.4,107.47,146.61Z" style="fill:#282828"/><path d="M64.16,132.23c0-.66,0-1.32,0-2,.82-.09,1.14-2.87,2.59.06,2.8,5.65.31,14.44-3.63,19.26-5.83,7.13-13.49,10.29-22.24,8.24a21.13,21.13,0,0,1-14-10.38,12,12,0,0,1-1.49-8l.69-.72A57.61,57.61,0,0,0,29,145.55c7.77,13.38,25.61,12.89,33.49-.87a1.53,1.53,0,0,0,1-1.8l.76-2.83c1.48-1.71.47-3.92,1.18-5.78.56-.14,1.19-.23,1.13-1-.07-1-.88-.91-1.54-1Z" style="fill:#282828"/><path d="M61.06,205.31a2.94,2.94,0,0,1,2.63-1.15,10.13,10.13,0,0,1,.41,3.45c-.45,3.5-1.35,7.16,1,10.69,3.26,4.92,7.91,6.56,13.36,6.7a13.33,13.33,0,0,1,6.19,1.55c3.24,1.79,3.56,4.78.92,7.27s-11.1,3-14.61,1.08c-4.49-2.44-5.19-2.29-8,1.74a1.81,1.81,0,0,1-1.45-1c0-1.11,0-2.22,0-3.33h0a2.16,2.16,0,0,0,2.19-2.14c2.52-.17,4.79.94,7.19,1.4.27,2.1,2.33,1.81,3.33,1.81,3,0,6.62,2.08,8.89-1.79h0c.73-.12,1.39-.32,1.25-1.26-.11-.75-.72-.78-1.31-.81-1.52-1.39-3.43-1.34-5.32-1.57C69.38,226.85,62.28,223.4,61,216a54.39,54.39,0,0,1-.35-6.78,4,4,0,0,1,1.16-2.84C63,205.36,61.24,205.76,61.06,205.31Z" style="fill:#282828"/><path d="M77.35,153.76a8.23,8.23,0,0,0,1.28,3.75c2.1,2.9,4.94,2.76,7.65,1.4s3.54-4.25,2.55-7.08a5.46,5.46,0,0,0-6.26-3.72C79.37,148.52,77.34,150.27,77.35,153.76Z" style="fill:#c0bfbf"/><path d="M96.41,130.47c3.67-2.39,7.67-4.18,10.28-8.1a19.09,19.09,0,0,0-9.11-28.51C96.36,93.41,95,93.25,94,92.3c5.32-.94,12.72,2.56,15,7.26.84,1.71,2.8,2.35,3.34,4.48s1.57,4-.12,6a1.89,1.89,0,0,0-.25,1.69c2.84,4.78-.37,8.17-2.66,11.72a26.22,26.22,0,0,1-5,5.59C101.94,131.18,99.3,131.38,96.41,130.47Z" style="fill:#282828"/><path d="M150.92,100.51c0,3.82,0,7.64,0,11.46-1.06,2-1.74,4,.38,5.82,1.11,2,1.09,4.23,1,6.44-.88,1.5-1.75,3,1,3.48a4.24,4.24,0,0,1,.46,3c-1,1-.48,1.34.6,1.46a6,6,0,0,1,.83,3.58c-1.2,1.23-.14,1.29.74,1.44a2.16,2.16,0,0,1,.31,2.2c-3.46,1.11-4.1-1.39-4.56-3.75-1.89-9.74-4.52-19.35-3.81-29.48a136.31,136.31,0,0,0,0-15c-.06-1.42,1-4.18,3.68-4.38l.84.76a11,11,0,0,1-.39,4.26C149.42,94.44,149.65,97.41,150.92,100.51Z" style="fill:#0f0f0f"/><path d="M129.69,164.64c10.28-3,15.35-8.29,16.27-17.44.77-7.71-2.8-13.51-8.6-18.19,1.66-1.16,2.73-1.54,4.31.7s3.75,3.61,5,6.11c.89,1.78,2.72,3.08.72,5.23a1.11,1.11,0,0,0,.7,1.7c.58.14,1.17,0,1.23.9a21.62,21.62,0,0,1-2,10.54,22.36,22.36,0,0,1-6.34,8.27c-2.16,1.62-3.83,4.13-7.1,3.31-.79-.2-1,.39-1.28.9a1.81,1.81,0,0,1-2.55.47C128.89,166.59,129.44,165.54,129.69,164.64Z" style="fill:#282828"/><path d="M38.87,175.94c-4.58,8.35-3.78,16.31,1.75,23.92-1,.42-1.82,1-2.85-.12-3.59-4-5.76-8.77-5.56-14.11.1-2.75,1.63-5.47,2.64-8.16C35.56,175.57,37,175.05,38.87,175.94Zm-3.67,4.72.22-.14,0-.29-.35.19Z" style="fill:#282828"/><path d="M72,117.12c2.26,4,4.44,8,8.62,10.59a20.67,20.67,0,0,0,14,2.94c-.08.78-.38,1.41-1.25,1.47-2.82.2-6.07,1-8.35.37-2.1-.63-4.82-1.18-6.69-2.76a47.6,47.6,0,0,1-5.53-5.56C71,122.08,70.2,119.69,72,117.12Z" style="fill:#282828"/><path d="M64.17,130.23a1.56,1.56,0,0,1-1.2-1.1c-3.64-8.68-10.23-12.67-19.56-11.93-.69,0-1.4,0-2.1,0l.76-1.54c3-.5,6-.17,9.07-.87s6,2.33,8.25,4.76a14.27,14.27,0,0,0,2.93,2.87C65.28,124.26,65.18,127.23,64.17,130.23Z" style="fill:#282828"/><path d="M61.06,205.31c.18.45,1.91.05.78,1.12a4,4,0,0,0-1.16,2.84c-4.75-.23-9.53.39-14.19-1.39-2.09-.79-3.28-2.3-4.64-3.74-.73-.77,0-1.25.78-1.45,1,.9,2,1.68,3.48,1.27l1,.4c.22,1.25,1,1.34,2,.93l.87.1c2.76,2.22,6.43,2.38,8.73.39A2.33,2.33,0,0,1,61.06,205.31Z" style="fill:#0f0f0f"/><path d="M85,190.51q0,3.26,0,6.5c-3.72,1.32-7.81.26-11.52,1.85-1.09.47-1.64-.6-1.91-1.59a4.22,4.22,0,0,1,1.64-3.13c.95,1.51,2.32.56,3.52.62l4.24-.06h1.54c1.31-.86.1-2.67,1.34-3.56Q84.39,190.81,85,190.51Z" style="fill:#282828"/><path d="M164.1,56q-3.81,8.19-7.6,16.39c.1-1.28-4.39-2.57.09-4,1-.31-.85-1.83.16-3.26a34.65,34.65,0,0,0,3.52-7.63C161.05,55.49,162.58,55.88,164.1,56Z" style="fill:#282828"/><path d="M76.68,194.75c-1.2-.05-2.58.9-3.52-.62l.24-1.43c2.58-2.63,2.63-8.73.1-11.62-.09-.48-.19-1-.28-1.44,1-1.39.47-2-1-2.07-.07-.2-.13-.41-.2-.61.67-.18,1.9-.55,1.92-.51.79,2.32,3.49,3.6,3.48,6.34C77.37,186.78,77.63,190.8,76.68,194.75Z" style="fill:#0f0f0f"/><path d="M70.84,175.46c-3.43-4.09-8-6.46-12.87-8.23,2-.26,4-2,5.75-1.23,2.87,1.29,5.07,3.72,7.14,6.15C71.88,173.34,70.91,174.36,70.84,175.46Z" style="fill:#282828"/><path d="M88.55,162.12c3.8-2.87,4.62-6.86,4.22-11.3,1.62-.19,2.4.05,2.82,2.13.73,3.6-.49,6.16-2.71,8.68C91.5,163.19,90.14,163.31,88.55,162.12Z" style="fill:#282828"/><path d="M78.33,97.13a25.7,25.7,0,0,0-6.46,10.46c-1-.06-2.18.33-2.34-1.23-.11-1.08,0-2.09,1.36-2.27l.1.27.19.06-.3-.32C71.3,99.33,74.06,96.75,78.33,97.13Z" style="fill:#282828"/><path d="M164.12,156.21,172,168c-1.81.74-3.06.33-4.06-1.5a44.36,44.36,0,0,0-3.16-4.27C163.46,160.37,161.88,158.49,164.12,156.21Z" style="fill:#282828"/><path d="M47.35,167.58c-2,3.47-5.86,5.11-8.34,8.12-1.33-1.89-1.29-3.5.93-4.69C42.34,169.72,44.09,167,47.35,167.58Z" style="fill:#282828"/><path d="M182.3,33.08l-8.36,9.19c-1.16-5.38,3.23-7.05,6.4-9.52Z" style="fill:#282828"/><path d="M30.77,123.63c-2.29,3-3.1,6.65-4.72,10a.72.72,0,0,1-.65.14c0-.53,0-1.06.05-1.59C24.41,127.45,26.66,123.85,30.77,123.63Z" style="fill:#282828"/><path d="M173.24,42.91a83.57,83.57,0,0,1-6.84,9.64C165.56,48.1,169,43.19,173.24,42.91Z" style="fill:#282828"/><path d="M75.21,159.52A11.82,11.82,0,0,0,84,163.63a2.48,2.48,0,0,1-3.4,2.14c-2.08-.79-4.62-1.4-5.25-4.13A12.36,12.36,0,0,1,75.21,159.52Z" style="fill:#282828"/><path d="M42.07,115.66l-.76,1.54-1.53.23c-2-1.82-3.66,1.38-5.6.36.61-2.21,2.47-2.54,4.32-2.91.28.31.53.83.86.89.6.11.5-.52.59-.91,2.3-1.87,4.82-1.74,7.8-1C46,115.83,43.47,113.89,42.07,115.66Z" style="fill:#0f0f0f"/><path d="M88.11,92.29c-3.31,1.5-6.92,2.4-9.76,4.83-.87-3.22-.14-4.24,3.16-3.94C83.82,93.39,85.63,90.37,88.11,92.29Z" style="fill:#282828"/><path d="M156,74.63c-.72,2.39-.7,5-2.36,7.12a8.69,8.69,0,0,1-1.29-4.65C152.06,74,153.18,73.35,156,74.63Z" style="fill:#282828"/><path d="M83.14,231.54c-2.27,3.87-5.87,1.78-8.89,1.79-1,0-3.07.29-3.33-1.81C75,231.39,79.07,233.25,83.14,231.54Z" style="fill:#0f0f0f"/><path d="M25.45,132.13c0,.53,0,1.06-.05,1.59-.89,1.07-1,2,.42,2.75a2.85,2.85,0,0,1,.26,2.23l-.69.72c-3.26-.28-2.82-2.74-2.63-4.79C22.9,133.27,23,131.31,25.45,132.13Z" style="fill:#0f0f0f"/><path d="M161.27,150.75l.07.29-1.15,2c-2.63-1.25-3-4-4.22-6.26-.43-.8.26-1.59,1.32-1.66,1.25.53.18,3.3,2.6,2.69l.09.31C159.37,149.51,159.17,150.7,161.27,150.75Z" style="fill:#0f0f0f"/><path d="M34.18,117.8c1.94,1,3.6-2.18,5.6-.36l-7.71,4.77C32.45,120.58,32.45,118.78,34.18,117.8Z" style="fill:#282828"/><path d="M85.79,90.44a19.52,19.52,0,0,1,9.81-.09A19.18,19.18,0,0,1,85.79,90.44Z" style="fill:#0f0f0f"/><path d="M50.51,165.34a12.52,12.52,0,0,1,8.37-.06A13.17,13.17,0,0,1,50.51,165.34Z" style="fill:#0f0f0f"/><path d="M71.81,108.36c0,2.2,0,4.41,0,6.61C69.47,113.25,69.47,110.64,71.81,108.36Z" style="fill:#282828"/><path d="M160.19,153.05c.38-.67.76-1.34,1.15-2a9.69,9.69,0,0,1,2.6,4.84C161.82,156.09,160.07,155.81,160.19,153.05Z" style="fill:#282828"/><path d="M156.57,140.09c1.22.76,1.14,2,1.16,3.2-1,.27-2.32,1-2.81-.16S155.37,140.76,156.57,140.09Z" style="fill:#0f0f0f"/><path d="M85,190.51l-1.18.62a13,13,0,0,0-.8-1.47c-.59-.81-1.07-1.86,0-2.3s.61,1.29,1.38,1.61a.89.89,0,0,0,.68.05C85.06,189.51,85,190,85,190.51Z" style="fill:#0f0f0f"/><path d="M166.28,52.73a2.15,2.15,0,0,1-1.06,1.84c-.95-.22-2.35-.09-1.6-1.77S165.37,52,166.28,52.73Z" style="fill:#282828"/><path d="M152.35,87.54l-.84-.76c.14-1.3-.3-3,1.91-2.92A4.18,4.18,0,0,1,152.35,87.54Z" style="fill:#282828"/><path d="M52.89,167.22c-1.4.46-2.65,1.64-4.31.89C49.7,166.28,51.2,166.32,52.89,167.22Z" style="fill:#282828"/><path d="M159.89,147.81c-2.42.61-1.35-2.16-2.6-2.69l.57-1.77C159.2,144.53,159.49,146.2,159.89,147.81Z" style="fill:#282828"/><path d="M124.86,164.74a6.58,6.58,0,0,1,3.68,0C127.31,166.56,126.09,166.48,124.86,164.74Z" style="fill:#282828"/><path d="M82.47,194.68H80.93" style="fill:#0f0f0f"/><path d="M46.11,204c-1.46.4-2.5-.37-3.48-1.27l.33-.83A6.86,6.86,0,0,1,46.11,204Z" style="fill:#282828"/><path d="M63.73,230.12a2.17,2.17,0,0,1-2.19,2.14A2,2,0,0,1,63.73,230.12Z" style="fill:#0f0f0f"/><path d="M127.1,195.44c-.82,0-1.69.19-2.17-.76C126.08,193.71,126.79,194,127.1,195.44Z" style="fill:#0f0f0f"/><path d="M83.09,229.48c.58,0,1.2.06,1.31.81.14.94-.53,1.15-1.25,1.26Z" style="fill:#0f0f0f"/><path d="M41.4,200.49A1.76,1.76,0,0,1,43,201.87C41.84,202.1,41.34,201.62,41.4,200.49Z" style="fill:#282828"/><path d="M39.94,114.87c-.09.39,0,1-.59.91-.33-.06-.57-.58-.86-.89Z" style="fill:#282828"/><path d="M186.68,200.13c4.47-2,3-6.28,3.72-9.7.29-1.44,0-2.93,2.15-2.8,2.17.44,3.19,3.19,5.74,2.87l.79,1.43c.18,1.7,1,2.42,2.72,1.77l.26.19c-1.07,1.14-3.62,1.77-1.51,4.05,1.76,1.9,5.63,1.44,7.37-.82l3.19.71c.32.88.85,1.1,1.64.55l1.19.25A62.55,62.55,0,0,0,238.1,205l.6.51c-3.1,1.73-6.64,1.62-10,2.11-2.36.34-3.05,1.28-3,3.46.08,4.68,0,9.36,0,14,.07,5.48,2,7.89,7.39,9.46,2.33.68,4,4.24,3,7.66-.73,2.67-3.19,1.47-4.89,1.29-4.94-.54-9.71-1.68-12.41-6.47-2.12-3.75-2.28-8-2.38-12.16-.12-4.64-.61-9.33.49-14,.46-2-.39-3.23-2.68-3.21-4.08,0-8.16,0-12.23,0-1.16,0-2.28.17-2.23,1.66.21,6.33-.63,12.67.46,19,.65,3.76,2.9,5.55,6.5,6,3.13.42,3.63,1.84,3.12,7.22-.29,3.08-2.55,2.21-4,2-3.38-.51-7.09-.32-9.88-2.7a15,15,0,0,1-5.54-11.06c-.19-5.87-.14-11.75,0-17.63.06-2.35-.67-3.1-3.06-3.1-7.8,0-7.8-.11-7.8,7.69,0,6.84-.06,13.67,0,20.51,0,2.82-1,4.4-3.84,5.16a49.09,49.09,0,0,1-17.36,1.93c-8.3-.76-14.08-7.24-14.1-15.62,0-8.88,0-17.75,0-26.63,0-2.1.13-4.2,2.92-3.7,2.08.37,5.8-2.12,5.77,2.79A3.18,3.18,0,0,0,155,204.1a1.35,1.35,0,0,1-.59,1.41c-.8.07-1.39.37-1.3,1.3a1.61,1.61,0,0,0,1.62,1.6c4.46-.19,9,.72,13.37-.53l2.19-.15c3.18,1,6.35,1.47,9.48-.2l.13-.32-.25-.24a7.29,7.29,0,0,0,4.31.24l1.45.48c3.28,1.58,6.76.79,10.09.48,1.57-.14,2.63-1.7,0-2.57Zm-20,32.82c0-6.31,0-12.62.05-18.93,0-2.43-.86-3.4-3.34-3.42a39.09,39.09,0,0,0-6.68.82c-.11-1.09-.1-2.29-1.72-2.11-1.35.15-1.27,1.22-1.27,2.18,0,5,0,10.07,0,15.1,0,3.21.35,6.09,3.39,8.14,4.06,2.74,8.2,2,12.37.7,1-.32,1.33-1.32,1.21-2.64a171.69,171.69,0,0,1-.13-21.52c0-1,.5-2-1-2-1.26,0-2,.54-1.77,2,.83,6,.18,11.95.36,17.93C168.1,230.62,168.41,232.19,166.66,233Z" style="fill:#0f0f0f"/><path d="M272.53,203.15c4.32.64,7.9-2.15,12-2.58-.06,3.3-2.78,5.74-2.95,9a.88.88,0,0,1-1.1.67c-.62-.12-.59-.66-.68-1.12-.19-1-.33-2.11-.56-3.16s-.74-2.14-2.18-1.69-.95,1.47-.73,2.4c1.14,4.68,1.18,9.45,1.29,14.23.07,3.07-.82,4.33-4.07,4.2-5.63-.22-11.28-.14-16.91,0-1.73,0-4.3-1-4.82,1.69-.56,2.88-.21,5.78,2.69,7.6,4.61,2.89,8.7,1.28,12.65-1.46,1.58-1.1,6.35.05,7.63,2,1.52,2.34-.7,3.38-1.9,4.68-7.27,7.91-24.18,6.23-28.77-3a21.46,21.46,0,0,1-2.41-10.3,112.26,112.26,0,0,0-.19-12.45c-.18-2.35,1.68-3.95,1.48-6.15l9.44,0c-.27,2-.55,4-.81,6-.41,3.08.85,4.38,4,4.12,2.48-.21,5,.06,7.5-.07,1.67-.09,4,.92,4.76-1.27a7.24,7.24,0,0,0-.68-6.14c-1.12-2-3.34-2.92-4.13-5.06C266.28,204.82,269.63,205,272.53,203.15Z" style="fill:#0f0f0f"/><path d="M71.52,197.26c.27,1,.83,2.06,1.91,1.59,3.71-1.59,7.8-.53,11.52-1.85.1.47.21.94.31,1.41-1,.77-.6,1.2.36,1.49l2,3.86c-.3,1.11,0,1.77,1.27,1.83a.27.27,0,0,1,.2.36c-2.47,2-5.16.94-7.82.59a7.85,7.85,0,0,0-6.73,2.52c-1.3,1.3-.7,3,0,4.37,1,2,3,2.51,5,3,3.91.88,8,1,11.59,3.19,5.23,3.22,7.21,8.88,4.59,16.3-.4,1.12-.77,2.25-1.15,3.38a63.8,63.8,0,0,1-20.08-.19c-.81-1.74-2.16-1-3.41-.75a6.29,6.29,0,0,1-4.51-.72c-.6-1.45-1.66-1-2.71-.67l-1-.3c2.82-4,3.52-4.18,8-1.74,3.51,1.91,12.11,1.27,14.61-1.08s2.32-5.48-.92-7.27A13.24,13.24,0,0,0,78.44,225c-5.45-.14-10.1-1.78-13.36-6.7-2.34-3.53-1.44-7.19-1-10.69a10.13,10.13,0,0,0-.41-3.45c1-.39,1.56-1.48,2.73-1.51,1,.17,1.59-.25,1.61-1.31a1.14,1.14,0,0,1,1.09-.92c1.37.1,1.89-.48,1.44-1.82A1.13,1.13,0,0,1,71.52,197.26Z" style="fill:#0f0f0f"/><path d="M292,197.63l2-.64c.2,2.5,1.56,2.15,3.21,1.38,2.61-1.22,5.44-.93,8.06-.45,2.23.41.55,3,1.4,4.3.37.58.77,1.16,1.15,1.73l-3.36,2.44c-8.78-.13-11.41,3.77-11.08,10.79.37,7.66,0,15.35.14,23,.08,3.37-1.67,3.74-4.28,3.57-2.46-.16-5.22.48-5.16-3.58.13-9-.08-18,.09-27,.1-5.2,2.19-9.57,7-12.14C292.87,200.12,292.86,199.07,292,197.63Z" style="fill:#0f0f0f"/><path d="M122.71,197.53l.6-.61c1.17.56,2.07,1.59,3.48,1.75,6,.66,11.09,8.29,11.07,14.44,0,9.11-.1,18.21,0,27.32.07,4.28-2.87,3.14-5.2,3.34-2.65.23-4.31-.28-4.23-3.6.18-8,.06-16,.06-24.08,0-6.28-1.1-7.81-7.19-9.72-.78-.25-1.3-.49-1.44-1.3l.1-.09c1.43-.22,1.36-1.26,1.26-2.32.28-.69.57-1.37.85-2.06,1.24-.2,1.44-.92,1-2C123,198.26,122.84,197.89,122.71,197.53Z" style="fill:#0f0f0f"/><path d="M94,210.42c2.76.18,4.91,2.63,7.86,2.15l3.08.56c2.09.66,4.07.77,5.6-1.2l1.32-.11c-1.33,9.18-.26,18.42-.66,27.62-.06,1.42.91,3.61-1.06,4.07a17.49,17.49,0,0,1-6.76-.06c-1.23-.21-.79-1.83-.79-2.85,0-7.2,0-14.4,0-21.59,0-.84,0-1.68,0-2.52,0-1.05-.38-2-1.57-2-1.45-.06-1.3,1.11-1.31,2a43.35,43.35,0,0,1-.43,6.94c-4.42-7.47-11.92-8.39-19.11-10-1.25-.28-3.72.08-3.17-2.32.45-2,2.49-2.18,4.19-1.79,3.25.73,6.68.7,9.72,2.32C92.36,212.44,93.4,211.94,94,210.42Z" style="fill:#0f0f0f"/><path d="M238.71,221.67a33,33,0,0,1-.06,5.36c-.28,1.71,1.51,4.63-1.46,4.94-5.06.52-7.72-1.63-7.82-5.58-.11-4.41,0-8.83-.05-13.25,0-1.87.71-2.52,2.54-2.49,8.42.14,6.67-.88,6.85,6.36C238.74,218.56,238.7,220.11,238.71,221.67Z" style="fill:#010101"/><path d="M267,228c-1.73,2.24-2.91,4.39-5.6,4.75-1.55.21-3,.47-4.44-.58-1.16-.87-2.59-1.74-2.12-3.35s2.11-1,3.13-.8C260.9,228.49,263.83,227.81,267,228Z" style="fill:#0f0f0f"/><path d="M240.12,206.37l20.14-.18c-.16.51,2.1,1.6-.4,1.57s-5,0-7.43.07l-9.44,0C242.12,207.15,240,209,240.12,206.37Z" style="fill:#010101"/><path d="M289,198.93l2.2-.73C291,199.93,290.32,200.42,289,198.93Z" style="fill:#0f0f0f"/><path d="M387,207.62a2.21,2.21,0,0,1,3,0C389,208.85,388,208.84,387,207.62Z" style="fill:#282828"/><path d="M341.18,56.34l-7.3-11.05C336.76,46.35,341.1,52.67,341.18,56.34Z" style="fill:#010101"/><path d="M238.76,3.6c-1.15,1.65-2.58.91-4.66,1.05C236,2.66,237.41,3.55,238.76,3.6Z" style="fill:#282828"/><path d="M265.92,3.41a1.28,1.28,0,0,1,1.25,1c.08.75-.56.9-1.19.89s-1.2-.28-1.21-1S265.21,3.35,265.92,3.41Z" style="fill:#282828"/><path d="M183.2,27.73c0-.47,0-.94.05-1.41.84-.25,2.15-1.35,2.44-.15C186.09,27.86,184.35,27.66,183.2,27.73Z" style="fill:#010101"/><path d="M243.76,6.23a3.15,3.15,0,0,1-2.94.34C241.61,4.92,242.63,5.09,243.76,6.23Z" style="fill:#282828"/><path d="M261.05,6.56a3.12,3.12,0,0,1-2.94-.34C259.24,5.11,260.25,4.9,261.05,6.56Z" style="fill:#282828"/><path d="M224.52,7.23a2.69,2.69,0,0,1-.89.24c-.48,0-1-.28-1-.85,0-.12.54-.36.82-.34A1,1,0,0,1,224.52,7.23Z" style="fill:#282828"/><path d="M278.88,6.92c-.41.25-.66.51-.92.53-.49,0-.9-.26-.73-.79.06-.19.55-.36.83-.34S278.52,6.64,278.88,6.92Z" style="fill:#282828"/><path d="M318.65,32A3.23,3.23,0,0,1,316.34,30C318,29.7,318.78,30.32,318.65,32Z" style="fill:#282828"/><path d="M325.11,38.54a3.23,3.23,0,0,1-2-2.2C324.69,36.23,325.31,37,325.11,38.54Z" style="fill:#282828"/><path d="M259.27,3.64a2.49,2.49,0,0,1,2.59,0C261.11,4.15,260.37,4.06,259.27,3.64Z" style="fill:#282828"/><path d="M297,17.11a2.25,2.25,0,0,1-2-1.05C296.17,15.4,296.88,15.69,297,17.11Z" style="fill:#282828"/><path d="M299.83,18.56a1.93,1.93,0,0,1-2-1.06C299.05,16.84,299.73,17.16,299.83,18.56Z" style="fill:#282828"/><path d="M199.61,20.16a1.93,1.93,0,0,1-2,1.18C197.77,20.06,198.47,19.74,199.61,20.16Z" style="fill:#282828"/><path d="M332.15,47.24a1.2,1.2,0,0,1-1-1.3c.53-.1,1.1-.24,1.44.31S332.52,47,332.15,47.24Z" style="fill:#282828"/><path d="M215.49,12.3a1.86,1.86,0,0,1-2,1C213.66,12,214.38,11.81,215.49,12.3Z" style="fill:#282828"/><path d="M195.49,22.75a1.17,1.17,0,0,1-1.33.95C194.17,22.77,194,21.53,195.49,22.75Z" style="fill:#282828"/><path d="M280.45,10.53c-.68.25-1.22.18-1.48-.6C280.1,8.55,280.28,9.51,280.45,10.53Z" style="fill:#282828"/><path d="M274.73,8.77a1,1,0,0,1-1.5-.37C274,7.3,274.47,7.65,274.73,8.77Z" style="fill:#282828"/><path d="M309.93,25c-.91.07-1.41-.58-1.95-1.15C309.15,23.35,309.86,23.63,309.93,25Z" style="fill:#282828"/><path d="M228.65,8.45a1,1,0,0,1-1.5.42C227.37,7.76,227.78,7.28,228.65,8.45Z" style="fill:#282828"/><path d="M328.54,42.53a1.82,1.82,0,0,1-1.43-1.73C328.33,40.75,328.78,41.35,328.54,42.53Z" style="fill:#282828"/><path d="M268.24,7.44A1,1,0,0,1,266.75,7C267.64,5.83,268,6.33,268.24,7.44Z" style="fill:#282828"/><path d="M235.13,7a1,1,0,0,1-1.5.47C233.83,6.36,234.21,5.82,235.13,7Z" style="fill:#282828"/><path d="M307.78,204c-.38-.58-.78-1.15-1.15-1.73-.86-1.34.83-3.89-1.4-4.3-2.62-.48-5.46-.77-8.06.45-1.65.77-3,1.12-3.21-1.38,3-2.59,6.69-4.14,10.17-6,1.31,2.68,3.93,4.19,5.69,6.46.89,1.14,1.7.85,2.76.46a11.48,11.48,0,0,1,5.14-1C315,200.11,311.13,201.66,307.78,204Z" style="fill:#282828"/><path d="M351,114.16c-.08-5-.13-10-.23-15-.12-5.6-1.64-11-2.35-16.52,1.33-.38.9-2.07,2-3.06,2.19,5,3.8,10.08,3.2,14.83a151.45,151.45,0,0,0-1.17,18A1.49,1.49,0,0,1,351,114.16Z" style="fill:#0f0f0f"/><path d="M314.13,184.1l15.18-15.24a2.47,2.47,0,0,1,.13,3.79q-5.94,6.16-12.14,12.08C316.18,185.79,314.89,185.77,314.13,184.1Z" style="fill:#282828"/><path d="M334.08,162.18l10-18.33c2.68,2.39-1,3.67-1,5.6l0,0c-.51.25-.55.5,0,.76l0,0c-1,4.82-3.7,8.82-6.5,12.71C335.49,164.42,334.62,163.51,334.08,162.18Z" style="fill:#282828"/><path d="M348,132.86c-.16-3.47,1.48-6.64,1.66-10.05,1.33-.26,1.52-1,.85-2.07a12.36,12.36,0,0,1,.4-5.13c3,.31,4.2,2.26,2.74,5.84-1.22,3-1.21,6.21-2.4,9.23C350.46,132.68,349.67,133,348,132.86Z" style="fill:#0f0f0f"/><path d="M348.09,80.34a48.11,48.11,0,0,1-3.85-11.43c1.75-1.72,3.16-1.63,3.38,1C347.9,73.39,351.42,76.73,348.09,80.34Z" style="fill:#0f0f0f"/><path d="M305.11,190.61c2.12-2.39,4.91-3.86,7.54-5.54C312.83,189.85,309,192.66,305.11,190.61Z" style="fill:#282828"/><path d="M357.14,85.41c.11,1,.21,1.89.32,2.84-.59.3-.63.86-.67,1.42-.39.5-1.36.85-1.42.47-.39-2.34-2.77-4.27-1.47-6.94a1.57,1.57,0,0,0,.74-1.45q0-.36,0-.72C356,82.21,355,84.71,357.14,85.41Z" style="fill:#0f0f0f"/><path d="M345.25,140.8a3,3,0,0,1,.53-2.25c1.62-.1,2.19-.67.93-2.06a1.38,1.38,0,0,1,.39-1.54c2,.79,3.49,1.6,1.53,4-1.05,1.3-.2,3.56-1.93,4.7C346,142.85,346.33,141.46,345.25,140.8Z" style="fill:#0f0f0f"/><path d="M358.8,96.22c-1,.78-.44,1.86-.56,2.82-1.38,0-3-.18-2.68-1.9.29-1.54-.19-4.17,2.85-3.9A4.17,4.17,0,0,1,358.8,96.22Z" style="fill:#0f0f0f"/><path d="M357.14,85.41C355,84.7,356,82.21,354.63,81a1.28,1.28,0,0,1-.6-1.44l.86-1.1C356.65,80.48,356.57,83.05,357.14,85.41Z" style="fill:#282828"/><path d="M331.39,166.07a3.23,3.23,0,0,1,2-2.63c1.14,1,1.41,2.24.33,3.33S331.86,167.39,331.39,166.07Z" style="fill:#282828"/><path d="M356.78,135.76c-.49,2.09-.1,4.45-1.89,6.14C355.4,139.81,354.33,137.24,356.78,135.76Z" style="fill:#282828"/><path d="M345.25,140.8c1.08.66.72,2,1.46,2.89-1.38,1.42-1.46-.86-2.35-.83A1.77,1.77,0,0,1,345.25,140.8Z" style="fill:#282828"/><path d="M345.21,58a2,2,0,0,1,1.37,1.5c-.82-.19-2,1-2.45-.49C343.88,58.24,344.59,58.07,345.21,58Z" style="fill:#0f0f0f"/><path d="M356.8,89.68c0-.56.08-1.12.67-1.42a1.18,1.18,0,0,1,.44,1.51Z" style="fill:#282828"/><path d="M354.51,144.37a1.78,1.78,0,0,1-1,1.9C353,145.21,353.39,144.59,354.51,144.37Z" style="fill:#282828"/><path d="M354.58,138.28l-.3.55c-.1-.18-.28-.35-.29-.53s.17-.36.26-.55Z" style="fill:#282828"/><path d="M354.64,81.75a1.55,1.55,0,0,1-.74,1.45A1.46,1.46,0,0,1,354.64,81.75Z" style="fill:#282828"/><path d="M343.41,166.92a.54.54,0,0,1-.36.54l-.33-.4Z" style="fill:#282828"/><path d="M343.1,149.45a5,5,0,0,1,.27.51l-.27.2,0,0v-.76Z" style="fill:#282828"/><path d="M14,112a1,1,0,0,1-.51-1.4l.27-.19L14,112Z" style="fill:#010101"/><path d="M223,417.88c.89-.9,2-.55,3.06-.55q28.85,0,57.7,0c1,0,2.17-.35,3.06.55Z" style="fill:#010101"/><path d="M189.14,417.88c1.38-1.08,3-.52,4.47-.53,7.13-.07,14.26-.05,21.39,0,1.14,0,2.39-.42,3.4.55Z" style="fill:#010101"/><path d="M293.52,417.88l.68-.61C294.75,418.32,293.84,417.77,293.52,417.88Z" style="fill:#010101"/><path d="M78.83,70.5H92.49v.32H78.83Z" style="fill:#010101"/><path d="M71.14,238.33c1.24-.24,2.6-1,3.41.75A2.93,2.93,0,0,1,71.14,238.33Z" style="fill:#282828"/><path d="M63.92,236.93c1-.35,2.11-.78,2.71.67A2.4,2.4,0,0,1,63.92,236.93Z" style="fill:#282828"/><path d="M405,249.63c-3.34,0-6.68,0-10,0-1.1,0-2.5.49-2.92-1.23a75.47,75.47,0,0,1,11.45-.21Z" style="fill:#010101"/><path d="M377.66,216.23v-.72c0-4.41,3.56-6.61,7.63-4.76a1.43,1.43,0,0,1,1,1.33c0,2.87,0,5.73,0,8.6A1.34,1.34,0,0,1,385,222.1c-.24,0-.48,0-.71.05C378,222.91,377.66,222.62,377.66,216.23Z" style="fill:#0f0f0f"/><path d="M244.42,201.14c-2.21.64-4.26-1-6.46-.46-1.11-.87-2.51,0-3.67-.65,1.05-1.49,2.62-.68,4-.89.77-.12,1.9.37,2.18-.67s-.85-1.57-1.59-2.08c-1.92-1.34-4.16-.93-6.26-.82-2.42.12-3.49-.6-3.32-3.19.19-3,0-6,.06-8.94.07-1.95-1-3-2.37-4.1-.76-.58-2.84.14-2.25-1.42.4-1.07.26-3.35,3.05-2.94,2,.3,4-3.58,3.45-5.75.55-.6,1.1-1.2,1.64-1.81,3.38.82,3-2.24,3.77-3.87,1.32-2.82,3.5-5.51,2.3-9q0-3.66,0-7.32c2-3.79-2.55-6.69-1.4-10.5.42-1.38-1.77-.6-2.46-1.42a3.22,3.22,0,0,1-.69-1.58c-.62-3-4.13-5.55-7-5.2a18.37,18.37,0,0,0-9-3.11l-2-.46c0-.26,0-.52,0-.79.34-3.26-1.5-3.9-4.19-3.43-2.4.42-4.48,1.62-7.15,1.67-2.42,0-4.85,2.17-7.2,3.5-1,.58-.88,1.57-.26,2.47-.94.32-1.5.87-1.22,2l-3.5,3.41-1-.12c-.12-.55-.13-1.34-.93-1.14-1.32.32-1.19,1.51-1.24,2.54h0c-.23,0-.54,0-.69.14-3.45,3-6.4,13.16-5.69,17.58.25,1.53,1.42,1.74,2.68,1.79.29,1.65-1.45,3.47.74,5.12.45.34-.17,2.65.68,4.14,1.85,3.23,4.53,5.72,6.79,8.57s6.57,2.06,8.19,5.53c0,.11.87-.08,1.3-.21,1.33-.42,2.64-.88,4-1.33a7.42,7.42,0,0,1,3.59.24c1.52,2,3,3.07,4.48,0l2.1-.14a1.68,1.68,0,0,0,2,.35c1.61-.9,2.44-.08,3.08,1.2.85,1.7-.79,1.92-1.65,2.58a16.89,16.89,0,0,1-2.6,1.89c-2.46,1.21-5.19,2-5.25,5.54,0,.66-.56.95-1.2,1.11-2.64.69-8.32-3.06-8.81-5.85-.73-4.13-1.86-5-6.06-3.92a4.74,4.74,0,0,1-4.26-.77c-4.33-2.84-7.49-6.85-11-10.48-1.42-1.45-2.74-2.16-4.66-1.29-.2,0-.28-.13-.23-.33,1.58-1.3,1.48-2.43.23-4.13-4.59-6.25-9.35-12.45-11.2-20.22-.78-3.26-2.11-1.39-3.36-.4l-1.08-2.16c.5-.3,1.17-.49,1.47-.93.88-1.29-.9-10.21-2.13-10.18-3.09.07-1.59-2.32-2.32-3.45,2.7-1.29,1.24-3,.74-4.53-1.11,1.43-.63,3-.75,4.52l-1.17,0a7.42,7.42,0,0,1-.34-3.53c.22-.27.6-.51.65-.8,1.31-7.35.62-14.77.87-22.16.08-2.46-1.5-1.41-2.55-1.6,0-.44,0-.88.05-1.31,3.83-3.06,4.21-7.13,2.94-12,.88.78,1.29,1.44,1.69,1.44.79,0,.62-.82.69-1.38.12-.94-.62-1.46-1-2.17-.52-1,.16-2.75.72-2.37,2,1.37,1.42-.33,1.76-1.11a5.91,5.91,0,0,0-.59-6.06l.45-1.66c1.07,0,.83,2.33,2.26,1.38,1.91-1.26,1.12-3.86,2.55-5.57.92-1.11-1.12-1.74-1.57-2.75a.3.3,0,0,1,.23-.31c4.22-.07,4.53-.65,2.82-5.19l0-.07c1,0,2.3,1.58,2.85.34,1-2.33,3.55-4.51,1.57-7.51l.62-.56c4.52,0,5.62-1.38,4.19-5.42a.28.28,0,0,1,.18-.32c4.81-.2,7.47-4.29,10.52-6.84,8.61-7.21,17.75-13.27,28.31-17,3.8-1.34,6.32-5.23,10.79-5.13.61,0,1.09-.86,1.09-1.67l1.4-.19c1.45,1.71,2.88-.41,4.32,0,1.74,2.49,5.5,2.72,9.69.54-2.17-1.3-4.74.32-6.8-1.08,3.14-.54,6.63.81,9.39-1.76A14,14,0,0,1,253,11c3.11,3.13,6.67,1.7,10.15,1l1.43.23c-1,2.61-4.06-.06-5.66,2.51a31.48,31.48,0,0,1,9.5,1.39c1.32.42,3.88,1.44,4.82-1.3,1.2-.2,2.41,1.67,3.61,0l1.4.18c.23,1.28,1,1.42,2,.89l1.67.32c.41,1.38-1.6,1.19-1.63,2,4.41,4.11,11.1,1.34,15.25,5.75.57.61,1.85.22,2.74-.23l.31.15c.13,1.12-1.63,2.74.45,3.3,2.32.62,4,2.27,5.6,3.62,2.73,2.22,6.93,2.32,8.52,6.18.7,1.71,2.36,1.13,3.73.6l.55.55c-.33,1.23-1,2.41.32,3.57,2.32,2,3.69,4.78,5.62,7,1.17,1.36,2.29,4.85,5.54,2.66a1.08,1.08,0,0,1,.82,1.16c-1.15,1.77-1.09,2.83,1.43,2.42a1.82,1.82,0,0,1,1.07,1.46c-.92.12-2,.16-1.93,1.44.07,1.09,1,1.47,2,1.57l0,0c-.05,2.41.1,4.73,2.87,5.74.11.79-.06,1.93.4,2.31.85.7,1.15-.82,1.92-.94l.27,1a10.23,10.23,0,0,0,2.43,11.33l0,0c-.57,5.14,1.82,9.9,1.87,15,.05,5.33,1.27,10.74.71,16a24.48,24.48,0,0,0,1.75,13,7.87,7.87,0,0,1-.5,3.72c-2.36.22-2,1.36-.95,2.76-.1.7-.2,1.4-.31,2.1l-1.15.09c-.19-1.08.48-2.35-.63-3.3-2.5,1.77-1.08,5-2.53,6.87-1.68,2.2-1.26,3.84.23,5.67-4.3.52-2.12,2.48-.94,4.22l-.33,1c-1,.16-2.26-2.79-2.9-.18-.86,3.56-4.66,5.88-3.95,10,.09.54-.46.7-.87,1-3.37,2.17-5.19,5.13-4.67,9.27l0,.24-.23.06c-1,.41-1.73-1.84-2.65-.58-2.37,3.24-6.11,5.25-7.92,8.95-4.4,3.12-8.78,6.28-13.21,9.36-4.67,3.25-10.12,5-15.11,7.59-1.72.9-3.18,2.09-5.53,2.28-1.51.13-4.68-.34-5.7,2.37-3,.47-5.67-1.63-8.66-.84l-2.08-.16c-.47-1.3-1.2-1.5-2.21-.53a31,31,0,0,0-11.55,1.46c-1.71-1.17-1.82.31-2.21,1.33C246.68,198.6,244,198.38,244.42,201.14ZM233.64,45.77c0-.65.1-1.81-.55-1.72-1.49.19-.65,1.59-.83,2.47V52.9c.12.69-.42,1.88.83,1.79.75,0,.51-1.1.56-1.75a2.16,2.16,0,0,1,.67,2.6c-1.26,3.25.37,5.67,1.85,8.31,1.22,2.17,3.16,3.58,4.82,5.21,5.6,5.52,12.08,9.08,20.36,9.14a26.22,26.22,0,0,0,17.95-6.8c2.94-2.58,7.17-4.78,7-9.79,3.23-.78,2.63-3.64,3.48-5.9,1.36-3.63.48-7.22.68-10.82.07-1.32-1.13-1.27-2.08-1.31,1.66-2.65-.07-4.72-1.19-6.89-1-2-3.65-3.12-4.16-4.88-.84-2.89-2.91-3.92-4.82-5.58s-4.75-1.48-6.41-3.48c-.55-2.63-2.82-.93-4.13-1.65-5.72-3.15-11.24-.56-16.8.62-.76.16-1.76.67-.59,1.71-.13,1.44-1.19,1.43-2.24,1.44l-.29-.17.32.15c-.39,1.76-1.76,2-3.25,2.17-3.55.31-5.4,2.88-4.68,6.49-.4.53-.79,1.06-1.19,1.58-.71-.06-2-1.28-2-.12-.1,3.81-2.62,7-2.64,10.73-.23,0-.44,0-.65.07Zm54.79,65.47a3.91,3.91,0,0,0,4.28,5.06l2.36-.19c.61,3.71,5.81,7.56,11,8.08,11.16,1.13,19.88-3.4,26.78-11.83,1.06-1.29.91-4.25,2-4.7,3.77-1.54,2.68-3.89,1.84-6.42,1.65,0,2.94-.56,2.77-2.44-.4-4.42.45-9.11-1.6-13.19-1.21-2.41-1.17-6-4.82-6.75-.39-3.19-2.76-4.8-5.12-6.41-4.37-4.46-9.76-5.53-16.27-4.12,1.35-1.56,3-.29,3.76-2H304c0,.26-.05.53-.08.79l4.83.48c-2,1.25-5-.81-6.07,2.32l-1.41.23c-2.55-1.94-4.57-1.82-5.77,1.49-.43,1.2-1.29,1.82-2.51,1.31s-1.83.26-2.42,1c-1.85,2.18-4,4.21-5.3,6.7-.94,1.87-3.43,3.5-2.85,5.44,1.2,4.06.54,8.1.81,12.13.07,1.09,0,2.26,1.52,2.35.08.59.15,1.18.23,1.77-.21,2.93-1.32,1.15-2.21.26-.43,1.86-.05,3.16,1.67,3.93.7.31,1.57.51,1.52,1.67-.1,2.14,1.36,1.7,2.64,1.48l-.25.21.26-.2C288.58,110.14,288.5,110.69,288.43,111.24Zm-13.75,75.11c-.55.92-2.17,0-2.52,1.49A18.76,18.76,0,0,1,275,189c2.47,1.52,3.42.66,3.37-2h2.11c1.77,2,3.75,2.65,6.31,1.4,5.07-2.48,10.17-4.74,14-9.3,1.35-1.63,2.12-2.55.67-4.27l2.1-1.71c1.85,1.41,2.29-.42,2.77-1.39,2.64-5.41,2.81-11.18,2.2-17-.2-1.88-1.45-2.64-3.29-2.47l-.18-2.11c.78-.09,1.64-.62,1.28-1.28-1.48-2.74-2-6.28-5.68-7.34-2.22-1.26-3.55-4.34-6.87-3.37h-.22l-.12-.18c-.18-1.22.63-2.88-.94-3.52-4.94-2-9.68-4.69-15.41-3.8a35.62,35.62,0,0,0-12.61,4.7c-6.24,3.58-9.5,9.06-12.57,14.86-.75,1.41-1.94,3.61.62,5.67,1,.83,0,4.24-.11,6.48-2.77,2.86-2.84,4.41-.29,7.23.39.43,1.21.81,1.2,1.21,0,5,4.16,7.35,6.74,10.68.43.56,1.29,1.48,2,1,.49-.34.45-1.47.65-2.24a1.64,1.64,0,0,1,1.42,1.08c-.28,4,3,6.29,7,4.82Zm-15.41-90.2a.46.46,0,0,1-.44-.37c1.17-1.68.41-2.89-.94-4-1.06-.86-1.91-1.41-3.44-.45a6.65,6.65,0,0,1-5.91.19c-2.38-1-4.43.41-5.59,1.23-5.33,3.74-9.08,8.56-7.9,15.83.43,2.66,1.11,3.86,3.84,2.58.11.33.21.67.32,1-.51.77-1.39,1.53-.7,2.54s1.83.87,2.84.27l1.82,1.78c-.5,1.44-2.24,3.56,1.48,2.7.66-.15.59.38.82.78,3.27,5.65,7.57,1.15,11.34.91,2.78-.18,2.43-3,2.62-5.13a.3.3,0,0,1,.33-.18c2.92,1.31,5.08-.22,6.5-4.26.83-2.36.23-3.35-2.24-3.23l0-5c1.06-.21,3.49.13,2.18-1.61-1.16-1.55-1.54-3.33-2.46-4.89C262.21,94.33,261.12,94.24,259.27,96.15Zm-43.77,7.08c4.57.61,12.11-6.88,11.5-11.44a2.48,2.48,0,0,0-.23-.68c-.55-1.27-.24-2.6-.22-3.9l.33-.32c.76.62-.24,2,1.1,2.34,1.79-2.7,2.13-5.64,2.09-8.78,0-1.8-1.5-2.82-1.57-4.63-.2-5.36-1.36-6.54-6.42-7.72a.25.25,0,0,1-.18-.39c1.92-2.58-.1-4.28-1.54-5.87s-3.51-3-5.94-1.29a.25.25,0,0,1-.27-.25c.49-3.09-.83-4.53-3.93-4.18-.73.08-1.16.19-1.81-.48-2.88-2.94-8-3.64-12.66-1.3h8.3a31.28,31.28,0,0,1-9,.69c-1.49-.07-2.78-.62-4.47-.17-5.28,1.4-8.93,5-12.42,8.71-5.18,5.49-7.39,12.32-7.85,19.76,0,.78-.31,2.25.49,2.23,3-.1,1.9,1,1.14,2.58-.69,1.39,0,2.73.92,4,.68.91,1.73,1.56,1.77,3,.07,2.8,1.66,2.78,3.65,1.67h0a12.79,12.79,0,0,0-.22,1.73c0,2.59,1.9,4.08,3.55,5.61,1.39,1.29,1.81-.85,2.8-1.13a.25.25,0,0,1,.29.26c.21,1.2.08,2.61.69,3.56,1,1.61,2.66,1.51,4.21.47,1.64,3.34,4.18.57,6.26.91l3.17.12c.49.84,1,.85,1.5,0l2.2-.07c-.15,2.12.16,3.61,2.93,2.65,1.55-.54,3.26-.6,4.83-1.11C214.73,108.4,216.29,106.28,215.5,103.23Zm67.11-13.8c-3.12,2.53-1.82,5.72-2.12,8.64-.07.73-.36,1.92.84,2,1,.06,1.25-1,1.26-1.81C282.63,95.31,282.61,92.37,282.61,89.43Z" style="fill:#010101"/><path d="M177.38,166.76c1.92-.87,3.24-.16,4.66,1.29,3.54,3.62,6.7,7.63,11,10.48a4.7,4.7,0,0,0,4.26.77c4.2-1.06,5.34-.22,6.06,3.92.49,2.79,6.17,6.53,8.81,5.85.64-.17,1.19-.46,1.2-1.11.06-3.49,2.79-4.33,5.25-5.54a15.65,15.65,0,0,0,2.6-1.89c.85-.66,2.5-.87,1.65-2.58-.64-1.27-1.47-2.09-3.08-1.2a1.68,1.68,0,0,1-2-.35c4.79-1.79,9.53-3.69,13.4-7.19.59,2.17-1.43,6-3.45,5.75-2.8-.41-2.65,1.87-3.05,2.94-.59,1.56,1.49.84,2.25,1.42,1.39,1.06,2.44,2.15,2.37,4.1-.11,3,.13,6-.06,8.94-.17,2.6.9,3.31,3.32,3.19,2.1-.1,4.33-.52,6.26.82.74.52,1.9.95,1.59,2.08s-1.41.55-2.18.67c-1.34.21-2.91-.6-4,.89a21.59,21.59,0,0,1-9.28-2.36c1.82-3,.5-6.2.64-9.3.26-6,.1-5.92-5-3.28-2.53,1.3-5.23,2.3-3.6,6.05.65,1.49-1.11,2.24-1.35,3.5-4.93-1.29-9.11-4.22-13.64-6.37a23.18,23.18,0,0,0-6.45-3.58c-3.28-2.94-6.58-5.87-9.85-8.83A48.11,48.11,0,0,1,177.38,166.76Z" style="fill:#282828"/><path d="M344.58,122.81a24.3,24.3,0,0,1-1.75-13c.57-5.23-.66-10.64-.71-16-.05-5.1-2.43-9.85-1.87-15l.3-.33-.32.3a10.23,10.23,0,0,1-2.43-11.33c2.41,2.11,2.74,5.26,3.66,8,5,14.79,6,30,4,45.43C345.32,121.64,345.37,122.43,344.58,122.81Z" style="fill:#282828"/><path d="M229.37,13.53c0,.81-.48,1.69-1.09,1.67-4.48-.1-7,3.79-10.79,5.13-10.56,3.74-19.69,9.79-28.31,17-3.05,2.55-5.71,6.65-10.52,6.84,8.5-10.69,19.25-18.48,31.5-24.25C216.3,17,222.51,14.29,229.37,13.53Z" style="fill:#282828"/><path d="M274.7,196.25c1-2.71,4.19-2.24,5.7-2.37,2.35-.2,3.81-1.38,5.53-2.28,5-2.62,10.44-4.34,15.11-7.59,4.43-3.09,8.81-6.24,13.21-9.36.7.34.77,1,1,1.67l-.17-.2.19.18c-1.17-.25-1.67.24-1.59,1.4-8,8-17.76,13.2-28.14,17.32-2.73,1.08-5.34,2.74-8.47,2.52-.38-1.18-1.34-1.3-2.36-1.29Z" style="fill:#0f0f0f"/><path d="M162.81,141.68c1.25-1,2.59-2.86,3.36.4,1.85,7.78,6.61,14,11.2,20.22,1.25,1.7,1.35,2.83-.23,4.13C170.81,159.08,165.56,151.11,162.81,141.68Z" style="fill:#282828"/><path d="M325.1,166c-.52-4.14,1.3-7.1,4.67-9.27.41-.26,1-.42.87-1-.72-4.12,3.08-6.45,3.95-10,.64-2.62,1.88.33,2.9.18A60.2,60.2,0,0,1,325.1,166Z" style="fill:#282828"/><path d="M316.91,37.56c-1.37.53-3,1.11-3.73-.6-1.59-3.87-5.79-4-8.52-6.18-1.65-1.34-3.28-3-5.6-3.62-2.09-.55-.32-2.17-.45-3.3A52.93,52.93,0,0,1,316.91,37.56Z" style="fill:#282828"/><path d="M162.48,71.81a5.93,5.93,0,0,1,.59,6.06c-.34.78.25,2.48-1.76,1.11-.56-.38-1.24,1.41-.72,2.37.38.71,1.12,1.22,1,2.17-.07.56.09,1.38-.69,1.38-.4,0-.81-.66-1.69-1.44,1.27,4.91.89,9-2.94,12C157,87.27,158.44,79.2,162.48,71.81Z" style="fill:#282828"/><path d="M328.94,51.37c-3.25,2.18-4.37-1.3-5.54-2.66-1.93-2.25-3.3-5-5.62-7-1.36-1.17-.65-2.35-.32-3.57A46.74,46.74,0,0,1,328.94,51.37Z" style="fill:#282828"/><path d="M298.29,23.71c-.89.46-2.17.84-2.74.23-4.16-4.42-10.84-1.64-15.25-5.75,0-.86,2-.66,1.63-2.05A51.26,51.26,0,0,1,298.29,23.71Z" style="fill:#282828"/><path d="M156.21,96.82c1.06.19,2.63-.87,2.55,1.6-.25,7.39.44,14.82-.87,22.16,0,.3-.42.54-.65.8-1.68-2.47-1.37-5.24-1.17-8,.57-.18,1.21-.38,1.21-1.09q0-6.4,0-12.8c0-.72-.59-1-1.17-1.14A1.28,1.28,0,0,1,156.21,96.82Z" style="fill:#282828"/><path d="M157.59,124.91l1.17,0h0c.73,1.13-.77,3.52,2.32,3.45,1.23,0,3,8.89,2.13,10.18-.3.44-1,.63-1.47.93A46.46,46.46,0,0,1,157.59,124.91Z" style="fill:#282828"/><path d="M315.24,176.31c-.22-.62-.29-1.33-1-1.67,1.81-3.71,5.55-5.71,7.92-8.95.92-1.26,1.61,1,2.65.58A37.37,37.37,0,0,1,315.24,176.31Z" style="fill:#282828"/><path d="M338.76,140.71c-1.5-1.83-1.91-3.47-.23-5.67,1.45-1.9,0-5.1,2.53-6.87,1.11,1,.44,2.21.63,3.3.14.67.29,1.34.44,2-.28,1.28.11,2.75-1.11,3.75-1.08.12-1.87.36-.62,1.46a2.22,2.22,0,0,1-.69,2.21Z" style="fill:#0f0f0f"/><path d="M273.26,14.77c-.95,2.74-3.5,1.72-4.82,1.3a31.48,31.48,0,0,0-9.5-1.39c1.6-2.57,4.68.09,5.66-2.51a4,4,0,0,1,2.85.09c0,.72.05,1.42.79,1.82a3.32,3.32,0,0,0,4.2.1C272.71,14.38,273,14.58,273.26,14.77Z" style="fill:#0f0f0f"/><path d="M166.17,63.23c.44,1,2.49,1.64,1.57,2.75-1.42,1.71-.64,4.31-2.55,5.57-1.43.94-1.19-1.41-2.26-1.38C163.58,67.65,164.31,65.17,166.17,63.23Z" style="fill:#282828"/><path d="M332.3,59.42c-1-.1-1.89-.49-2-1.57-.08-1.28,1-1.31,1.93-1.44a20,20,0,0,1,3.86,7.22,1.59,1.59,0,0,0-.95,1.58l0,0c-2.77-1-2.92-3.32-2.87-5.74l.29-.32Z" style="fill:#282828"/><path d="M156.13,98.37c.58.19,1.17.42,1.17,1.14q0,6.4,0,12.8c0,.71-.64.92-1.21,1.09A61,61,0,0,1,156.13,98.37Z" style="fill:#010101"/><path d="M238,12.78c2.06,1.4,4.63-.22,6.8,1.08-4.19,2.18-7.95,2-9.69-.54,0-.36,0-.71,0-1.07L238,12C238,12.26,238,12.52,238,12.78Z" style="fill:#0f0f0f"/><path d="M173.67,50.48c2,3-.55,5.19-1.57,7.51-.55,1.25-1.85-.32-2.85-.34C170,54.8,171.86,52.66,173.67,50.48Z" style="fill:#282828"/><path d="M266,195.41c3-.8,5.7,1.3,8.66.84h0c.24.55.48,1.11.73,1.66-1.21,1.34-2.74,1.08-4.27.83l-1,.12A13.44,13.44,0,0,0,266,195.41Z" style="fill:#0f0f0f"/><path d="M263.17,11.94c-3.49.7-7,2.13-10.15-1A22.72,22.72,0,0,1,263.17,11.94Z" style="fill:#282828"/><path d="M178.48,44.5c1.43,4,.33,5.46-4.19,5.42A13.05,13.05,0,0,1,178.48,44.5Z" style="fill:#282828"/><path d="M268.23,14.08c-.74-.4-.78-1.1-.79-1.82,3.21.58,6.58.52,9.42,2.5-1.2,1.68-2.41-.19-3.61,0l-.83-.58Z" style="fill:#282828"/><path d="M169.22,57.73c1.72,4.54,1.4,5.11-2.82,5.19C166.42,60.69,167.79,59.19,169.22,57.73Z" style="fill:#282828"/><path d="M238,12.78c0-.26,0-.52,0-.78a21.77,21.77,0,0,1,9.41-1C244.61,13.59,241.12,12.24,238,12.78Z" style="fill:#282828"/><path d="M150.92,100.51c-1.28-3.1-1.5-6.07,1-8.71C151.6,94.7,151.83,97.67,150.92,100.51Z" style="fill:#282828"/><path d="M338.76,140.71l.94.18c-.34,1.48-.31,3.13-1.88,4C336.63,143.19,334.46,141.23,338.76,140.71Z" style="fill:#282828"/><path d="M151.31,117.79c-2.12-1.81-1.45-3.8-.38-5.82A9.89,9.89,0,0,1,151.31,117.79Z" style="fill:#282828"/><path d="M235.13,12.25c0,.36,0,.71,0,1.07-1.44-.39-2.87,1.74-4.32,0A6,6,0,0,1,235.13,12.25Z" style="fill:#282828"/><path d="M337.52,66.55c-.77.12-1.07,1.65-1.92.94-.46-.38-.29-1.51-.4-2.31l0,0,1.4-.2C337.51,65.15,337.66,65.76,337.52,66.55Z" style="fill:#282828"/><path d="M153.29,127.71c-2.73-.48-1.86-2-1-3.48A4,4,0,0,1,153.29,127.71Z" style="fill:#282828"/><path d="M331.2,55c-2.52.4-2.58-.65-1.43-2.42A2.65,2.65,0,0,1,331.2,55Z" style="fill:#282828"/><path d="M343.13,129.29c-1.07-1.4-1.41-2.54.95-2.76A2.37,2.37,0,0,1,343.13,129.29Z" style="fill:#282828"/><path d="M161.27,150.75c-2.1-.06-1.9-1.24-1.29-2.63A4,4,0,0,1,161.27,150.75Z" style="fill:#282828"/><path d="M346.72,136.49c1.26,1.4.68,2-.93,2.06A2,2,0,0,1,346.72,136.49Z" style="fill:#282828"/><path d="M275.43,197.91c-.24-.55-.48-1.11-.73-1.66,1,0,2,.11,2.36,1.29A1.29,1.29,0,0,1,275.43,197.91Z" style="fill:#010101"/><path d="M280.26,15.83c-1,.53-1.76.39-2-.89A1.53,1.53,0,0,1,280.26,15.83Z" style="fill:#282828"/><path d="M342.11,133.48c-.14-.67-.29-1.34-.44-2l1.15-.09A1.54,1.54,0,0,1,342.11,133.48Z" style="fill:#282828"/><path d="M350.5,120.74c.67,1.08.48,1.81-.85,2.07A1.85,1.85,0,0,1,350.5,120.74Z" style="fill:#282828"/><path d="M313.67,177.7c-.09-1.16.42-1.66,1.59-1.4A1.61,1.61,0,0,1,313.67,177.7Z" style="fill:#282828"/><path d="M155.92,137.2c-.88-.15-1.94-.21-.74-1.44A1.09,1.09,0,0,1,155.92,137.2Z" style="fill:#282828"/><path d="M340.38,138.69c-1.25-1.11-.46-1.35.62-1.46A1.28,1.28,0,0,1,340.38,138.69Z" style="fill:#282828"/><path d="M154.34,132.18c-1.08-.13-1.64-.47-.6-1.46A1,1,0,0,1,154.34,132.18Z" style="fill:#282828"/><path d="M336.58,65l-1.4.2a1.56,1.56,0,0,1,.95-1.58Z" style="fill:#010101"/><path d="M73.5,181.08c2.53,2.88,2.48,9-.1,11.62A23.22,23.22,0,0,0,73.5,181.08Z" style="fill:#282828"/><path d="M58.67,205.79c-2.3,2-6,1.83-8.73-.39A42.52,42.52,0,0,0,58.67,205.79Z" style="fill:#282828"/><path d="M72.18,177.57c1.52.1,2.08.68,1,2.07A2.54,2.54,0,0,1,72.18,177.57Z" style="fill:#282828"/><path d="M70.57,198.6c.45,1.34-.07,1.92-1.44,1.82A2.75,2.75,0,0,1,70.57,198.6Z" style="fill:#282828"/><path d="M68,201.35c0,1.07-.58,1.48-1.61,1.31C66.69,201.9,67.12,201.32,68,201.35Z" style="fill:#282828"/><path d="M49.08,205.3c-1,.4-1.76.32-2-.93A2,2,0,0,1,49.08,205.3Z" style="fill:#282828"/><path d="M107.47,146.61c-.48-.21-.93,1.62-1.26.16a24.12,24.12,0,0,1-.07-4.87l1.33,1.74Z" style="fill:#010101"/><path d="M25.81,136.47c-1.41-.72-1.31-1.68-.42-2.75a.72.72,0,0,0,.65-.14A4.77,4.77,0,0,1,25.81,136.47Z" style="fill:#010101"/><path d="M86,198.45c-.1.49-.21,1-.31,1.46-1-.29-1.38-.72-.36-1.49A1.53,1.53,0,0,1,86,198.45Z" style="fill:#282828"/><path d="M109.11,175c.25-.61.57-1.42,1.32-.77.44.37-.43.56-.65.88Z" style="fill:#010101"/><path d="M168.07,207.25a.82.82,0,0,0,0,.65c-4.41,1.25-8.92.33-13.37.53a1.61,1.61,0,0,1-1.62-1.6c-.09-.93.5-1.24,1.3-1.3.4,1.74,1.68,1.57,3.05,1.56C161,207.06,164.52,207.18,168.07,207.25Z" style="fill:#282828"/><path d="M77.35,153.76c0-3.49,2-5.24,5.21-5.65a5.46,5.46,0,0,1,6.26,3.72c1,2.84.32,5.65-2.55,7.08-2.7,1.35-5.55,1.5-7.65-1.4,1.48-1,3.16-.81,4.82-.85,2.24-.06,3.54-1.52,2.84-3.46-.78-2.16-1.84-4.92-5.48-3.44.24.55,2.1,1.33.82,1.5-2,.27-3.07.49-2.54,2.73Z" style="fill:#282828"/><path d="M77.35,153.76l1.74.23c-.53-2.24.53-2.47,2.54-2.73,1.28-.17-.58-.95-.82-1.5,3.64-1.48,4.7,1.28,5.48,3.44.69,1.94-.6,3.4-2.84,3.46-1.66,0-3.34-.14-4.82.85A8.39,8.39,0,0,1,77.35,153.76Z" style="fill:#010101"/><polygon points="35.2 180.66 35.05 180.43 35.39 180.24 35.42 180.52 35.2 180.66" style="fill:#010101"/><polygon points="70.89 104.08 71.19 104.41 71 104.34 70.9 104.08 70.89 104.08" style="fill:#010101"/><path d="M156.69,211.41a39.22,39.22,0,0,1,6.68-.82c2.48,0,3.37,1,3.34,3.42-.1,6.31,0,12.62-.05,18.93-4,1.34-7,.6-8.66-2.1-.09-1.14.51-2.58-1.31-3Z" style="fill:#010101"/><path d="M156.69,211.41V227.9a2.47,2.47,0,0,0,1.31,2.95c1.63,2.7,4.68,3.44,8.66,2.1,1.75-.76,1.44-2.33,1.4-3.72-.18-6,.48-12-.36-17.93-.21-1.48.51-2,1.77-2,1.54,0,1.08,1,1,2a169.81,169.81,0,0,0,.13,21.52c.12,1.32-.18,2.33-1.21,2.64-4.17,1.28-8.31,2-12.37-.7-3-2.05-3.41-4.93-3.39-8.14,0-5,0-10.07,0-15.1,0-.95-.08-2,1.27-2.18C156.59,209.12,156.58,210.32,156.69,211.41Z" style="fill:#282828"/><path d="M202.07,193.89c2.2.64,4.42,1.22,5.86,3.23-1.74,2.26-5.62,2.72-7.37.81C198.45,195.65,201,195,202.07,193.89Z" style="fill:#282828"/><path d="M185.38,207.71c2.18-1.26,4.59-.44,6.88-.75,1.18-.16,2.73.55,3.19-1.34,2.65.87,1.59,2.43,0,2.57C192.14,208.5,188.66,209.3,185.38,207.71Z" style="fill:#282828"/><path d="M170.27,207.75c3.13-1.36,6.3-.91,9.48-.2C176.62,209.22,173.45,208.74,170.27,207.75Z" style="fill:#282828"/><path d="M199.08,191.93c1.27,0,2,.93,2.72,1.77C200.09,194.35,199.26,193.63,199.08,191.93Z" style="fill:#282828"/><path d="M252.44,207.83c2.47,0,4.95-.1,7.43-.07s.24-1.06.4-1.57c.72-1,1.77-.95,2.83-.81.79,2.14,3,3.07,4.13,5.06a7.2,7.2,0,0,1,.68,6.14c-.78,2.19-3.09,1.18-4.76,1.27-2.49.13-5-.14-7.5.07-3.18.27-4.44-1-4-4.12Q252,210.8,252.44,207.83Zm6.88,7.13c.88,0,1.48,0,2.07,0,1.33-.15,3.28.63,3.6-1.33.26-1.61-1-2.84-2.46-3.64a3.42,3.42,0,0,0-3.07-.38c-2,.75-5.14.39-4.8,3.64S258,214.17,259.32,215Z" style="fill:#282828"/><path d="M87.68,203.77A2.4,2.4,0,0,1,89,205.6C87.73,205.54,87.38,204.88,87.68,203.77Z" style="fill:#282828"/><path d="M120,205a2.28,2.28,0,0,1,1.26-2.32C121.36,203.7,121.43,204.74,120,205Z" style="fill:#282828"/><path d="M122.11,200.59a1.82,1.82,0,0,1,1-2C123.55,199.67,123.35,200.39,122.11,200.59Z" style="fill:#282828"/><path d="M104.94,213.13a9.44,9.44,0,0,1,5.6-1.2C109,213.89,107,213.79,104.94,213.13Z" style="fill:#282828"/><path d="M266,195.41a13.12,13.12,0,0,1,4.08,3.44,2.42,2.42,0,0,1-2.56,1.2,1.66,1.66,0,0,0-1.57-1.59c-4.81-.85-9.67-1.58-14.19.84-1.69.91-4.24-.57-5.19,2l-1.49.28-.7-.46c-.38-2.76,2.26-2.54,3.57-3.62a1.89,1.89,0,0,0,2.21-1.33,31.16,31.16,0,0,1,11.55-1.45c.57.87,1.38.76,2.21.53Z" style="fill:#282828"/><path d="M246.61,201.31c.95-2.58,3.5-1.1,5.19-2,4.52-2.41,9.38-1.68,14.19-.84a1.64,1.64,0,0,1,1.57,1.59l-3.15.2c-1.24-.34-2.54-1.05-3.46.57C256.21,202,251.41,201.69,246.61,201.31Z" style="fill:#0f0f0f"/><path d="M261,200.83c.91-1.62,2.21-.92,3.46-.57A2.86,2.86,0,0,1,261,200.83Z" style="fill:#282828"/><path d="M343.13,149.43v.76C342.57,149.93,342.62,149.68,343.13,149.43Z" style="fill:#010101"/><path d="M239,35.11c-1.33,4.66-3.81,8.94-3.66,14.09.32,11,7.74,21.31,18,24.47,11.45,3.54,22.76-.32,29.47-10,.66-1,.93-2.26,2.16-2.79a1.21,1.21,0,0,1,1.41.72c.16,5-4.08,7.21-7,9.79a26.2,26.2,0,0,1-17.95,6.8c-8.28-.06-14.75-3.62-20.36-9.14-1.66-1.63-3.6-3-4.82-5.21-1.48-2.64-3.11-5.06-1.85-8.31a2.13,2.13,0,0,0-.67-2.6l-1.39,0V46.53l1.39-.75h0v4.94l.64,0v-5c0-3.77,2.54-6.91,2.64-10.73C237,33.83,238.23,35.05,239,35.11Z" style="fill:#282828"/><path d="M214.16,60.29c-9.29-5-18.52-5.64-27.83.07a25.53,25.53,0,0,0-9.45,33.18c.54,1,1,2.15,1.43,3.22-2,1.11-3.58,1.13-3.65-1.67,0-1.44-1.09-2.09-1.77-3-.92-1.25-1.61-2.58-.92-4s1.88-2.68-1.14-2.58c-.81,0-.54-1.45-.49-2.23.46-7.44,2.66-14.27,7.85-19.76,3.5-3.71,7.14-7.3,12.42-8.71,1.7-.45,3,.1,4.47.17a31.28,31.28,0,0,0,9-.69h-8.3c4.67-2.34,9.78-1.64,12.66,1.3.65.67,1.08.56,1.81.48C213.33,55.76,214.65,57.2,214.16,60.29Z" style="fill:#282828"/><path d="M293.4,138c-10.14-5.28-20.13-5.77-29.71,1.25a24.17,24.17,0,0,0-10.15,18.19c-.14,1.66-.18,3.33-.27,5l-.88,0c.1-2.24,1.14-5.65.11-6.48-2.56-2.06-1.37-4.26-.62-5.67,3.07-5.81,6.33-11.28,12.57-14.86a35.69,35.69,0,0,1,12.61-4.7c5.73-.89,10.47,1.8,15.41,3.8C294,135.13,293.22,136.79,293.4,138Zm-21.24-4.45.58-.3c-.18-.12-.36-.32-.55-.32s-.39.17-.59.27Z" style="fill:#282828"/><path d="M295.07,116.1c7.27,4.38,14.94,6.21,23.22,3.32a25.69,25.69,0,0,0,16.66-17c.37-1.12.89-2.19,1.33-3.28.14.68.29,1.36.43,2,.84,2.53,1.92,4.88-1.84,6.42-1.12.46-1,3.41-2,4.7-6.9,8.43-15.62,13-26.78,11.83C300.88,123.66,295.68,119.81,295.07,116.1Z" style="fill:#282828"/><path d="M215.5,103.23c5.36-5.08,9.58-10.73,10.4-18.44.64-6.07-1.12-11.46-3.82-16.69,5.06,1.18,6.22,2.36,6.42,7.72.07,1.81,1.55,2.83,1.57,4.63,0,3.14-.3,6.08-2.09,8.78-1.34-.32-.34-1.72-1.1-2.34l-.33.32c0,1.3-.33,2.63.22,3.9a2.87,2.87,0,0,1,.23.68C227.6,96.35,220.07,103.84,215.5,103.23Z" style="fill:#282828"/><path d="M192.87,133.74c-4.38,6.41-7,13.4-5.46,21.21,2,10,7.82,17,17.7,20.23a23.43,23.43,0,0,1,2.55,1.18c-1.32.45-2.64.91-4,1.33-.43.14-1.25.32-1.3.21-1.62-3.46-6-2.73-8.19-5.53s-4.94-5.34-6.79-8.57c-.85-1.49-.23-3.8-.68-4.14-2.19-1.65-.44-3.47-.74-5.12-.11-6.07,0-12.08,3.58-17.41.34-.5.09-1.39.12-2.1h0c1.14.18,1.43-1,2.17-1.4Z" style="fill:#282828"/><path d="M286.53,55.87c2.81-14.15-3.17-25.28-16.67-31.07-.54-.23-1.05-.55-1.58-.83l3.51-1.21c1.65,2,4.46,1.79,6.41,3.48s4,2.69,4.82,5.58c.51,1.75,3.13,2.89,4.16,4.88,1.12,2.17,2.85,4.24,1.19,6.89,0,3,0,6,0,8.94C288.37,54,288.51,55.51,286.53,55.87Z" style="fill:#282828"/><path d="M258.83,95.79c-5.15-3-10.34-3.54-15.36.15-5.3,3.89-6.26,9.21-4.58,15.26-2.73,1.27-3.41.08-3.84-2.58-1.17-7.27,2.57-12.09,7.9-15.83,1.17-.82,3.21-2.23,5.59-1.23a6.62,6.62,0,0,0,5.91-.19c1.53-1,2.38-.41,3.44.45C259.24,92.9,260,94.11,258.83,95.79Z" style="fill:#282828"/><path d="M301.31,70.1c-4.37,2.81-9,5.21-12.12,9.67a26.69,26.69,0,0,0-4.4,20.71c-1.57-.1-1.45-1.26-1.52-2.35-.26-4,.4-8.06-.81-12.13-.57-1.94,1.91-3.57,2.85-5.44,1.25-2.49,3.45-4.52,5.3-6.7.59-.7,1.2-1.47,2.42-1s2.07-.11,2.51-1.31C296.74,68.28,298.76,68.16,301.31,70.1Z" style="fill:#282828"/><path d="M328.53,76.15c-5.84-4.6-12.2-7.62-19.9-7.25-2.05.1-3.86,1.22-5.91,1,1-3.13,4-1.07,6.07-2.32L304,67.07c0-.26.05-.53.08-.79h11.39c-.81,1.75-2.41.48-3.76,2,6.51-1.42,11.9-.34,16.27,4.12C328.14,73.67,328.33,74.91,328.53,76.15Z" style="fill:#282828"/><path d="M280.53,186a6.48,6.48,0,0,1,3.59-.37c1.6,1.15,2.64.22,3.6-1l1.46-.38c1.38.91,1.69-.24,2.14-1.11.81-.52,1.42-1.41,2.51-1.45a1.94,1.94,0,0,0,2.56-1.75,9.08,9.08,0,0,1,3-3.06,1.22,1.22,0,0,0,1.2-1.56l.24-.64c.18.07.37.13.55.18,1.46,1.71.69,2.64-.67,4.27-3.79,4.56-8.89,6.82-14,9.3-2.56,1.25-4.54.59-6.31-1.4C280.48,186.69,280.5,186.34,280.53,186Z" style="fill:#0f0f0f"/><path d="M252.38,162.4l.88,0c.12,1.21.23,2.42.35,3.63-1.13,1.52-.17,2.25,1.09,2.86a3.89,3.89,0,0,1,.27.54l-.08.3c-.48,1.13-.17,1.82,1.09,2l2.84,4.39a1.23,1.23,0,0,0,1.22,1.48l.15.13a1.26,1.26,0,0,0,1.25,1.3,1.35,1.35,0,0,1,1.26,1.2c-.2.77-.15,1.9-.65,2.24-.75.51-1.61-.41-2-1-2.58-3.33-6.75-5.68-6.74-10.68,0-.4-.82-.78-1.2-1.21C249.55,166.81,249.61,165.26,252.38,162.4Z" style="fill:#0f0f0f"/><path d="M203,126.78l-4.51,1.82-.91-.23c-.62-.9-.78-1.88.26-2.47,2.35-1.33,4.77-3.45,7.2-3.5,2.67-.05,4.76-1.25,7.15-1.67,2.69-.47,4.53.16,4.19,3.43-2.53.81-5.38-.68-7.78,1.07l-.74.18A4.86,4.86,0,0,0,203,126.78Z" style="fill:#0f0f0f"/><path d="M304.79,154.44c0-.34,0-.69-.05-1l.42-1.14c1.84-.17,3.1.59,3.29,2.47.62,5.84.45,11.61-2.2,17-.48,1-.92,2.8-2.77,1.39.79-3,1.74-5.93,2.34-9C306.5,160.89,307.57,157.43,304.79,154.44Z" style="fill:#0f0f0f"/><path d="M336.71,101.23c-.14-.68-.29-1.36-.43-2,0-2.76,0-5.52.05-8.29.12-.9.23-1.8.35-2.7l.25-.19a4.85,4.85,0,0,0-.29-.49A34.26,34.26,0,0,1,333,78.89l.05,0c3.65.75,3.61,4.35,4.82,6.75,2.05,4.08,1.2,8.76,1.6,13.19C339.65,100.68,338.36,101.24,336.71,101.23Z" style="fill:#0f0f0f"/><path d="M243.18,116.77c5.58,3.18,11,3.11,16.26-.74-.19,2.09.15,5-2.62,5.13-3.77.24-8.06,4.74-11.34-.91-.23-.4-.16-.94-.82-.78C240.94,120.33,242.68,118.21,243.18,116.77Zm6.12,4.29c1.12.38,2.08.66,3.16-.18A3.69,3.69,0,0,0,249.3,121.06Z" style="fill:#282828"/><path d="M271.79,22.77,268.28,24l-1.46-.19c-2.76-2.57-8.63-2.6-10.9-.06a2.71,2.71,0,0,1-2.15.3c-1-1.07-2.33-.36-3.49-.57-1.17-1-.17-1.54.59-1.71,5.56-1.18,11.08-3.77,16.8-.62C269,21.84,271.25,20.13,271.79,22.77Z" style="fill:#0f0f0f"/><path d="M202.75,108.21a34.13,34.13,0,0,0,12.75-5c.79,3.06-.77,5.18-5,6.54-1.57.5-3.28.57-4.83,1.11C202.91,111.83,202.6,110.34,202.75,108.21Zm4.95.38-.24.17.13.23.37-.28Z" style="fill:#282828"/><path d="M189.7,135c0,.71.22,1.6-.12,2.1-3.6,5.33-3.69,11.34-3.58,17.41-1.26,0-2.44-.26-2.68-1.79-.71-4.42,2.24-14.57,5.69-17.58C189.16,135,189.46,135.07,189.7,135Z" style="fill:#0f0f0f"/><path d="M239,147.22c-1.82-6.92-4.78-13.15-10.77-17.5a7,7,0,0,0-.94-.49c.05-.23.1-.47.13-.71,2.89-.35,6.4,2.22,7,5.2a3.31,3.31,0,0,0,.69,1.58c.69.82,2.87,0,2.46,1.42C236.41,140.53,241,143.43,239,147.22Z" style="fill:#282828"/><path d="M286.53,55.87c2-.35,1.84-1.89,1.84-3.33,0-3,0-6,0-8.94.95,0,2.16,0,2.08,1.31-.2,3.59.68,7.18-.68,10.82-.84,2.26-.24,5.11-3.48,5.9a1.2,1.2,0,0,0-1.41-.72,1.42,1.42,0,0,1,.53-1.5c1.57-.16,2-.8.9-2.1C286.39,56.82,286.46,56.34,286.53,55.87Z" style="fill:#0f0f0f"/><path d="M250.28,23.44c1.16.21,2.47-.5,3.49.57a44.46,44.46,0,0,0-13.64,9.51c-.72-3.61,1.12-6.18,4.68-6.49,1.49-.13,2.86-.41,3.25-2.17l0,0C249.09,24.88,250.16,24.89,250.28,23.44Z" style="fill:#282828"/><path d="M305.17,152.27l-.42,1.14c-2.37-6-5.74-11.32-11-15.24,3.31-1,4.64,2.11,6.87,3.37.34,3.45,2.75,5.84,4.39,8.62Z" style="fill:#282828"/><path d="M304.79,154.44c2.77,3,1.71,6.44,1,9.76-.6,3-1.55,6-2.34,9l-2.1,1.71a5.05,5.05,0,0,1-.55-.18A31.63,31.63,0,0,0,304.79,154.44Z" style="fill:#282828"/><path d="M259.77,115.85a30.46,30.46,0,0,0,4.26-7.48c2.47-.12,3.08.86,2.24,3.23C264.85,115.63,262.69,117.16,259.77,115.85Z" style="fill:#282828"/><path d="M221.9,67.7c-2.42-2.46-4.65-5.12-7.48-7.16,2.43-1.65,4.39-.41,5.94,1.29S223.82,65.12,221.9,67.7Z" style="fill:#282828"/><path d="M184.73,103.22a57.54,57.54,0,0,0,11.15,4.94c-2.08-.34-4.61,2.43-6.26-.91-1.54,1-3.17,1.14-4.21-.47C184.81,105.83,184.94,104.42,184.73,103.22Z" style="fill:#282828"/><path d="M264,103.38a31.46,31.46,0,0,0-4.73-7.22c1.85-1.91,2.94-1.82,4.45.73.92,1.55,1.3,3.34,2.46,4.89C267.48,103.51,265.06,103.16,264,103.38Z" style="fill:#282828"/><path d="M232.86,167.41c2.86-3.9,4.54-8.35,6.07-12.87,1.19,3.49-1,6.18-2.3,9C235.87,165.17,236.25,168.23,232.86,167.41Z" style="fill:#282828"/><path d="M282.61,89.43c0,2.94,0,5.88,0,8.82,0,.85-.24,1.87-1.26,1.81-1.2-.07-.91-1.26-.84-2C280.79,95.15,279.49,92,282.61,89.43Z" style="fill:#0f0f0f"/><path d="M178.31,96.75l6.13,6.21c-1,.28-1.41,2.42-2.8,1.13-1.64-1.52-3.54-3-3.55-5.61A12.79,12.79,0,0,1,178.31,96.75Z" style="fill:#282828"/><path d="M305,150.17c-1.64-2.78-4.05-5.18-4.39-8.62,3.67,1,4.2,4.59,5.68,7.34C306.63,149.55,305.77,150.07,305,150.17Z" style="fill:#0f0f0f"/><path d="M285,102.25c1.21,2.45,2.41,4.89,3.62,7.33-1.28.22-2.74.66-2.64-1.48.05-1.15-.82-1.35-1.52-1.67-1.72-.77-2.1-2.07-1.67-3.93C283.7,103.4,284.81,105.18,285,102.25Z" style="fill:#282828"/><path d="M267.22,183.05l1,.48c.07,1,.38,1.5,1.39.78l1.44.4c0,.48.05,1,.08,1.44-3.93,1.47-7.24-.82-7-4.82a.36.36,0,0,1,.5.3A1.82,1.82,0,0,0,267.22,183.05Z" style="fill:#0f0f0f"/><path d="M274.67,185.65a4,4,0,0,1,2.84.3l.83,1.07c.06,2.65-.9,3.51-3.37,2a19.86,19.86,0,0,0-2.82-1.18c.35-1.5,2-.57,2.52-1.49A1,1,0,0,0,274.67,185.65Z" style="fill:#0f0f0f"/><path d="M328.53,76.15c-.2-1.24-.39-2.47-.59-3.71,2.36,1.61,4.73,3.23,5.12,6.41l-.05.05c-1.27.18-1.64-1.8-3.06-1.29l0,0c.22-1.18-.28-1.66-1.44-1.49Z" style="fill:#0f0f0f"/><path d="M292.71,116.3a3.9,3.9,0,0,1-4.28-5.06c1.27.27,1.25,2.58,3.09,2l-.22.21.2-.22c-.26,1.22.23,1.7,1.45,1.46l-.2.22.18-.23C292.86,115.19,292.78,115.74,292.71,116.3Z" style="fill:#0f0f0f"/><path d="M211.25,176.6a10.26,10.26,0,0,1,4.48,0C214.27,179.67,212.76,178.57,211.25,176.6Z" style="fill:#282828"/><path d="M158.75,125c.12-1.52-.36-3.1.75-4.52.5,1.58,2,3.25-.75,4.52Z" style="fill:#0f0f0f"/><path d="M239.2,112.19a5,5,0,0,1,2.15,2.8c-1,.6-2.08.84-2.84-.27S238.69,113,239.2,112.19Z" style="fill:#282828"/><path d="M274.67,185.65a1.12,1.12,0,0,1,0,.7l-3.58-.19c0-.48-.05-1-.08-1.44A6.26,6.26,0,0,1,274.67,185.65Z" style="fill:#282828"/><path d="M291.51,113.21c-1.84.61-1.81-1.69-3.09-2,.08-.55.15-1.09.23-1.64C290.08,110.42,290.74,111.86,291.51,113.21Z" style="fill:#282828"/><path d="M191.87,133.62c-.74.44-1,1.58-2.17,1.4.05-1-.08-2.22,1.24-2.54C191.75,132.28,191.76,133.07,191.87,133.62Z" style="fill:#0f0f0f"/><path d="M234.28,45.71v5l-.64,0V45.77Z" style="fill:#0f0f0f"/><path d="M278.34,187l-.83-1.07a3.33,3.33,0,0,1,3,0c0,.34,0,.69-.07,1Z" style="fill:#282828"/><path d="M250.2,196.18a1.89,1.89,0,0,1-2.21,1.33C248.38,196.49,248.49,195,250.2,196.18Z" style="fill:#0f0f0f"/><path d="M233.64,45.77l-1.39.75c.19-.88-.66-2.28.83-2.47C233.74,44,233.6,45.12,233.64,45.77Z" style="fill:#0f0f0f"/><path d="M232.26,52.9l1.39,0c0,.65.19,1.7-.56,1.75C231.83,54.78,232.37,53.59,232.26,52.9Z" style="fill:#0f0f0f"/><path d="M197.59,128.37l.91.23a2.9,2.9,0,0,1-2.12,1.72C196.09,129.25,196.64,128.69,197.59,128.37Z" style="fill:#282828"/><path d="M264,195.26c-.83.23-1.64.34-2.21-.53C262.76,193.76,263.49,194,264,195.26Z" style="fill:#0f0f0f"/><path d="M292.71,116.3c.08-.55.15-1.11.23-1.66a2.34,2.34,0,0,1,2.14,1.47Z" style="fill:#282828"/><path d="M199.05,108.27a1.05,1.05,0,0,1,1.5,0C200,109.12,199.54,109.11,199.05,108.27Z" style="fill:#282828"/><polygon points="248.07 24.86 247.75 24.71 248.04 24.89 248.07 24.86" style="fill:#282828"/><path d="M217,195.77l-1.34-1.12c.23-1.26,2-2,1.35-3.5-1.63-3.76,1.07-4.76,3.6-6.05,5.14-2.64,5.3-2.69,5,3.28-.14,3.09,1.19,6.32-.64,9.3C222.17,197.8,219.88,195.58,217,195.77Z" style="fill:#0f0f0f"/><polygon points="340.22 78.86 340.55 78.56 340.25 78.89 340.22 78.86" style="fill:#010101"/><path d="M268.23,14.08l4.2.1A3.3,3.3,0,0,1,268.23,14.08Z" style="fill:#010101"/><polygon points="332.3 59.42 332.62 59.13 332.33 59.45 332.3 59.42" style="fill:#010101"/><path d="M158,230.85a2.47,2.47,0,0,1-1.31-2.95C158.51,228.27,157.91,229.71,158,230.85Z" style="fill:#0f0f0f"/><path d="M259.32,215c-1.32-.79-4.31,1.56-4.65-1.72s2.79-2.89,4.8-3.64a3.45,3.45,0,0,1,3.07.38c1.43.8,2.72,2,2.46,3.64-.32,2-2.27,1.18-3.6,1.33A20,20,0,0,1,259.32,215Z" style="fill:#0f0f0f"/><path d="M330,77.6c1.42-.51,1.79,1.47,3.06,1.29a34.63,34.63,0,0,0,3.62,8.63,3.82,3.82,0,0,0,0,.68c-.12.9-.23,1.8-.35,2.7C334.56,86.3,332.82,81.68,330,77.6Z" style="fill:#282828"/><path d="M293,114.65c-1.22.25-1.71-.23-1.45-1.46A1.54,1.54,0,0,1,293,114.65Z" style="fill:#282828"/><path d="M328.53,76.15c1.16-.16,1.66.31,1.45,1.49A2,2,0,0,1,328.53,76.15Z" style="fill:#282828"/><path d="M287.72,184.64c-1,1.2-2,2.13-3.6,1C285.27,185.14,286.38,184.46,287.72,184.64Z" style="fill:#282828"/><path d="M254.7,168.93c-1.26-.61-2.22-1.34-1.09-2.86C254.39,166.87,255,167.71,254.7,168.93Z" style="fill:#282828"/><path d="M291.32,183.15c-.45.87-.76,2-2.14,1.11A1.83,1.83,0,0,1,291.32,183.15Z" style="fill:#282828"/><path d="M296.39,180a1.94,1.94,0,0,1-2.56,1.75A3,3,0,0,1,296.39,180Z" style="fill:#282828"/><path d="M267.22,183.05a1.82,1.82,0,0,1-2.59-1.41A3.87,3.87,0,0,1,267.22,183.05Z" style="fill:#282828"/><path d="M261.45,179.06a1.26,1.26,0,0,1-1.25-1.3C261.1,177.73,261.35,178.32,261.45,179.06Z" style="fill:#282828"/><path d="M260.05,177.63a1.23,1.23,0,0,1-1.22-1.48A1.47,1.47,0,0,1,260.05,177.63Z" style="fill:#282828"/><path d="M300.6,175.32a1.21,1.21,0,0,1-1.2,1.56A1.61,1.61,0,0,1,300.6,175.32Z" style="fill:#282828"/><path d="M256,171.76c-1.26-.17-1.57-.86-1.09-2A2,2,0,0,1,256,171.76Z" style="fill:#282828"/><path d="M269.57,184.31c-1,.72-1.32.18-1.39-.78A1.39,1.39,0,0,1,269.57,184.31Z" style="fill:#282828"/><path d="M255.92,23.72c2.27-2.54,8.14-2.51,10.9.06A37.91,37.91,0,0,0,255.92,23.72Z" style="fill:#282828"/><path d="M286.32,57.3c1.09,1.29.68,1.94-.9,2.1A2.5,2.5,0,0,1,286.32,57.3Z" style="fill:#282828"/><path d="M244,102.2c1.85-3.6,4.94-5,8.81-4.12,4.2,1,6.3,3.62,6.33,7.9,0,4.62-2.13,7.39-6.62,8.44a7.54,7.54,0,0,1-8.5-4.17l.56-.53c1.08.1,2-.21,3.26.43,3.86,2,7.84.21,8.17-3.12.43-4.3-2.87-7-7-5.56-1.46.5-2.81,1.29-4.41,1.27Z" style="fill:#282828"/><path d="M244,110.26c-1.87-2.68-2-5.37,0-8.06l.59.56c1.43,2.33.84,4.65,0,7Z" style="fill:#282828"/><path d="M272.16,133.56l-.56-.36c.2-.1.4-.28.59-.27s.37.21.55.32Z" style="fill:#010101"/><path d="M336.68,88.2a5.17,5.17,0,0,1,0-.68,4.85,4.85,0,0,1,.29.49Z" style="fill:#010101"/><path d="M249.3,121.06a3.68,3.68,0,0,1,3.16-.18C251.39,121.72,250.42,121.44,249.3,121.06Z" style="fill:#010101"/><polygon points="207.7 108.59 207.97 108.71 207.6 108.99 207.47 108.76 207.7 108.59" style="fill:#010101"/><path d="M244.56,109.73c.85-2.32,1.44-4.65,0-7,1.6,0,3-.77,4.41-1.27,4.15-1.42,7.44,1.25,7,5.56-.33,3.33-4.31,5.08-8.17,3.12C246.57,109.52,245.65,109.83,244.56,109.73Z" style="fill:#010101"/><rect x="106.39" y="213.69" width="290.23" height="109.63" style="fill:#010101"/><path d="M54.7,208.57c1,0,16.3-8.54,16.3-8.54s3.72-8.08,4.37-8.32,3.16-2.87,3.64-3,2.9-1.08,2.9-1.08l1.09,2,1,3,.73,9.33,6.66,7.25,3.3,2.63,3.16,4.22,1.93-2.56h2.64s3.41.93,3.68,2-2.92,21.32-2.46,22.18-2.66,2.18-2.66,2.18l-5.82-1.33H78.25L63.91,236l-4.07-2.38-10-19.38Z" style="fill:#010101"/><path d="M127.88,190.51l-3,5.75-1.54,4.16L121.24,204l-2.95,4.7-5.11,4.49-3.35.66s-7.5,2.58-5.32,4.14,3.85,7,9.48,7.87,29.77-.32,33.75,1.11,13.29,6.54,13.6,5.78-2.34-10.22-2.75-11.53-2.94-8.87-3.29-9.52-2.22-4.81-2.22-4.81,0-2.36,0-2.7,3.14-3.54,3.14-3.54l5.95-10.8,2.49-5.15-4.76-6s-22.67,2.44-23.51,3.52S127.88,190.51,127.88,190.51Z" style="fill:#010101"/><path d="M149.38,208.67l6.52-.91a27.88,27.88,0,0,1,4.44.45c1.07.34,13-.45,13-.45l8.62.81,6.73,0a55.25,55.25,0,0,0,5.6-.85c.36-.25,3-1.57,3-1.57s9.8-.95,10.27-.89,10.76.89,10.76.89,14.2.23,14.94,0a21.64,21.64,0,0,1,3.9,0l6.54,1.6,12.18.78,8.12-2.38L278.31,205l11.77-3.79,6.28-3.61,6.39,2.35.69,9.48,4.87-.22,5.32-.6a44.93,44.93,0,0,0,.8,6.48c.74,4-20.73,14-20.73,14s-126.76,5.37-127,5.13S149.38,208.67,149.38,208.67Z" style="fill:#010101"/><polyline points="169.25 225.42 131.47 247.65 129.34 368.84 338.62 368.84 338.62 328.12 294.98 276.85 294.37 222.76" style="fill:#010101"/><polyline points="486.85 245.9 489.02 199.84 409.65 260.63 393.31 263.5 393.31 316.2 412.24 318.12 474.43 367.27 484.38 367.27 463.3 308.53 485.81 267.81 486.85 245.9" style="fill:#0f0f0f"/><polygon points="58.88 275.55 57.57 343.14 71.52 343.14 73.4 274.24 58.88 275.55" style="fill:#0f0f0f"/><path d="M303.47,209.39l18.72-1.54s8.39,2.84,8.95,2.82.48,2.45,7.48,2.58,25.54,0,25.54,0h19.55l6.16.55s3.79,15.61-7.89,24.84-67.72-9.36-67.72-9.36" style="fill:#010101"/><path d="M189,167.55l7.67,4.63,4.78,4,4,1.48,8.08,1,9.28-.89,9.16-1.14s8.77-.07,10,1.36,9.2,13.22,9,14-9.83,7.73-9.83,7.73-6.26-.7-7.12-1-8.41-2.12-8.41-2.12l-7.95-1.81-9.7-5.35-10.86-6L182.8,170.76l-2.4-5.49Z" style="fill:#010101"/><path d="M244.39,194.7l18.47-3.41s9.67,1.71,9.89,1.64,2.25.8,2,1-7.51,3.74-7.51,3.74-10.62,2.07-10.75,2-8.76.88-9.87.83-7.38-1.21-7.32-1.55S244.39,194.7,244.39,194.7Z" style="fill:#010101"/><path d="M193.35,199.13s11.58,8.21,11.9,8.16.9-.7,8.24-.41a74.48,74.48,0,0,0,13.24-.59c-.32,0-15.48-4.63-15.48-4.63l-10.47-1.08S190.72,194.69,193.35,199.13Z" style="fill:#010101"/><path d="M327.94,177.7l-21.82,16.19-7.62,2.56-3.4,6.24s-5.35,4.1,1.28,2.27,9.8-1,11.39-2.94,5.38-7.42,7.48-8.13,12.11-11.47,12.11-11.47S342.21,177.7,327.94,177.7Z" style="fill:#010101"/><path d="M179.07,184.08c1,.07,6.8,19.64.68,23.47s1.05,3.15,1.05,3.15l3.17,0s10.7-16.17,0-26.58" style="fill:#010101"/><path d="M183.27,187l9.64,3.57v3.35S180.62,191.93,183.27,187Z" style="fill:#010101"/><path d="M175,183.39l-16.24,29.34,5.17-.67,13.34-27S177.5,181.58,175,183.39Z" style="fill:#010101"/><path d="M182,186.08l-16.24,29.34,5.17-.67,13.34-27S184.48,184.28,182,186.08Z" style="fill:#010101"/><path d="M170.92,179.48l-16.24,29.34,5.17-.67,13.34-27S173.42,177.67,170.92,179.48Z" style="fill:#010101"/><path d="M171,175.34a1.91,1.91,0,0,1,2.89-.65c4.82,3.8,17.4,13.77,19.62,16,1.87,1.86.28,2.8-.93,3.21a1.87,1.87,0,0,1-1.79-.33c-3.75-3.06-20.53-16.8-20.13-17.54Z" style="fill:#010101"/><path d="M116.51,229.53,104.11,394.3c-.25,3.28,2.09,6.1,5.07,6.1h15.18c2.89,0,5.2-2.67,5.08-5.87l-.82-22c-.12-3.3,2.33-6,5.31-5.86l38.3,1.89a5.4,5.4,0,0,1,4.86,5.49l.48,22.59a5.34,5.34,0,0,0,5.26,5.49l39.53-1.51c3.46-.13,5.79-4,4.6-7.57L169.08,218.64A5.1,5.1,0,0,0,164,215C152.36,215.74,117.88,218.91,116.51,229.53Z" style="fill:#fff"/><path d="M184.09,232.09,243.26,399.3a8.35,8.35,0,0,0,7.84,5.62h65.76a8.27,8.27,0,0,0,7.43-4.64c2.38-4.85-1.15-24.66-9.24-29.36-10-5.81-35.12,3.65-50.42,3.91-3.89.07-8-4.45-8.92-8.31-6.59-27.43-47.87-126.31-46.94-130,1.07-4.24,23.12,9.8,39.41,7.72,15.87-2,45.67-55.43-58.66-23.19A8.56,8.56,0,0,0,184.09,232.09Z" style="fill:#fff"/><path d="M137.15,249.21l-7.36,95.45a10.72,10.72,0,0,0,10.68,11.54H173.7a10.72,10.72,0,0,0,10.36-13.46l-24.54-92.5A10.63,10.63,0,0,0,156.3,245C151,240.25,138.53,231.32,137.15,249.21Z" style="fill:#010101"/><path d="M231.42,350.79c1.29-.17-2.8,57.76-2.8,57.76s1.43,11.83,22.4-7.58" style="fill:#fff"/><path d="M315.06,370.92l-46.19-19.76s.56,14.44,2,14.12,23.11,1,21.34,11.73" style="fill:#fff"/><path d="M178,368.84s-3,29-17.83,22.73c0,0-51.54,14.84,62.16,9.1" style="fill:#fff"/><path d="M231.69,234.2l9.41,61.48s9.18,8.92,13.49-14.21,13.93-52.82,8.61-60.2" style="fill:#fff"/><path d="M289.17,221.44a19.15,19.15,0,0,1,2.32-.67c9.1-2.06,65.73-14.1,73.57,4,6.55,15.13,10.59,37.56,12.11,47.16a18.87,18.87,0,0,1-3,13.86c-3,4.31-8.44,8-18,5.63-19-4.79-31-47.13-26.47-55.18s-37.29-1.15-36.41,16.13-12.81,67.1,13.44,74.28,45.7,30.27,48.83,14.77,6.93-28-15.81-26.52-27.23-3-20.43-11.56,11.05-4.25,24.5-5.68,31.05-5.75,29.67,1.92,4.74,33.23,4.32,48,14.79,26.82-4.32,31.57-91.82-26.13-104-45.76C257.5,314,253.57,234.76,289.17,221.44Z" style="fill:#fff"/><path d="M342.45,249.46,327.3,273.7s-15.48-.2-15.67,2,6.5,11.13,6.5,11.13,44.1,14.88,55.27-1.82" style="fill:#fff"/><path d="M344.78,370.28l-8.74-6.7,37.5-64s22.25,80.77,2.67,95.34-42.54,3.37-44.47-6.94,2.82-35.36,9.55-37.45" style="fill:#fff"/><path d="M326.47,276.11s-10.18-37.4,1.61-47.45,23.21,9.82,23.21,9.82" style="fill:#fff"/><path d="M122.09,396.84s28.72,39.94,20.25-159.68c0,0,44.84,110.87,29.68,125s20.89-5.93,20.89-5.93S162,235,157.05,234.71s-19.9-1.77-19.9-1.77" style="fill:#fff"/><polyline points="409.65 262.26 410.73 233.6 418.33 233.6 418.33 304.6 418.33 343.14 410.73 343.09" style="fill:#010101"/><polyline points="441.16 247.84 442.61 204.96 452.79 204.96 452.79 311.18 452.79 368.84 442.61 368.77" style="fill:#010101"/><path d="M445.21,209.21l3.66-.32V334.71S443.8,213.46,445.21,209.21Z" style="fill:#282828"/><path d="M413.63,234.91l2.7-.24v92.68S412.59,238,413.63,234.91Z" style="fill:#282828"/><path d="M85.06,272.46H79.94v67h4.54s-3.59-52.76.21-62.13S85.06,272.46,85.06,272.46Z" style="fill:#282828"/></g></g></svg>