<svg xmlns="http://www.w3.org/2000/svg" viewBox="0 0 460.29 382.34"><g id="Layer_2" data-name="Layer 2"><g id="Layer_1-2" data-name="Layer 1"><circle cx="229.36" cy="100.45" r="99.89" style="fill:#fff"/><circle cx="79.24" cy="141.28" r="77.72" style="fill:#fff"/><polygon points="89.11 207.61 88.96 247.6 71.2 243.73 63.27 238.7 42.15 241.77 42.15 324.95 69.09 328.04 74.8 318.9 87.31 319.96 93.74 328.04 91.77 372.29 168.01 369.46 169.73 380.87 266.34 382.34 272.38 371.57 356.07 372.74 356.61 296.74 366.7 301.23 451.9 362.79 460.28 363.1 458.06 160.62 448.76 161.66 370.64 225.05 359.22 228.01 357.23 189.35 275.26 188.76 114.86 187.34 89.11 207.61" style="fill:#fff"/><path d="M297.34,249.45c-2.21-12.25-4.83-24.28-.95-36.7-9.42,1-18.08,3.22-24.9,10a10.76,10.76,0,0,0-3,7.29c-.49,7.59-1.21,15.17-1.78,22.76-.77,10.22-1.66,20.45.9,30.59,2,7.85,6.58,13,14.64,15.09,7.35,1.94,14,5.62,20.57,9.37,3.85,2.2,7.7,4.39,11.61,6.5,2,1.09,2.22.92,3.38-1.09q3.94-6.84,8-13.65a7.4,7.4,0,0,0-2.13-9.7,14.59,14.59,0,0,0-8.51-2.29c-4.22,0-8.44.35-12.66.3a58.93,58.93,0,0,1-8-.84,9.18,9.18,0,0,1-3.09-1.15,3.78,3.78,0,0,1-1.9-5.11c1.73-4.48,5.9-9.52,12.3-9.17,8.63.47,17.14-.61,25.65-1.91a55.85,55.85,0,0,1,7.87-.54c5-.05,5.68.62,6.76,5.46,1.63,7.3,3.59,14.55,4.87,21.91,1.65,9.47,3,19,4.05,28.56a75.51,75.51,0,0,1-1,25.21,18.32,18.32,0,0,1-10,13c-9.41,4.77-18.88,5.09-28.37.37-6-3-9.39-7.65-8.92-14.61.18-2.76.3-5.53.67-8.27a2.42,2.42,0,0,0-1.72-3c-8.38-3.66-16.82-7.21-25-11.21a118.14,118.14,0,0,1-25-16c-4.85-4.11-7.49-9.5-9.16-15.5a112.09,112.09,0,0,1-3.88-27.49c-.25-9.93.09-19.82,2.11-29.57,2.08-10.06,5.14-19.72,12-27.76,3.93-4.64,8.7-8.06,14.72-9.14,9.74-1.75,19.51-3.44,29.34-4.61,8.25-1,16.6-1.12,24.82.67a43.53,43.53,0,0,1,4.21,1.13c4.33,1.42,7.6,4.07,9,8.54,2.44,8,4.95,16,7,24.12,1.42,5.49,2.27,11.13,3.21,16.73a17.25,17.25,0,0,1-3.45,14.3,11.77,11.77,0,0,1-8.07,4.65,107.61,107.61,0,0,1-13,.86c-9.77-.18-19.23-2.33-28.54-5.18a2.35,2.35,0,0,1-1.26-.66c-1.92-2.95-3.84-5.91-5.59-9-.67-1.17.18-2,1.38-2.22,2.6-.37,5.22-.62,7.83-.88C295.11,249.51,296.13,249.51,297.34,249.45Z"/><path d="M132,335.38a4.19,4.19,0,0,1-.75,0c-1.64-.15-2.32.55-2.53,2.22a80.56,80.56,0,0,1-4.42,19.4,25.19,25.19,0,0,1-3.42,6.12,5.66,5.66,0,0,1-3.62,2.09c-5.73.35-11.48.48-17.22.46-3.15,0-5.2-2.52-5-5.91.21-4.21.59-8.42.92-12.63.35-4.48.75-9,1.1-13.44q.81-10.46,1.58-20.9c.46-6.28.89-12.56,1.36-18.84s1-12.83,1.52-19.24c.34-4.48.63-9,1-13.46.5-6.62,1-13.24,1.53-19.86.34-4.48.64-9,1-13.46.43-6,.81-12,1.34-18a6.71,6.71,0,0,1,3.25-5.08,38.7,38.7,0,0,1,15.34-5.54c7.92-1.3,15.89-2.29,23.85-3.29,3.41-.43,5.16.8,6.27,4.11q14.81,44.37,29.57,88.76Q195.82,322.8,207,356.76a13.8,13.8,0,0,1,.77,4.25,4.49,4.49,0,0,1-4.12,4.7c-3.78.42-7.58.65-11.38.79q-9.56.36-19.11.48c-6.64.07-13.28.14-19.91-.07-4.35-.14-8.68-.71-13-1.21a10.07,10.07,0,0,1-3.33-1.11c-1.5-.76-1.73-2.25-.35-3.13,3.61-2.3,7.26-4.68,11.91-3.79,4.23.81,7-1.46,8.87-4.74a46.2,46.2,0,0,0,3.78-9.4c1.28-4.36-.77-6.75-5.27-6.94C148.09,336.27,140.28,335.81,132,335.38Zm-1.68-10.49h26.22c3.15,0,3.26-.14,3.33-3.26.22-9.45-1.77-18.6-4-27.67-5.65-22.77-13.48-44.84-21.76-66.76-1.07-2.82-2.18-5.62-3.28-8.43l-.42.11c.13,1.36.34,2.71.39,4.07.3,8.72.75,17.43.82,26.15.13,16.77.09,33.54,0,50.31,0,4.42-.45,8.84-.68,13.26C130.7,316.6,130.51,320.53,130.29,324.89Z"/><path d="M264.29,338.14a19.82,19.82,0,0,0-8.29-3.52,68.14,68.14,0,0,0-7-.9c-1-.1-2.08-.18-2.25-1.38-.53-3.8-1-7.62-1.43-11.43l.61-.34a25.35,25.35,0,0,1,2.43.76c12.69,5.4,25.35,10.86,38.06,16.22a12.68,12.68,0,0,1,6.23,5.85,36.33,36.33,0,0,1,4.55,19.39c-.16,3.74-2.71,6.35-6.75,7a15.92,15.92,0,0,1-2.49.13q-28.5,0-57,0a4.78,4.78,0,0,1-1.86-.08c-2.4-1.09-3.93.27-5.74,1.56a48.45,48.45,0,0,1-7.52,4.34,7.75,7.75,0,0,1-4,.44c-1.94-.23-2.94-1.68-2.89-3.94.09-3.6.3-7.19.53-10.79.34-5.46.75-10.91,1.12-16.36.14-2,.17-4,.41-6,.51-4.27-.7-8.18-2.13-12.13-5.33-14.8-10.55-29.64-15.81-44.47q-12.35-34.77-24.7-69.55c-1.81-5.08.31-10.1,5.64-11.66,12.25-3.59,24.56-6.93,37.26-8.49,6.47-.79,13-1.23,19.44.3a23.64,23.64,0,0,1,6.71,2.66c3.29,2,4.61,5.22,4.79,9.14.5,11-2.62,21.53-4.86,32.14-1.49,7.05-3.06,14.08-4.59,21.13-.88,4-1.79,8-4.47,11.29-1.31,1.6-2.93,2.55-5.09,2.08s-3-1.4-3.4-3.84q-3.33-21.87-6.65-43.75a2.88,2.88,0,0,0-2.2-2.65c-5.14-1.67-10.24-3.47-15.4-5.08a17,17,0,0,0-4-.29,16.52,16.52,0,0,0,.5,3.55q4.65,12.8,9.46,25.54c8.44,22.37,17,44.7,25.31,67.11,2.63,7.07,4.7,14.35,6.94,21.56a12.91,12.91,0,0,0,3.83,6.3,6.68,6.68,0,0,0,5.33,1.91c6.78-1,13.54-2.15,20.3-3.25A7.34,7.34,0,0,0,264.29,338.14Z"/><path d="M446.67,182.64a13.58,13.58,0,0,1,.27,1.9c-.37,6.69-.77,13.38-1.15,20.08-.17,3.11-.34,6.21-.46,9.32-.17,4.35-.26,8.71-.46,13.07-.25,5.52-.25,11.09-1,16.55-.35,2.53-2.11,4.9-3.4,7.26-4.11,7.54-8.29,15-12.45,22.55-1.11,2-2.19,4-3.37,6a4.83,4.83,0,0,0-.43,4.51c4.47,12.3,8.83,24.65,13.24,37,1.42,4,2.91,7.93,4.36,11.9.8,2.18.52,2.47-1.75,2.66-4.08.34-7.56-.42-10.8-3.36-4.39-4-9.27-7.47-14-11.1a4.49,4.49,0,0,1-1.65-4q0-30.24,0-60.49c0-15.31,0-30.63,0-45.94a4.81,4.81,0,0,1,2.13-4.35C425.22,199,434.6,191.79,444,184.6,444.78,184,445.56,183.45,446.67,182.64Z"/><path d="M264.43,379c4,0,4,.09,4.49-4,.27-2.26,1.18-3.18,3.46-3.41a27,27,0,0,1,2.7-.06h77.17c4.32,0,4,.26,4-4.11q0-21.42,0-42.84a22.4,22.4,0,0,1,.45-3.23l.58.07c.2,2,.32,4.07.62,6.09.35,2.39.85,4.75,1.28,7.13a12.3,12.3,0,0,1,.36,2.24q0,16.32,0,32.65c0,2.35-1.17,3.34-3.52,3.23-3.53-.16-7.05-.32-10.58-.36q-7.8-.09-15.6,0c-8.24.09-16.48.37-24.72.36-9.49,0-19-.24-28.47-.37H275c-4.12.09-5.2,1.34-4.69,5.39.4,3.15-.8,4.58-4,4.58H172.1c-3.11,0-3.88-.81-3.91-4,0-1.25,0-2.5,0-3.74a2,2,0,0,0-2.17-2.22c-.76,0-1.53,0-2.29,0H94.24c-.83,0-1.67,0-2.49-.06-1.39-.15-1.94-.85-1.93-2.37,0-7.06-.25-14.12-.19-21.18.05-6.09.46-12.17.58-18.25a66.1,66.1,0,0,0-.43-7.43,2,2,0,0,0-2.16-1.83q-6,0-12.06,0a2,2,0,0,0-2.19,2.21c0,.21,0,.42,0,.62-.21,3.22-1.06,4-4.25,4-5.27-.06-10.53-.16-15.8-.16-2.49,0-5,.18-7.46.34s-3.68-.8-3.68-3.27q0-41.6,0-83.19c0-2.32.71-3.21,3.06-3.27,3.25-.08,6.5.13,9.75.18,2.77,0,5.54.07,8.31,0,2.28,0,4.56-.27,6.84-.25s3.17.87,3.24,3.3c.09,3.11,1,3.72,4.14,3.49s6.37-.12,9.56-.17c2.22,0,2.52-.32,2.52-2.56,0-7.14,0-14.28,0-21.42,0-1.4-.36-2.29-1.95-2.26-1.16,0-2.33,0-3.49,0-4.63-.08-9.27,0-13.89-.31a96.29,96.29,0,0,1-9.83-1.34A22,22,0,0,1,57.6,216c-2.41-.78-4.82-1.55-7.26-2.21-7-1.87-12.94-5.6-18.59-9.91a85.62,85.62,0,0,1-17.71-18A73.53,73.53,0,0,1,1.42,155.6C-1.69,138.65.2,122.33,8.09,106.9c2.11-4.12,4.59-8.05,7-12A19.08,19.08,0,0,1,18,92h0c-.08,1.26-.09,2.53-.26,3.78A3.37,3.37,0,0,1,17,97.2c-4.61,5.9-6.8,13-9.82,19.69-.18.4-.53,1-.87,1-1.92.3-1.4,1.49-1.33,2.79.12,2.29-.08,4.59-.18,6.89a1.06,1.06,0,0,1-.32.75c-2.31,1.52-1.08,3.58-1,5.56.09,5.38-.13,10.76-.12,16.14A25.35,25.35,0,0,0,4,153.51c.2,1.32.7,2.76.39,4-.82,3.14-.12,5.39,2.16,7.85,1.84,2,2.7,4.92,3.82,7.51,3,6.86,6.82,13.16,12.29,18.35,3.92,3.71,7.79,7.49,11.89,11,1.75,1.5,4,2.38,6.06,3.59,1.34.8,2.62,1.71,4,2.52a11.93,11.93,0,0,0,1.52.57c3.09,1.28,6.36,2,9.09,4.26a15.89,15.89,0,0,0,6,2.67c7,1.87,14.1,1.91,21.25,1.85a52.21,52.21,0,0,1,8.43.89c2.4.37,3.48-.11,3.84-2.48.62-4.1,1.07-8.23,1.62-12.35.11-.87.32-1.72.49-2.58h.53c.07.76.21,1.53.21,2.29q0,9.89,0,19.76c0,2.88-1.15,3.68-3.92,2.74-.64-.22-1.27-.5-2.19-.87,0,.9-.11,1.62-.11,2.34,0,5.27,0,10.54,0,15.8,0,2.95-.67,3.78-3.63,3.87-4.14.13-8.3.13-12.44,0-2.73-.09-3.2-.75-4-3.34a2.88,2.88,0,0,0-1.58-1.54,8.27,8.27,0,0,0-2.86-.42q-8.94-.06-17.89,0c-2.47,0-3,.48-3,2.91q0,39.11,0,78.19c0,2.7.62,3.3,3.33,3.31,6.31,0,12.62,0,18.93,0,1.9,0,2.93-.6,3.35-2.54.63-2.93,1.82-3.72,4.82-3.72,3.66,0,7.31,0,11,0,1.73,0,2.83,1,4.22,2,2.65,2,2.19,4.35,2.2,6.82,0,11.72,0,23.43,0,35.15,0,3.67.59,4.26,4.2,4.26h66.14a9.73,9.73,0,0,1,2.48.11c.57.15,1.43.73,1.45,1.15.1,2.22,1.31,3.6,2.95,4.87a3.84,3.84,0,0,1,1,2.13c.52,2.35,1.09,2.94,3.5,2.94,9.08,0,18.17.09,27.25,0m2,1.54c0,.14,0,.27,0,.41h56.4v-.41Zm-30.76,0v.33h24.78v-.33Z"/><path d="M403.14,216.09c.34,31.7.68,63.36,1,95.61-1.1-.69-1.74-1-2.28-1.44-6-4.75-12.05-9.53-18.1-14.26a3.73,3.73,0,0,1-1.32-3.3c0-6.65,0-13.3,0-19.95,0-12.89,0-25.77,0-38.66a4.4,4.4,0,0,1,1.83-3.9c5.91-4.47,11.78-9,17.68-13.46A7.22,7.22,0,0,1,403.14,216.09Z"/><path d="M314.78,54.12c.08-.44.14-.7.16-1,0-.5,0-1,.05-1.51-.52,0-1.18-.16-1.51.1a1.89,1.89,0,0,0-.72,1.51A11.49,11.49,0,0,0,314.1,56a5.8,5.8,0,0,1,.1,6l-1.85-3.34c-2.35-4.24-4.57-8.56-7.09-12.7a46.27,46.27,0,0,0-5.24-6.9c-3.64-4-7.41-7.94-11.27-11.75a39.17,39.17,0,0,0-5.26-4q-3.75-2.6-7.62-5a72.34,72.34,0,0,0-18.38-8,101.45,101.45,0,0,0-17-3.68,113.24,113.24,0,0,0-18.42-.31,89,89,0,0,0-14.76,2.2,80.4,80.4,0,0,0-11.38,3.8,84.3,84.3,0,0,0-10,4.52c-8.39,4.61-16.21,10-22.57,17.32A41.12,41.12,0,0,1,158.9,38c-.77-.9-.16-2.13.38-3.24a4.74,4.74,0,0,1,1.65-2.07c2.75-1.55,4.29-4.16,5.95-6.9a6.92,6.92,0,0,0-1.78.9,104.77,104.77,0,0,0-8.73,8.51c-3.72,4.44-7,9.25-10.5,13.88a9.5,9.5,0,0,1-1.57,1.66c-1.12.89-2.07,1.78-2,3.4a2.05,2.05,0,0,1-.8,1.37c-1.74,1.37-2.1,3.28-2.46,5.3a43.06,43.06,0,0,1-1.68,6c-.13.4-.78.64-1.19,1a6.39,6.39,0,0,0-.75-1.07c-1.92-1.75-.46-3.36.23-5a96.28,96.28,0,0,1,14.78-24.47,103.81,103.81,0,0,1,28.89-24.09A100.1,100.1,0,0,1,206.76,2.64,95.35,95.35,0,0,1,231.87.09C244,.71,255.76,2.85,267,7.61a104.16,104.16,0,0,1,21.14,11.87A98.52,98.52,0,0,1,311,42.59c4.42,6.33,8.58,12.94,10.91,20.47,1.12,3.6,2.64,7.09,3.72,10.7a47.57,47.57,0,0,1,1.28,7.15,1.49,1.49,0,0,1-.84,1.15,1.46,1.46,0,0,1-1.36-.42c-1-2-2.27-3.93-1.17-6.26.51-1.08.08-1.78-.54-2.62a14.13,14.13,0,0,1-1.69-3c-1.2-3-2.37-5.91-3.42-8.92a8.67,8.67,0,0,1-.33-3.18C317.63,55.77,316.52,54.83,314.78,54.12Zm-8.56-12.25-.58.39,5.61,8.42.48-.32A16.31,16.31,0,0,0,306.22,41.87Z"/><path d="M416.15,189.73c1.38-1.33,2.68-2.75,4.16-4,2.24-1.83,4.62-3.47,6.89-5.26q8.88-7,17.71-14.1c1.62-1.3,3.23-2.59,3.85-4.76a2.19,2.19,0,0,1,1.62-1.21c2.56-.05,5.12.16,7.68.17,1.6,0,2.3.68,2.22,2.26,0,.62,0,1.25,0,1.87V363.09c0,2.78.23,3.88-3.48,4a57.1,57.1,0,0,1-6.8-.25c-.5-.05-1.2-.92-1.31-1.51a7.24,7.24,0,0,0-2.95-4.59Q430.55,349,415.38,337.15a3.66,3.66,0,0,1-1.47-4.34,5.57,5.57,0,0,1,1.29.53q16.07,12.68,32.08,25.38c1.61,1.28,3,2.9,4.63,4a4.2,4.2,0,0,0,3,.27c.52-.13.89-1.19,1.14-1.9a5,5,0,0,0,0-1.65V167.58c0-4.13-1.17-5-5.14-3.65a3.3,3.3,0,0,0-1.75,1.54c-1.45,3.1-3.58,5.18-7.12,5.62-.51.06-1,.73-1.39,1.22-.8,1-1.32,2.31-2.29,3.08q-7.5,5.93-15.18,11.61a11.75,11.75,0,0,1-7.05,2.74Z"/><path d="M58.9,313.28c-1.45,0-2.91,0-4.36,0s-2-.56-2-2c.28-8.29.59-16.58.77-24.87.12-5.4,0-10.8.08-16.2.08-5.67.27-11.34.4-17,0-1,.18-1.79,1.4-1.9,3.17-.27,6.33-.64,9.5-.83,2.15-.13,2.43.18,2.4,2.34q-.17,11.84-.43,23.65c-.09,4.21-.24,8.43-.39,12.64-.27,7.46-.57,14.92-.83,22.38,0,1.21-.57,1.77-1.78,1.76-1.6,0-3.19,0-4.78,0Z"/><path d="M359.59,264.54c0-7.21,0-14.41,0-21.62,0-2.36.16-2.48,2.53-2.9,3.34-.59,6.67-1.22,10-1.82,2-.35,2.37,0,2.42,1.93,0,1.45,0,2.91,0,4.37q.21,21.18.41,42.37c0,3.08-.36,3.4-3.32,3.07-3.23-.37-6.45-.85-9.69-1-2.1-.12-2.44-1.14-2.42-2.94C359.63,278.82,359.59,271.68,359.59,264.54Z"/><path d="M219.76,30.44c-.84-3.11.48-5,3.37-5.85,1.72-.49,4.17-1.21,4.72-2.49,1.6-3.76,5-2.83,7.66-3.67a11,11,0,0,1,8.7.67,7.66,7.66,0,0,0,2,.51c.4.08.91,0,1.22.18,3.15,2.06,6.56,3.86,9.32,6.36a39.11,39.11,0,0,1,6.18,8c.84,1.3.9,3.09,1.3,4.66.07.26,0,.59.08.81,2.66,4.9,1.63,10-.47,14.45-1.39,2.93-2.29,6.52-5.31,8.65-2.83,2-5.31,4.56-8.34,6.12-10,5.13-20.19,3.09-28.32-4.11-2.68-2.37-5.49-4.61-7.1-8a9.65,9.65,0,0,1-.51-7.43c-1.67.95-1.92.16-1.93-.88,0-2.15-.06-4.3.05-6.44,0-.47.69-.91,1.06-1.36l.49.36c1-3.09,1.92-6.18,2.9-9.36,1.35.09,1.72.76,1.31,1.93s-.93,2.61-1.43,3.9c-2.91,7.62-1.3,14.63,3.15,21.08,9.27,13.42,29.94,13,39.07-1.19,6.45-10,3.51-26.55-9.29-33.09a24.54,24.54,0,0,0-16.89-1.94c-3.15.66-6,3-8.84,4.78A35.45,35.45,0,0,0,219.76,30.44Z"/><path d="M60.24,121.8c-1.12-1.75-2.27-3.29-3.15-5-4.69-8.91-11.18-10.33-19.36-9.69-1.95.15-3.77,1.9-5.64,2.93-.76.42-1.5.87-2.48,1.44a5.92,5.92,0,0,1,3.79-6A15.92,15.92,0,0,1,41,103.8c2.54.2,5,1.13,7.7.94a4.5,4.5,0,0,1,2.73,1.37,64.22,64.22,0,0,1,6.9,6.59c1,1.18,1.1,3.1,1.72,5,2.45,1.34,2.56,4.32,2.41,6.94a21.26,21.26,0,0,1-17.86,19.9c-7,1.18-17.32-2.66-20.86-11.85a8.27,8.27,0,0,1-.61-2.62,4.88,4.88,0,0,0-1.47-3.69c-1.2-1.15-.84-4.52.18-5.84A6.12,6.12,0,0,0,23,117.94c.5-3.09,2.08-4.8,5.26-4.94-1.74,3.25-3.41,6.29-5,9.39a2.7,2.7,0,0,0-.09,1.8c.28,1,.88,1.83,1.18,2.8,1.94,6.31,5.16,11.49,11.86,13.69a17.76,17.76,0,0,0,19.28-6.26,22.76,22.76,0,0,0,3.84-9.24C59.61,124,60,122.83,60.24,121.8Z"/><path d="M290.19,180.44c-1.49,1.06-2.94,2.16-4.46,3.16-2,1.33-4.13,2.54-6.12,3.91-.46.32-.62,1.08-.92,1.64a14.22,14.22,0,0,0,1.7.25c1,0,1.94-.06,2.91-.06h67.75c2.06,0,4.13-.16,6.17,0,1.8.16,2.11,1.17,2,4-.08,1.74-1.15,1.81-2.41,1.77-4.49-.14-9-.26-13.48-.46a2.66,2.66,0,0,1-1.6-.73,6.33,6.33,0,0,0-8.8,0,2.9,2.9,0,0,1-1.82.71c-3.53.07-7.07.09-10.6,0a3.29,3.29,0,0,1-2.06-1,5.38,5.38,0,0,0-6.07-.92c-2.36,1.48-4.72,2.07-7.13.12l-.18-.1c-4.8-.31-9-3.65-14.09-2.75a103.47,103.47,0,0,1-11.15.93c-1,.07-2.3.38-2.59-1.29-.42-2.4.16-3.44,1.76-4.2a9.92,9.92,0,0,0,3.31-2.62c2-2.45,4.61-3,7.49-3.06A6.4,6.4,0,0,1,290.19,180.44Z"/><path d="M269.73,106.13c1.39.63,2.78,1.24,4.16,1.88,8.45,3.95,17.73,2.13,24.74-3.46,4.49-3.58,6.74-8.48,8.21-13.66a15.21,15.21,0,0,0-.48-10,58.09,58.09,0,0,0-3.27-7.17c-3.84-6.45-10-9.4-17.13-10.34-2.27-.3-4.64.21-7,.36-.6,0-1.19.13-2.15.24.6-2.33,2.37-1.77,4-2l-2.81-.7c0-.2,0-.4,0-.61a17.28,17.28,0,0,1,1.9-.23c1.8,0,3.61-.06,5.41,0,1.06,0,2.39-.56,3,1,.07.19.76.16,1.17.19,6.7.48,11.42,4,14.82,9.6.07.12.1.28.2.36,5.41,4.41,5.71,10.52,5.58,16.77,0,.76.27,1.78-.11,2.24a9,9,0,0,0-1.76,6,1.12,1.12,0,0,1-.57.82c-1.79.8-2.34,2.36-2.83,4.08a6.59,6.59,0,0,1-1.54,2.44c-4.54,5-10,8.63-16.82,9.51-5.66.72-11.17.39-15.25-4.43a13.89,13.89,0,0,1-1.48-2.87Z"/><path d="M410,303.59c-.17-3.79-.36-7.59-.5-11.38-.3-8.51-.57-17-.87-25.52-.25-7-.57-14-.79-20.95q-.48-14.62-.85-29.27c-.19-7.82-.27-15.65-.41-23.47,0-1.44.32-2.46,2.05-2.42,1.11,0,1.7.47,1.7,1.61,0,.42,0,.83,0,1.25V303.62Z"/><path d="M196.08,55c-1.49-.54-3-1.06-4.47-1.62-8.58-3.24-16.5-2-23.6,3.72-9.74,7.89-11.23,20.74-4.6,31.23a20,20,0,0,0,10.22,8.2c1.62.58,3.2,1.27,5.29,2.11-.91.31-1.38.63-1.81.58a31.79,31.79,0,0,1-6.72-1c-.92-.31-1.36-2-2-3.12-2.89,1.15-5.12-1.61-5.87-5.94-1.89.16-2.94-.73-3.11-2.67a2.15,2.15,0,0,0-.54-1.1c-1.59-1.93-2.67-4-.91-6.54-2.38-.57-2.33-2.18-2.21-3.81.47-6.57,2.63-12.42,7.33-17.18,2.52-2.56,4.91-5.3,8.33-6.75a5.26,5.26,0,0,1,.94-.43c4-.8,8-1.73,12.08-2.27a8.1,8.1,0,0,1,4.35,1c1.72.86,3.24,1.86,5.32,2,1.91.13,2,2,2,3.59Z"/><path d="M89,248.4c-2.47,0-4.95.07-7.42,0-1.57-.06-2.28.58-2.88,2a33.64,33.64,0,0,0-2.38,13c0,6.86-.16,13.72,0,20.58.22,7.94.73,15.88,1.15,23.82.07,1.29-.13,2.14-1.69,2.21-2.22.09-2.72-.19-2.82-2,0-.35,0-.69,0-1v-55.7c0-2.69.06-2.71,2.67-3.21,4.45-.84,8.9-.4,13.35-.47Z"/><path d="M219.57,188.39c-.59,0-1.17.13-1.76.12a62.72,62.72,0,0,1-6.58-.14,75.2,75.2,0,0,1-8.94-1.53c-2.69-.63-5.26-1.75-7.95-2.41a36.63,36.63,0,0,0-6.35-.88,17.54,17.54,0,0,1-7.73-2.09,7.92,7.92,0,0,0-3.49-.91c1.64,3.31,5.27,4.25,7.53,6.75-.05.12-.07.34-.14.36-3.84,1-7.67,2-11.53,2.85a5.34,5.34,0,0,1-2.92-.42c2.46-2.38,6,0,8.91-2.23-1.84-1.18-3.35-2.24-4.94-3.16s-1.87-1.93-1-3.58a26.28,26.28,0,0,0,1.36-4.28,6.14,6.14,0,0,0,1.65,0c.62-.16,1.46-.43,1.69-.9s-.18-1.26-.52-1.77a19.21,19.21,0,0,0-1.88-2.06c1.24-1,2.07-.29,2.94.21,3.08,1.79,6.16,3.58,9.26,5.34a38.44,38.44,0,0,0,5.2,2.81c8.25,3.16,16.55,6.23,25.5,6.81a11.31,11.31,0,0,1,1.71.36C219.58,187.85,219.57,188.12,219.57,188.39Z"/><path d="M268.48,126.1c1.51-.7,2.75,0,3.82.91,2.69,2.2,6,3.85,7.05,7.58a4.21,4.21,0,0,1-.09,2.41c-.36.95-.45,1.69.63,2,1.68.45,2.12,1.72,2.21,3.14.32,4.73.24,9.42-1.76,13.86-.57,1.28-1.08,2.53-2.88,2.56a1.91,1.91,0,0,0-1.27,1.38c.16,3.44-2.43,5.13-4.62,6.69a94.31,94.31,0,0,1-9.91,5.61c-1.53.82-2.94.28-4.31-.56s-2.23-1-3.27.62-2.58.31-3.84-.21c-.81-.33-1.4-.83,0-1.9-1.94,0-3.44,0-4.93,0a3.72,3.72,0,0,1-3.65-2.58,4,4,0,0,1,.08-1.56c.51.05,1.14-.07,1.51.18,4.79,3.36,10.25,3.59,15.71,3,3.77-.38,7.09-2.2,10.3-4.36,5.23-3.52,7.6-8.58,8.88-14.4,1.55-7.06.15-13.46-4.57-19-1.61-1.87-3.42-3.58-5.13-5.37Z"/><path d="M18,92a33.73,33.73,0,0,1,2.37-3.36C32.69,75.05,47.8,66.55,66,63.86a73.79,73.79,0,0,1,19.64-.52c.63.08,1.65.67,1.68,1.07a2.7,2.7,0,0,1-1,2A4.13,4.13,0,0,1,84,67c-6.21-.07-12.48.64-18.55-1.4a7.18,7.18,0,0,0-1.89,0l.78,1.28c-1.78,1.42-3.75-.36-5.55.32L60,68.33c-2.68.57-5.08,1.06-7.46,1.59a15.46,15.46,0,0,0-2.06.67c-1.58.6-3.1,1.56-4.73,1.77-2.76.36-5.16,1-6.5,3.7A3.25,3.25,0,0,1,38.2,77c-2.69,2-5.52,3.88-8.05,6.07s-4.83,4.73-7.21,7.13A6,6,0,0,1,18,92Z"/><path d="M268.48,126.1c-3.62-1.12-7.19-2.48-10.89-3.28-5.12-1.11-9.91.38-14.28,3-7.41,4.52-11.26,11.07-11.52,19.9a21.77,21.77,0,0,0,6.71,16.69c.39.39.72.84,1.08,1.26a1.61,1.61,0,0,1-.18,2.54c-.33.23-1.46-.29-2-.75a35.16,35.16,0,0,1-3.48-3.84,26.23,26.23,0,0,1-2.16-3.51c-.75-1.36-1.35-2.8-2.14-4.14a4.2,4.2,0,0,1-.08-4.51c1.42-2.58,2.13-5.11.36-8a4.66,4.66,0,0,1-.11-3.72c4.29-10,11.7-16.27,22.44-18.49a15.31,15.31,0,0,1,8.58.71c1.56.58,3.1,1.2,4.65,1.81,2.78,1.11,2.9,1.29,3,4.26Z"/><path d="M125.13,117.28c-3.36-.55-6.47-1.39-9.61-1.49-6.52-.22-12.78,4.21-15.19,10.31-.46,1.16-.79,2.38-1.34,3.48-.26.51-.92.82-1.76,1.52.1.84-1,2.58,1.22,3.44.34.13.47,1,.61,1.49,1.79,6.72,5.75,11.4,12.54,13.46a2.3,2.3,0,0,1,1.23.72,2.79,2.79,0,0,1,.51,1.82c-.08.33-1.1.75-1.53.62a25,25,0,0,1-5-2,28.58,28.58,0,0,1-9-8.76l-.11-.18c-.8-5.92-4.3-11.76.31-17.77,2.89-3.77,5.74-7.43,9.78-10a6.33,6.33,0,0,1,6.85-.5,3.26,3.26,0,0,0,2.8-.24,3.74,3.74,0,0,1,4.27-.17,11.4,11.4,0,0,0,1.88.87C125.47,114.48,125.63,115.72,125.13,117.28Z"/><path d="M196.09,55a5.77,5.77,0,0,1,7.38,5.71,1.54,1.54,0,0,0,1.24,1.81c3,.92,4.22,3.09,4.33,6.11a8,8,0,0,0,.72,2.79c1.34,3,.65,6-.52,8.82-.29.72-.71,1.83-1.83.24a11.48,11.48,0,0,0-.07,1.25c.32,5.78-2.39,10.13-7.8,12.21a3.27,3.27,0,0,0-2.43,2.68,3.83,3.83,0,0,1-2,2.44,58.41,58.41,0,0,1-7.89,2.41,2.25,2.25,0,0,1-1.8-1.15c-.44-1,.35-1.58,1.33-1.92a55.69,55.69,0,0,0,7.19-2.66c6.72-3.46,10.44-9.31,12.1-16.5,1.4-6.07-.25-11.74-3.28-16.92-1.29-2.21-3.53-3.86-5.33-5.77-.48-.49-.9-1-1.34-1.55Z"/><path d="M380.3,297c-.11-1.86-.26-3.71-.32-5.57-.3-8.92-.57-17.84-.87-26.76-.25-7.19-.61-14.37-.78-21.56-.22-8.79-.3-17.58-.43-26.37,0-1-.24-2.18,1.28-2.42.9-.15,1.52.05,1.59,1.08,0,.48,0,1,0,1.45V297Z"/><path d="M89.11,64.26a40.39,40.39,0,0,1,15.6,3.1A83.84,83.84,0,0,1,127,79.66c2,1.62,2.82,1.23,3.43-1.41.51-2.22,1.09-4.43,1.71-6.62.34-1.2,1.12-2,2.48-1.46s1,1.52.66,2.6-.47,2.28-.74,3.42c-.39,1.65.19,4-2.75,3.92-.32,0-.67.81-1,1.25a3.21,3.21,0,0,1-4.21,1.19,25.72,25.72,0,0,1-5.23-2.93c-.93-.73-1.31-2.15-2-3.38-1.79,1.36-2.61.33-3.25-1.47-.51-1.44-1.55-2-3.15-1.37a3.69,3.69,0,0,1-2.41,0c-2.45-.92-4.87-1.94-7.22-3.09a14.57,14.57,0,0,0-5.89-1.72A10.78,10.78,0,0,1,89.11,64.26Z"/><path d="M140.17,76.92a13.51,13.51,0,0,1,0,1.91c-.46,3.2-1.06,6.39-1.44,9.6a80.56,80.56,0,0,0,.87,24.16c.74,4,1.93,7.9,2.94,11.85.26,1,.77,2.17-.48,2.72a2,2,0,0,1-2.71-1.3,10.66,10.66,0,0,1-.86-2.76c-1.19-7.09-2.51-14.17-3.41-21.29-.38-3,.21-6.06.27-9.1s0-6,0-8.93a3.92,3.92,0,0,1,.26-2c1.21-1.74,2.59-3.37,3.91-5Z"/><path d="M308.67,61.66c6.34,6.17,10.94,43.16,6.32,50.26a6,6,0,0,1-1-1.77c-.39-3.07-.8-6.15-1-9.24-.19-3.44.09-6.9-.21-10.32-.5-5.77-1.25-11.53-2-17.27a8,8,0,0,0-1.43-2.91C307.64,67.71,307.64,64.92,308.67,61.66Z"/><path d="M163.22,40.42A73.36,73.36,0,0,1,184.66,22c6.79-3.91,13.81-7.33,21.5-9.17,1.09-.26,2.23-.32,3.35-.48.1.23.19.47.29.7a15.85,15.85,0,0,1-1.86,1.09c-1.32.56-2.73.93-4,1.56-2.78,1.37-5.42,3-8.25,4.25A85.88,85.88,0,0,0,170,37.19c-1.86,1.79-3.91,3.37-6.73,3.23Z"/><path d="M296.76,151.48c-1.61,2.22-2.89,4.8-4.87,6.62-9.18,8.41-19.05,15.84-31,20-1.5.52-2.9,1.35-4.41,1.82a4,4,0,0,1-5.07-1.66c1-.45,1.94-1.22,2.79-1.16,3.76.27,6.47-2.2,9.65-3.4,8.07-3.06,14.94-8.11,21.73-13.27,1.5-1.14,2.53-2.87,3.85-4.27s2.73-2.58,3.93-4a2.36,2.36,0,0,1,3.41-.66Z"/><path d="M88.44,118.94c.92-.62,1.61-1.14,2.35-1.57,5.62-3.28,9.27-7.88,9.58-14.6a17,17,0,0,0-11.46-17c-.86-.32-1.71-.69-2.56-1l.18-.77a37.19,37.19,0,0,1,5.51.86,14.43,14.43,0,0,1,8,6.28c1.18,1.84,3.07,3.24,3.38,5.6.11.87.43,2,.06,2.61-.92,1.57-.63,3-.16,4.53a5.11,5.11,0,0,1,0,3.21c-1.89,4.43-4.32,8.55-8.41,11.34C93,119.62,91,120.48,88.44,118.94Z"/><path d="M125.8,117.82c1.31-1.17,2.45-1.1,3.3-.09,2,2.37,3.87,4.84,5.78,7.29.25.32.66.81.57,1.07-1,2.91,1.55,5.25,1.19,8.1a18.3,18.3,0,0,1-2.75,8.4,53.35,53.35,0,0,1-5.69,6.53c-1.45,1.48-3.15,2.68-5.49,2.48-.5,0-1.08.52-1.58.86-1,.71-2,.71-2.61-.47s.19-1.8,1.23-2.16c3.63-1.27,7.06-2.89,9.62-5.9a16.19,16.19,0,0,0,1.92-2.68c3.34-6.24,2.9-15.39-3.26-21C127.24,119.51,126.58,118.66,125.8,117.82Z"/><path d="M176.31,122.4c-4.89,7.06-6.67,14.52-3.76,22.84s9,12.77,17.29,15.42a4.31,4.31,0,0,1-5.61.18,110.47,110.47,0,0,1-9.09-6.52c-2.33-1.93-4.41-4.17-4.52-7.6a28.27,28.27,0,0,0-.93-4.94,1.06,1.06,0,0,0-.48-.64c-2.09-1.23-1.91-3.11-1.63-5.12a28.1,28.1,0,0,1,5.95-13.93C174.69,120.65,175.33,121.59,176.31,122.4Z"/><path d="M236.87,96.91c.25,5.21-3.36,7.63-7.5,7.89-3.72.24-7.85-4.16-7.85-8,0-3.47,4.32-7.82,7.74-7.68C233.64,89.3,237.35,92.46,236.87,96.91Zm-8.17,4.23c3.33,0,5-1.29,5.21-3.57.29-2.86-1.42-5.18-4.14-5a14.75,14.75,0,0,0-5.29,1.54c-.37.17-.06,1.75-.13,2.68a10.47,10.47,0,0,0-.23,2.05,1.9,1.9,0,0,0,.83,1.39C226.37,100.66,227.87,100.94,228.7,101.14Z"/><path d="M162.4,151.89c2.12-.22,3.6.46,4.3,2.67a5.3,5.3,0,0,0,1.58,2.14c3,2.75,6,5.58,9.19,8.08a85.3,85.3,0,0,0,9,5.94c3.81,2.26,7.66,4.49,11.66,6.38a39.21,39.21,0,0,0,7.37,2.08c3.42.83,6.86,1.56,10.29,2.34,0,.21,0,.42,0,.63-1.37.12-2.82.6-4.09.3-3.23-.76-6.35-1.95-9.55-2.81-7.36-2-13.82-5.79-20.42-9.43-5.33-2.94-9.32-7.31-13.71-11.28a55.85,55.85,0,0,1-4.79-5.17,7.22,7.22,0,0,1-.82-1.85Z"/><path d="M34.5,160c.47-1.32.54-2.89,1.32-3.4,2.2-1.45,4-3.81,7-3.78l.49.54a15.27,15.27,0,0,1-2.48,2.7,16.62,16.62,0,0,0-7.64,12.46c-.52,4.41.85,8.3,2.94,12.06a7.61,7.61,0,0,1,.47,2.19c-.78-.23-1.78-.23-2.31-.72-5.48-5-6.41-14.84-1.95-20.7A6,6,0,0,1,34.5,160Z"/><path d="M257.23,91.55c-1.35-2.42-1-7.34.29-9.19a8.27,8.27,0,0,0,.76-2.79c.29-1.29.22-2.8.89-3.85,1.7-2.66,3.7-5.15,5.64-7.65.8-1,1.65-2,3.29-1.61,1.46.34,1.73-1.06,2.28-2,1.21-2,2.92-2.19,4.88-.26-4.64,3.1-9.54,5.83-12.31,11s-3.12,10.64-2.64,16.31l-.43.18L258.59,90Z"/><path d="M236.85,87.43c-1.64-.55-3.25-1.2-4.92-1.63-7.71-2-15.41,5.26-13.94,13.1,0,.27.12.54.15.82.08.85.6,1.89-.77,2.18a1.9,1.9,0,0,1-2.44-1.63,12.5,12.5,0,0,1,2.53-11.48,33.87,33.87,0,0,1,2.93-2.94c2.39-2.25,5.05-3.2,8.36-2.08a5.45,5.45,0,0,0,3.2-.24c3.26-1.06,4.94,0,5.32,3.49C237.13,87.14,237,87.29,236.85,87.43Z"/><path d="M256.15,16.92c1.08-1.83,2.19-2.39,3.82-1.6,3.86,1.85,7.81,3.53,11.57,5.56a111.53,111.53,0,0,1,11,6.66,81.9,81.9,0,0,1,7.16,6.25c-1.72,1.53-2.56,1.54-3.42.1a10,10,0,0,0-4.55-3.77,48.38,48.38,0,0,1-4.7-3,15.23,15.23,0,0,0-2.8-1.73c-1.38-.5-2.23-1.12-1.77-2.48A33.41,33.41,0,0,0,260,18.68C258.69,18.53,257.47,17.55,256.15,16.92Z"/><path d="M238,188a7.34,7.34,0,0,1,1.85-.73,76.58,76.58,0,0,0,21.51-5.07c1.54-.6,3.24-.85,4.69-1.59,3.26-1.65,6.38-3.56,9.6-5.28,2.3-1.23,2.48-1.11,3.84,1.58-.5.27-1,.59-1.51.83-3.93,1.81-7.81,3.75-11.81,5.38-4.67,1.9-9.38,3.7-14.49,4.16-4,.35-7.93,1-11.9,1.47a8.68,8.68,0,0,1-1.68-.11C238.09,188.44,238.06,188.23,238,188Z"/><path d="M327.77,117.5c-1.88-1-3.19-2.91-2.49-4.69,1.47-3.71,1-7.36.76-11.14-.17-2.64.53-5.34.9-8,.2-1.47.48-2.75-1.24-3.72-1.21-.68-.83-3.64.37-4.41.88-.57,1.42-.46,1.87.65a20,20,0,0,1,1.3,8.28c-.12,4.08.08,8.17-.08,12.24a60.47,60.47,0,0,1-1,6.08C328,114.27,327.92,115.78,327.77,117.5Z"/><path d="M89.56,197c-3.86-4-7.63-7.75-11.18-11.7-.78-.87-.94-2.39-1.17-3.65-.57-3.19-1-6.4-1.51-9.6,0-.18.11-.38.22-.7,1.57.57,2,1.73,2,3.2.12,2.25.4,4.5.53,6.76.14,2.45,1.57,4.21,3,6,3.49,4.28,7.87,6.91,13.5,7,1.27,0,2.56-.81,3.82-.76,4.06.17,6.68-2.2,9.13-4.87a15.72,15.72,0,0,0,4.53-9.28c.12-1.32.82-1.77,2.39-1.61-.59,1.47-1,2.83-1.66,4.09-2.2,4.39-4.24,8.95-8.56,11.76a16.44,16.44,0,0,1-4,1.46,26.5,26.5,0,0,1-3.5.92,3.24,3.24,0,0,1-1.56-.3C93.41,194.92,91.29,194.53,89.56,197Z"/><path d="M404.16,328.29c-2.75-2.09-5.23-3.94-7.67-5.83-4.27-3.31-8.47-6.7-12.78-10a3.51,3.51,0,0,1-1.39-4.29,6,6,0,0,1,3.39,3.14,3.36,3.36,0,0,0,3.29,2,3.75,3.75,0,0,1,2.29.78c4,3.12,7.82,6.4,11.81,9.49C404.65,324.81,404.73,326.16,404.16,328.29Z"/><path d="M222.34,106.75c1,.35,1.94.68,2.85,1,6.38,2.09,11.69-.1,14.72-6.06a6.39,6.39,0,0,1,1-1.81c.45-.43,1.35-.9,1.78-.72a2.18,2.18,0,0,1,1,1.72,5.5,5.5,0,0,1-4.82,5.27,1.61,1.61,0,0,0-1.66,1.69,3.14,3.14,0,0,1-2.86,3c-1.41.29-2.75,1-4.16,1.27-2.27.53-4.42.54-5.74-2a2.05,2.05,0,0,0-1.3-.77C221.34,109,221.25,108.81,222.34,106.75Z"/><path d="M162.38,151.9a25.27,25.27,0,0,1-2.66-2.5c-4.49-5.6-8.33-11.58-10.48-18.51a2.94,2.94,0,0,1,0-1.94c.22-.45,1.16-1,1.49-.84a2.65,2.65,0,0,1,1.37,1.57,37.14,37.14,0,0,0,5.53,11.79c1.39,2.07,2.9,4.05,4.34,6.08,1,1.35,1.77,2.73.43,4.32Z"/><path d="M320.26,73c.42.84.74,1.41,1,2,2.13,4.83,2.38,9.83,1.69,15-.49,3.68-.54,7.42-.81,11.13-.06.83-.21,1.66-.32,2.49h-.67a38.81,38.81,0,0,1-.62-5.54,84,84,0,0,0-1.91-21C318.25,75.48,319.24,74.47,320.26,73Z"/><path d="M86.53,119.88c-.36.26-.68.65-1.08.74-5.87,1.41-11.26.68-15.71-3.77a48,48,0,0,1-3.85-4.33c-1.23-1.58-1.18-3.45.06-5.39.55.79,1.1,1.45,1.51,2.19a18.6,18.6,0,0,0,15.9,10.05c.55,0,1.1,0,1.65-.05h1.33C86.41,119.51,86.47,119.7,86.53,119.88Z"/><path d="M70.86,141.08a4.37,4.37,0,0,1,2.9-5.59c3-1.14,6.11-.33,7.27,2.08,1,2,1.22,4.2-.19,6.13a5.41,5.41,0,0,1-6.07,2.18c-1.19-.34-2.06-1.78-3.08-2.73,1.84-.2,3.7-.31,5.52-.65a2.24,2.24,0,0,0,1.4-1.31c.71-2.08-1.18-4.45-2.85-4.47Z"/><path d="M290.92,179.36a3.26,3.26,0,0,1,.92-3.93c3-2.91,6-5.86,9.1-8.75.74-.71,1.65-1.24,2.44-1.9.56-.47,1.35-1,1.51-1.57.52-2,1.66-1.29,3.2-.84C303.24,169,298,174.84,290.92,179.36Z"/><path d="M180,118.86c.29-4.63,3.6-6,7.05-7.08a47.73,47.73,0,0,1,6.06-1.32,6.59,6.59,0,0,1,3.06,0,2.79,2.79,0,0,1,1.47,1.86c.22,1.1-.79,1.2-1.67,1.29-2.66.28-5.41.27-7.93,1-2.37.71-4.5,2.24-6.73,3.42C180.84,118.31,180.41,118.6,180,118.86Z"/><path d="M296.77,151.48a9.38,9.38,0,0,1,4-8.24,5.27,5.27,0,0,0,1.39-2.14c.64-1.49,1.08-3.07,1.72-4.56a21,21,0,0,1,1.75-3.28,5,5,0,0,1,1.46-1,8.17,8.17,0,0,1,1.05,1.82c.11.38-.22.92-.41,1.36a58.18,58.18,0,0,1-9.26,14.93,8,8,0,0,1-1.66,1.14Z"/><path d="M61.37,184.34c.86-.94,1.76-1.85,2.56-2.84,2.25-2.79,3.77-5.87,3.6-9.59-.14-3.08.44-6.25-1.4-9.08-.17-.26.14-1.14.47-1.34a1.54,1.54,0,0,1,1.39.27c3.38,3.1,3.09,7.14,2.73,11.18a1.94,1.94,0,0,1-.34.75c-1.65,2.61-3.19,5.31-5,7.8a23.13,23.13,0,0,1-3.61,3.28Z"/><path d="M143.14,86.84a47.92,47.92,0,0,1,5.25-21.2c2.19,2.82,1.8,5.11-.79,7.1-.38.29-.38,1.37-.22,2,.32,1.23.87,2.25-.73,3.16-.5.29-.49,1.76-.44,2.68A7.26,7.26,0,0,1,143.14,86.84Z"/><path d="M300.9,154.07c1.3,1.17,1.44,2.34.41,3.39-3.73,3.82-7.49,7.6-11.35,11.28-.43.41-1.57.08-2.39.1.22-.66.25-1.48.68-1.94,3.65-3.88,7.37-7.7,11.08-11.53A19,19,0,0,1,300.9,154.07Z"/><path d="M223.52,182.68c1.81,0,3.63.11,5.43,0,6.07-.45,12.11-1.07,17.85-3.4a6.7,6.7,0,0,1,3.25-.14c.44.06.78.81,1.17,1.24-.45.34-.85.87-1.36,1-3,.77-6.06,1.54-9.12,2.11a35.27,35.27,0,0,1-5.54.43c-3.46.08-6.92.09-10.38.08a5.31,5.31,0,0,1-1.41-.39C223.45,183.29,223.48,183,223.52,182.68Z"/><path d="M57.66,186.87c-3,1.36-5.83,3.37-8.94,3.89A10.55,10.55,0,0,1,38.84,187a2.8,2.8,0,0,1-.46-1.45,13.37,13.37,0,0,1,0-1.77c3,1.23,6,3,9.19,3.68a14.31,14.31,0,0,0,9.91-1.14C57.53,186.51,57.59,186.69,57.66,186.87Z"/><path d="M315,131.17c.14,1,.47,1.73.27,2.24-1.31,3.4-2.6,6.83-4.17,10.12a30.23,30.23,0,0,1-3.47,5.13c-.26.34-1.07.27-1.62.39-.12-.62-.55-1.4-.33-1.83,2.74-5.12,5.58-10.2,8.4-15.28C314.15,131.78,314.36,131.68,315,131.17Z"/><path d="M318,120.23c.6-3.46,1.12-6.53,1.66-9.58a24.75,24.75,0,0,1,.64-3.24c.18-.57.75-1.47,1.11-1.45a2.46,2.46,0,0,1,1.83,1,3.91,3.91,0,0,1,.36,2.56c-.71,3.1-1.57,6.17-2.45,9.23a4.87,4.87,0,0,1-1.1,1.94,1.7,1.7,0,0,1-1.46.46C318.25,121.07,318.09,120.36,318,120.23Z"/><path d="M300.57,47c-1.63,1.21-2.82.59-3.83-.67q-3.24-4-6.43-8.09a2.75,2.75,0,0,1-.19-3.25C293.05,36.44,299.1,43.38,300.57,47Z"/><path d="M382.25,219.08a3.91,3.91,0,0,1,1.67-4.67c2.86-2,5.63-4.19,8.49-6.21.42-.29,1.16-.13,1.76-.18-.09.7.08,1.68-.31,2-2.14,1.95-4.37,3.79-6.65,5.57C385.66,216.84,384,217.88,382.25,219.08Z"/><path d="M143.34,110.37a8.72,8.72,0,0,1-.45-6.82c.07-.19.35-.34.35-.5q0-6.45-.13-12.89c0-.49-.36-1-.2-1.44s.91-.46,1.26-.32a2.08,2.08,0,0,1,1,1.11,4.26,4.26,0,0,1,.11,1.64c-.13,5.46-.25,10.92-.45,16.38a16.38,16.38,0,0,1-.65,2.88Z"/><path d="M143.36,65.88c-2.16-1.73-2.16-1.73-.71-3.43.17-.2.4-.47.39-.7-.16-3.61,2.68-6.1,3.46-9.37a2,2,0,0,1,1.1-1.15,5.7,5.7,0,0,1,1.77-.19c0,.57.27,1.24.06,1.7C147.48,57.08,145.45,61.38,143.36,65.88Z"/><path d="M145.64,110.42a2.3,2.3,0,0,1,.41,3.09c-.87,1.61-.55,2.57.95,3.59.44.3,1,.7,1.1,1.15.53,2.34,1,4.7,1.3,7.07.07.52-.59,1.12-.91,1.69-.48-.4-1.24-.71-1.4-1.21a71.71,71.71,0,0,1-2.82-9.93C144,114.3,145.08,112.5,145.64,110.42Z"/><path d="M311.27,116.92c1.75,2.51,2.14,4.63,1.2,7-.86,2.17-1.49,4.44-2.32,6.62a6.15,6.15,0,0,1-1.24,1.49c-.47-.46-1.2-.85-1.34-1.39a3.87,3.87,0,0,1,.44-1.94,13.61,13.61,0,0,0,.69-1.64c.25-1.23.33-2.49.57-3.72.2-1,.52-2,.82-3S310.8,118.32,311.27,116.92Z"/><path d="M144.14,131.67c-2.51-1-2.94-1.7-2.08-2.82.66-.86,1.32-1,1.86.13,1.76,3.7,3.55,7.38,5.25,11.11a5.92,5.92,0,0,1,.17,2c-.81-.2-2-.14-2.36-.65a31.74,31.74,0,0,1-3.34-5.15C142.85,134.84,141.78,133.17,144.14,131.67Z"/><path d="M237.05,13.22c4.54-2.81,12.48-2.52,15.77.5a8.65,8.65,0,0,1-1.34.37c-.53.06-1.25-.22-1.59,0-1.88,1.43-3.79.77-5.75.36C241.93,14,239.7,13.69,237.05,13.22Z"/><path d="M65,159.54l-11.27-7c3.57-2,5-1.92,8.7,1.62C63.85,155.58,66.16,156.91,65,159.54Z"/><path d="M207.54,117.86a5.57,5.57,0,0,1,6.69,3.6,3.23,3.23,0,0,0,2,2.4c.48.18.84,1,1,1.6.49,1.57.9,3.16,1.25,4.77a9.25,9.25,0,0,1,.12,3.65C216.35,127.66,213.46,122,207.54,117.86Z"/><path d="M80.81,148.51a11.4,11.4,0,0,1,1-1.54,9,9,0,0,0,2.8-7.1,7.25,7.25,0,0,1,.86-2.31c.68.66,1.69,1.21,2,2,1.07,3-.85,7.55-3.7,8.89C83.08,148.79,82.11,148.51,80.81,148.51Z"/><path d="M404.08,199.53c0,1.57,0,3.15,0,4.72,0,1.23-.91,1.51-1.95,1.74-1.7.38-3.65,0-5,1.57-.13.15-1-.05-1-.16-.07-.57-.22-1.41.09-1.71,2.33-2.25,4.77-4.41,7.17-6.59Z"/><path d="M269.71,106.15c-.69,0-1.38,0-2.07,0-3-.07-3.83-.94-4.2-3.93a4.27,4.27,0,0,0-1.1-2c-1.17-1.37-2.5-2.61-3.64-4a5.2,5.2,0,0,1-.56-1.85c2.23-.83,3.2.11,4,1.91a21,21,0,0,0,6.78,8.68,4.47,4.47,0,0,1,.81,1.15Z"/><path d="M211.31,12.37c1.56-1.53,12.44-3,14.25-1.92-1.88,1.91-4.32,1-6.49,1.54l3.94.37v.52a6.19,6.19,0,0,1-6.1.82c-1.47-.65-2.84-1.4-4.53-.86C212.12,12.91,211.71,12.55,211.31,12.37Z"/><path d="M151,169.76a8.67,8.67,0,0,1-.54,2.06c-2.24,4.12-4.53,8.21-6.82,12.3a4.05,4.05,0,0,1-.71,1c-1.27,1.18-2,2.46-.83,4.13-1.11.88-2,.58-2-.53a5.66,5.66,0,0,1,.82-3.65c3.6-4.13,5.51-9.21,8.24-13.82.36-.61.77-1.2,1.16-1.79Z"/><path d="M211.26,155c.26,2.56-.89,4.22-3.09,4.84a9.13,9.13,0,0,0-2.17,1.36c-.55.35-1.15,1-1.65.95a46.82,46.82,0,0,1-4.74-1.12Q205.28,158.08,211.26,155Z"/><path d="M157,153.42c-1.25.87-2.22.25-3-.69-1.38-1.71-2.7-3.48-3.95-5.29-.93-1.34-1.41-2.81-.34-4.37C151.15,143.74,156.26,151.05,157,153.42Z"/><path d="M158.72,46.21c1.52,2.35.19,4-.66,5.73-.75,1.5-.8,1.47-2.78,1.27.12.63.25,1.2.33,1.77a2,2,0,0,1-2.22,2.47c-1-.05-1.62-.62-1.06-1.45C154.43,52.85,155.7,49.11,158.72,46.21Z"/><path d="M71.7,88.67c-1.79,2.78-3.62,5.54-5.34,8.36-.55.9-1.25,1.58-2.09.89a2.68,2.68,0,0,1-.41-2.29,38.23,38.23,0,0,1,1.61-3.52c1-2.46,2.67-3.42,6.21-3.44Z"/><path d="M317.61,72.91c-.91-2.94-1.9-5.86-2.66-8.84-.13-.5.69-1.25,1.06-1.88.53.42,1.37.75,1.53,1.27a62.48,62.48,0,0,1,1.63,7,6.54,6.54,0,0,1-.57,2.42C318.27,72.91,317.94,72.91,317.61,72.91Z"/><path d="M375.18,305.21l-1.6-.76c-2.3-1.07-4.63-2.09-6.89-3.23-.59-.3-1-1-1.48-1.47a7.21,7.21,0,0,1,1.67-1.08c1.77-.54,3.42-.71,4.14,1.67.15.51,1,.81,1.59,1.18C373.88,302.35,375.16,303.15,375.18,305.21Z"/><path d="M362.94,301a48.5,48.5,0,0,1-5.56.53c-.71,0-1.9-.7-2-1.25a31.19,31.19,0,0,1-.32-4.95l.78-.18a4.94,4.94,0,0,1,.79,1.57,1.87,1.87,0,0,0,2.45,1.83C361.2,298,362.06,299.22,362.94,301Z"/><path d="M236.85,87.43l.42-.42c1.8-.76,3-.1,3.92,1.52.2.36.42.71.6,1.08.64,1.35,1.26,2.71,1.91,4.09-1.07.94-2,1.13-2.86-.06C239.46,91.6,238.17,89.5,236.85,87.43Z"/><path d="M315.79,131.94c-.42-.95-1.09-1.73-1-2.31a30.43,30.43,0,0,1,1.89-5.22c.19-.42,1.23-.9,1.5-.73.55.33,1.28,1.22,1.16,1.65a39.43,39.43,0,0,1-2.07,5.31C317.12,131.06,316.54,131.32,315.79,131.94Z"/><path d="M306.32,59.57a4,4,0,0,1-2.62-3,9.85,9.85,0,0,0-1.37-2.68c-.57-.83-.72-1.64.18-2.09a2,2,0,0,1,1.83.46,14.26,14.26,0,0,1,1.82,2.75c.83,1.44,1.23,2.94.2,4.47Z"/><path d="M148.75,63.56c.8-1.75,1.34-3.17,2.1-4.47.25-.43,1.35-.9,1.56-.73a2.45,2.45,0,0,1,1,1.8,15.68,15.68,0,0,1-1.36,4.1c-.26.53-1.31,1.19-1.67,1C149.68,65,149.25,64.14,148.75,63.56Z"/><path d="M69,146.35l7.49,3.29c-.06,1.39-.8,2-2.59,1.8C70.8,151.11,68.68,148.86,69,146.35Z"/><path d="M152,47.88c0-4.83,2.23-8,6.57-8.63-2.18,3.22-3.77,6.35-6.55,8.66Z"/><path d="M313.14,155.47c-1.24,1.6-2.38,3.14-3.59,4.61-.61.74-1.54,1.28-2.25.36-.3-.39,0-1.51.34-2.08a31.48,31.48,0,0,1,2.53-3.25C311.27,153.75,311.69,153.79,313.14,155.47Z"/><path d="M279,173.48l6.3-4.5.52.45a5.08,5.08,0,0,1-2.09,4.45C282.28,175,280.81,175,279,173.48Z"/><path d="M219,141.89a37.27,37.27,0,0,1-1,4.24c-.63,1.82-1.49,3.56-2.25,5.32-.6,1.38-1.12,1.63-2.67,1.29l5.19-11.08Z"/><path d="M71.68,88.66c-.79-2.82-.3-3.52,2.48-3.77a25,25,0,0,0,2.77-.7c1.07-.22,2.17-.37,3.25-.55l.15.61-8.64,4.42Z"/><path d="M140.48,74.42a6.66,6.66,0,0,1-1.16-5.6c.15-.54,1.3-1.07,2-1.13,1-.08,1.41.68,1.14,1.7C142,71,142.12,72.91,140.48,74.42Z"/><path d="M370,228c-1.31-1.33-.92-2.21.65-3a17,17,0,0,0,1.92-1.54,24.31,24.31,0,0,1,2.14-1.21c.54,2.66.35,3.21-1.69,4.35a32.83,32.83,0,0,1-3,1.37Z"/><path d="M231.72,10c3-.87,5.6,0,8.43.69C237.31,12.61,233.51,12.35,231.72,10Z"/><path d="M163.22,40.41a16,16,0,0,1,.57,2.61c.11,1.59-1.92,3.19-3.39,2.64a1.62,1.62,0,0,1-.38-1.53c1-1.31,2.11-2.49,3.2-3.72Z"/><path d="M74.8,318.5H88.55v.41H74.8Z"/><path d="M323,135.23a22.7,22.7,0,0,1-.86,2.58,14.17,14.17,0,0,1-1.18,1.72c-.5-.59-1.26-1.11-1.41-1.78a2.34,2.34,0,0,1,.66-2C320.81,135.32,321.79,135.42,323,135.23Z"/><path d="M370,228c-.23.33-.41.9-.7,1a15.56,15.56,0,0,1-6.41,0c0-.26,0-.53,0-.79,1.14-.07,2.27-.16,3.41-.19s2.49,0,3.74,0Z"/><path d="M306,151.08a7.62,7.62,0,0,1-1.85,1.46c-.26.1-1.34-1-1.27-1.14a5.88,5.88,0,0,1,1.74-2.05c.24-.16,1.08.58,1.64.9C306.21,150.52,306.12,150.8,306,151.08Z"/><path d="M316.92,149c-1.16-2.14-1-3.45.25-4.11a1.74,1.74,0,0,1,1.29-.06c.17.06.26.78.12,1.08C318.14,146.89,317.59,147.8,316.92,149Z"/><path d="M416.19,189.76c0,1.72.08,3.45-2,4.22-1.06-2.29-.59-3.29,1.94-4.25Z"/><path d="M65.67,99.65v5a2.6,2.6,0,0,1-1.52-3,7.72,7.72,0,0,1,1-2.25Z"/><path d="M86.39,82.94H79.57c0-.2,0-.41,0-.61H86.4C86.4,82.53,86.4,82.74,86.39,82.94Z"/><path d="M324.54,129c-.83-1.83-.87-3.39,1-4.55C326.28,125.8,325.93,127.5,324.54,129Z"/><path d="M53.06,151.24H47.44C48.21,150,50.25,149.83,53.06,151.24Z"/><path d="M228.25,189.79l7.82-.53C233.54,191.39,230.82,189.76,228.25,189.79Z"/><path d="M197.06,160.86c-1,2.61-2,2.69-3.89.34Z"/><path d="M218.91,102.15a14.5,14.5,0,0,1,1.45,2.33c.07.19-.85,1-.91,1a4.68,4.68,0,0,1-1.56-1.5C217.76,103.67,218.39,103,218.91,102.15Z"/><path d="M152,47.92v.2c-.06,1-.26,1.93-1.48,1.64a1.69,1.69,0,0,1-.77-1.5c.42-1.37,1.36-1,2.24-.38Z"/><path d="M159.7,188.76l3.89.35C162,190.5,160.94,190.36,159.7,188.76Z"/><path d="M306.35,59.53a11.32,11.32,0,0,1,1.95.29c.13,0,.22.8.06,1.06a2,2,0,0,1-1.1.81c-.21.05-.68-.4-.8-.71a5.08,5.08,0,0,1-.15-1.42Z"/><path d="M47.92,153.05l-2.81.75c-.07-.28-.15-.56-.22-.84.78-.9,1.67-1.4,2.94-.56Z"/><ellipse cx="238.61" cy="45.69" rx="23.98" ry="25.97"/><circle cx="283.36" cy="86.37" r="24.46"/><circle cx="254.61" cy="145.53" r="25.76"/><ellipse cx="195.2" cy="138.2" rx="25.17" ry="25.97"/><ellipse cx="183.07" cy="74.45" rx="25.17" ry="25.97"/><circle cx="82.98" cy="102.02" r="18.31"/><circle cx="116.17" cy="132.56" r="18.31"/><circle cx="95.28" cy="176.89" r="18.31"/><circle cx="50.25" cy="170.6" r="18.31"/><circle cx="42.15" cy="124.39" r="18.31"/></g></g></svg>